%TF.GenerationSoftware,KiCad,Pcbnew,9.0.8*%
%TF.CreationDate,2026-03-25T13:51:45-05:00*%
%TF.ProjectId,Motor Simulator 24V_ NOV2025,4d6f746f-7220-4536-996d-756c61746f72,vNOV'25*%
%TF.SameCoordinates,Original*%
%TF.FileFunction,Soldermask,Bot*%
%TF.FilePolarity,Negative*%
%FSLAX46Y46*%
G04 Gerber Fmt 4.6, Leading zero omitted, Abs format (unit mm)*
G04 Created by KiCad (PCBNEW 9.0.8) date 2026-03-25 13:51:45*
%MOMM*%
%LPD*%
G01*
G04 APERTURE LIST*
G04 Aperture macros list*
%AMRoundRect*
0 Rectangle with rounded corners*
0 $1 Rounding radius*
0 $2 $3 $4 $5 $6 $7 $8 $9 X,Y pos of 4 corners*
0 Add a 4 corners polygon primitive as box body*
4,1,4,$2,$3,$4,$5,$6,$7,$8,$9,$2,$3,0*
0 Add four circle primitives for the rounded corners*
1,1,$1+$1,$2,$3*
1,1,$1+$1,$4,$5*
1,1,$1+$1,$6,$7*
1,1,$1+$1,$8,$9*
0 Add four rect primitives between the rounded corners*
20,1,$1+$1,$2,$3,$4,$5,0*
20,1,$1+$1,$4,$5,$6,$7,0*
20,1,$1+$1,$6,$7,$8,$9,0*
20,1,$1+$1,$8,$9,$2,$3,0*%
%AMHorizOval*
0 Thick line with rounded ends*
0 $1 width*
0 $2 $3 position (X,Y) of the first rounded end (center of the circle)*
0 $4 $5 position (X,Y) of the second rounded end (center of the circle)*
0 Add line between two ends*
20,1,$1,$2,$3,$4,$5,0*
0 Add two circle primitives to create the rounded ends*
1,1,$1,$2,$3*
1,1,$1,$4,$5*%
%AMRotRect*
0 Rectangle, with rotation*
0 The origin of the aperture is its center*
0 $1 length*
0 $2 width*
0 $3 Rotation angle, in degrees counterclockwise*
0 Add horizontal line*
21,1,$1,$2,0,0,$3*%
%AMFreePoly0*
4,1,17,1.309954,1.332520,1.347008,1.281520,1.352000,1.250000,1.352000,-1.250000,1.332520,-1.309954,1.281520,-1.347008,1.250000,-1.352000,-1.250000,-1.352000,-1.309954,-1.332520,-1.347008,-1.281520,-1.352000,-1.250000,-1.352000,1.250000,-1.332520,1.309954,-1.281520,1.347008,-1.250000,1.352000,1.250000,1.352000,1.309954,1.332520,1.309954,1.332520,$1*%
G04 Aperture macros list end*
%ADD10C,0.000000*%
%ADD11C,1.000000*%
%ADD12FreePoly0,0.000000*%
%ADD13C,2.704000*%
%ADD14R,1.800000X1.800000*%
%ADD15C,1.800000*%
%ADD16C,2.100000*%
%ADD17RotRect,1.800000X1.800000X306.000000*%
%ADD18RotRect,1.800000X1.800000X18.000000*%
%ADD19RotRect,1.800000X1.800000X126.000000*%
%ADD20RotRect,1.800000X1.800000X234.000000*%
%ADD21RotRect,1.800000X1.800000X198.000000*%
%ADD22RotRect,1.800000X1.800000X54.000000*%
%ADD23RotRect,1.800000X1.800000X342.000000*%
%ADD24RotRect,1.800000X1.800000X162.000000*%
%ADD25O,1.400000X1.800000*%
%ADD26O,2.400000X1.700000*%
%ADD27R,2.500000X1.700000*%
%ADD28O,2.500000X1.700000*%
%ADD29R,1.800000X1.100000*%
%ADD30RoundRect,0.275000X-0.625000X0.275000X-0.625000X-0.275000X0.625000X-0.275000X0.625000X0.275000X0*%
%ADD31HorizOval,1.400000X-0.141421X0.141421X0.141421X-0.141421X0*%
%ADD32RoundRect,0.250000X0.550000X-0.950000X0.550000X0.950000X-0.550000X0.950000X-0.550000X-0.950000X0*%
%ADD33O,1.600000X2.400000*%
%ADD34O,2.500000X4.000000*%
%ADD35O,1.800000X1.400000*%
%ADD36RoundRect,0.250000X0.550000X0.550000X-0.550000X0.550000X-0.550000X-0.550000X0.550000X-0.550000X0*%
%ADD37O,1.778000X1.600000*%
%ADD38RoundRect,0.249999X-0.850001X0.850001X-0.850001X-0.850001X0.850001X-0.850001X0.850001X0.850001X0*%
%ADD39C,2.200000*%
%ADD40C,1.600000*%
%ADD41C,2.500000*%
%ADD42R,2.000000X2.000000*%
%ADD43O,2.000000X2.000000*%
G04 APERTURE END LIST*
D10*
%TO.C,G\u002A\u002A\u002A*%
G36*
X74012842Y-84081263D02*
G01*
X74035542Y-84099999D01*
X74051226Y-84116369D01*
X74049166Y-84360813D01*
X74049154Y-84362240D01*
X74048509Y-84421722D01*
X74047655Y-84475147D01*
X74046620Y-84521577D01*
X74045433Y-84560076D01*
X74044123Y-84589708D01*
X74042719Y-84609537D01*
X74041249Y-84618628D01*
X74041027Y-84619117D01*
X74031755Y-84631715D01*
X74018095Y-84643399D01*
X74008248Y-84648807D01*
X73984777Y-84654107D01*
X73962858Y-84649746D01*
X73945064Y-84636581D01*
X73933968Y-84615464D01*
X73933258Y-84611773D01*
X73931772Y-84595543D01*
X73930523Y-84569927D01*
X73929510Y-84536526D01*
X73928734Y-84496942D01*
X73928194Y-84452773D01*
X73927890Y-84405622D01*
X73927823Y-84357088D01*
X73927992Y-84308772D01*
X73928397Y-84262275D01*
X73929039Y-84219197D01*
X73929917Y-84181139D01*
X73931031Y-84149702D01*
X73932382Y-84126485D01*
X73933969Y-84113090D01*
X73936113Y-84103721D01*
X73941026Y-84090217D01*
X73948904Y-84082587D01*
X73962854Y-84076942D01*
X73965935Y-84075984D01*
X73990254Y-84073453D01*
X74012842Y-84081263D01*
G37*
G36*
X68334546Y-84076818D02*
G01*
X68359085Y-84093287D01*
X68359265Y-84093441D01*
X68361905Y-84096201D01*
X68364088Y-84100170D01*
X68365855Y-84106394D01*
X68367252Y-84115921D01*
X68368322Y-84129796D01*
X68369107Y-84149068D01*
X68369652Y-84174781D01*
X68370001Y-84207984D01*
X68370195Y-84249722D01*
X68370280Y-84301042D01*
X68370299Y-84362991D01*
X68370298Y-84388790D01*
X68370270Y-84446319D01*
X68370168Y-84493640D01*
X68369945Y-84531802D01*
X68369553Y-84561857D01*
X68368946Y-84584856D01*
X68368075Y-84601849D01*
X68366894Y-84613889D01*
X68365356Y-84622025D01*
X68363412Y-84627309D01*
X68361015Y-84630792D01*
X68358119Y-84633524D01*
X68347753Y-84641143D01*
X68333309Y-84649045D01*
X68314557Y-84653210D01*
X68291231Y-84650131D01*
X68271364Y-84638980D01*
X68258371Y-84621032D01*
X68257242Y-84615906D01*
X68255541Y-84598464D01*
X68253980Y-84570011D01*
X68252575Y-84530953D01*
X68251338Y-84481699D01*
X68250284Y-84422657D01*
X68249425Y-84354235D01*
X68246826Y-84103212D01*
X68270091Y-84087158D01*
X68287448Y-84077149D01*
X68311277Y-84071481D01*
X68334546Y-84076818D01*
G37*
G36*
X73525404Y-79899617D02*
G01*
X73564445Y-79903861D01*
X73599662Y-79910520D01*
X73628478Y-79919341D01*
X73648316Y-79930074D01*
X73648671Y-79930354D01*
X73659733Y-79937571D01*
X73674615Y-79945786D01*
X73686497Y-79952880D01*
X73709016Y-79969629D01*
X73733954Y-79991082D01*
X73758306Y-80014600D01*
X73779066Y-80037543D01*
X73792911Y-80055026D01*
X73816726Y-80090793D01*
X73833567Y-80126980D01*
X73844947Y-80167253D01*
X73852379Y-80215278D01*
X73854153Y-80232713D01*
X73856568Y-80287062D01*
X73852782Y-80334743D01*
X73842180Y-80378607D01*
X73824143Y-80421509D01*
X73798053Y-80466301D01*
X73760781Y-80514622D01*
X73712826Y-80558936D01*
X73657680Y-80594656D01*
X73596279Y-80621184D01*
X73529563Y-80637918D01*
X73490838Y-80640616D01*
X73447014Y-80637350D01*
X73403278Y-80628726D01*
X73364484Y-80615405D01*
X73359814Y-80613363D01*
X73341314Y-80605822D01*
X73326539Y-80600544D01*
X73316317Y-80596590D01*
X73309026Y-80591791D01*
X73304887Y-80588179D01*
X73293034Y-80579892D01*
X73276759Y-80569526D01*
X73259770Y-80557603D01*
X73229951Y-80530698D01*
X73199969Y-80496991D01*
X73172260Y-80459057D01*
X73148091Y-80414190D01*
X73129182Y-80358789D01*
X73119057Y-80300288D01*
X73118194Y-80241591D01*
X73127074Y-80185602D01*
X73133301Y-80163681D01*
X73158500Y-80099909D01*
X73192013Y-80043932D01*
X73233447Y-79996151D01*
X73282408Y-79956967D01*
X73338505Y-79926781D01*
X73401343Y-79905991D01*
X73411122Y-79903885D01*
X73446165Y-79899377D01*
X73485118Y-79898039D01*
X73525404Y-79899617D01*
G37*
G36*
X67801473Y-84070821D02*
G01*
X67850851Y-84071135D01*
X67897397Y-84071654D01*
X67939639Y-84072378D01*
X67976102Y-84073306D01*
X68005314Y-84074437D01*
X68025801Y-84075772D01*
X68036090Y-84077309D01*
X68050860Y-84086786D01*
X68062215Y-84104346D01*
X68067481Y-84125922D01*
X68066400Y-84148201D01*
X68058715Y-84167866D01*
X68044171Y-84181601D01*
X68036522Y-84183426D01*
X68018765Y-84185609D01*
X67993293Y-84187779D01*
X67962193Y-84189761D01*
X67927550Y-84191381D01*
X67821552Y-84195475D01*
X67821059Y-84374097D01*
X67821001Y-84393031D01*
X67820715Y-84449485D01*
X67820188Y-84495764D01*
X67819295Y-84533022D01*
X67817909Y-84562417D01*
X67815904Y-84585103D01*
X67813153Y-84602236D01*
X67809531Y-84614972D01*
X67804910Y-84624466D01*
X67799164Y-84631874D01*
X67792167Y-84638353D01*
X67777252Y-84648031D01*
X67754570Y-84653822D01*
X67733393Y-84649907D01*
X67716108Y-84636912D01*
X67705101Y-84615464D01*
X67704760Y-84614004D01*
X67703129Y-84599818D01*
X67701727Y-84575241D01*
X67700582Y-84541349D01*
X67699725Y-84499217D01*
X67699185Y-84449920D01*
X67698992Y-84394532D01*
X67698959Y-84195482D01*
X67587094Y-84192103D01*
X67555473Y-84191043D01*
X67519075Y-84189219D01*
X67491796Y-84186599D01*
X67472132Y-84182698D01*
X67458577Y-84177032D01*
X67449626Y-84169115D01*
X67443774Y-84158465D01*
X67439517Y-84144596D01*
X67437775Y-84132663D01*
X67441587Y-84109118D01*
X67454000Y-84089521D01*
X67473406Y-84077078D01*
X67481364Y-84075775D01*
X67500342Y-84074425D01*
X67528277Y-84073284D01*
X67563696Y-84072353D01*
X67605125Y-84071632D01*
X67651091Y-84071118D01*
X67700120Y-84070812D01*
X67750739Y-84070713D01*
X67801473Y-84070821D01*
G37*
G36*
X67226130Y-84079876D02*
G01*
X67240107Y-84091474D01*
X67247732Y-84110524D01*
X67247784Y-84110779D01*
X67248885Y-84122320D01*
X67249832Y-84143747D01*
X67250625Y-84173518D01*
X67251264Y-84210095D01*
X67251747Y-84251938D01*
X67252075Y-84297505D01*
X67252246Y-84345259D01*
X67252260Y-84393657D01*
X67252117Y-84441162D01*
X67251816Y-84486231D01*
X67251356Y-84527327D01*
X67250737Y-84562908D01*
X67249958Y-84591434D01*
X67249020Y-84611366D01*
X67247920Y-84621164D01*
X67240574Y-84634343D01*
X67227488Y-84645740D01*
X67202781Y-84654184D01*
X67179299Y-84651528D01*
X67157893Y-84637391D01*
X67150967Y-84630089D01*
X67143941Y-84620095D01*
X67138969Y-84607920D01*
X67135706Y-84591665D01*
X67133804Y-84569434D01*
X67132917Y-84539328D01*
X67132699Y-84499449D01*
X67132699Y-84415531D01*
X66937503Y-84415531D01*
X66742307Y-84415531D01*
X66740479Y-84520014D01*
X66740181Y-84536152D01*
X66739357Y-84570025D01*
X66738286Y-84594686D01*
X66736773Y-84611908D01*
X66734624Y-84623463D01*
X66731642Y-84631121D01*
X66727634Y-84636654D01*
X66726009Y-84638357D01*
X66707088Y-84649878D01*
X66684696Y-84652860D01*
X66662130Y-84647959D01*
X66642685Y-84635832D01*
X66629659Y-84617137D01*
X66629552Y-84616860D01*
X66627559Y-84607210D01*
X66625826Y-84589340D01*
X66624331Y-84562673D01*
X66623054Y-84526634D01*
X66621974Y-84480648D01*
X66621072Y-84424138D01*
X66620325Y-84356529D01*
X66618090Y-84113638D01*
X66642935Y-84092371D01*
X66652199Y-84084941D01*
X66672312Y-84073819D01*
X66691252Y-84072251D01*
X66712038Y-84079684D01*
X66712359Y-84079851D01*
X66722842Y-84087315D01*
X66730580Y-84098230D01*
X66735949Y-84114234D01*
X66739321Y-84136965D01*
X66741070Y-84168062D01*
X66741570Y-84209162D01*
X66741570Y-84292939D01*
X66936723Y-84292939D01*
X67131877Y-84292939D01*
X67133747Y-84201772D01*
X67135617Y-84110606D01*
X67158482Y-84090855D01*
X67164314Y-84086046D01*
X67184801Y-84074083D01*
X67204398Y-84072190D01*
X67226130Y-84079876D01*
G37*
G36*
X70979191Y-84389953D02*
G01*
X70978727Y-84445824D01*
X70977920Y-84492133D01*
X70976693Y-84529926D01*
X70974969Y-84560249D01*
X70972670Y-84584148D01*
X70969720Y-84602670D01*
X70966041Y-84616860D01*
X70961555Y-84627764D01*
X70956186Y-84636429D01*
X70942546Y-84654878D01*
X70818555Y-84654878D01*
X70774489Y-84654622D01*
X70716930Y-84653146D01*
X70668185Y-84650111D01*
X70626565Y-84645239D01*
X70590385Y-84638250D01*
X70557957Y-84628866D01*
X70527593Y-84616807D01*
X70497607Y-84601795D01*
X70486635Y-84595487D01*
X70451910Y-84571680D01*
X70420357Y-84544634D01*
X70395977Y-84517662D01*
X70393905Y-84514750D01*
X70382889Y-84495598D01*
X70370711Y-84469966D01*
X70359019Y-84441766D01*
X70349456Y-84414911D01*
X70343669Y-84393312D01*
X70341249Y-84374344D01*
X70342219Y-84356503D01*
X70464990Y-84356503D01*
X70467193Y-84386999D01*
X70479580Y-84419379D01*
X70483185Y-84426078D01*
X70508759Y-84459696D01*
X70543686Y-84486914D01*
X70588194Y-84507875D01*
X70642509Y-84522724D01*
X70644825Y-84523169D01*
X70668243Y-84526677D01*
X70699099Y-84530101D01*
X70733649Y-84533068D01*
X70768150Y-84535206D01*
X70851338Y-84539211D01*
X70851338Y-84365636D01*
X70851338Y-84192062D01*
X70756475Y-84195566D01*
X70743837Y-84196066D01*
X70697944Y-84198708D01*
X70660394Y-84202596D01*
X70628519Y-84208170D01*
X70599652Y-84215870D01*
X70571126Y-84226136D01*
X70558753Y-84231269D01*
X70531374Y-84245140D01*
X70511129Y-84261003D01*
X70494816Y-84281794D01*
X70479234Y-84310452D01*
X70472960Y-84324726D01*
X70464990Y-84356503D01*
X70342219Y-84356503D01*
X70343532Y-84332343D01*
X70348139Y-84315276D01*
X70357449Y-84290453D01*
X70369521Y-84263233D01*
X70382750Y-84236988D01*
X70395527Y-84215086D01*
X70406243Y-84200899D01*
X70416250Y-84190133D01*
X70428245Y-84176122D01*
X70449778Y-84155498D01*
X70482381Y-84134015D01*
X70522446Y-84114514D01*
X70567778Y-84098051D01*
X70616185Y-84085681D01*
X70637714Y-84081951D01*
X70679445Y-84076898D01*
X70727409Y-84073100D01*
X70778286Y-84070744D01*
X70828757Y-84070017D01*
X70875502Y-84071104D01*
X70892976Y-84071954D01*
X70915073Y-84073443D01*
X70929911Y-84075658D01*
X70940266Y-84079379D01*
X70948913Y-84085384D01*
X70958628Y-84094455D01*
X70979644Y-84114888D01*
X70979391Y-84322127D01*
X70979390Y-84323473D01*
X70979264Y-84365636D01*
X70979191Y-84389953D01*
G37*
G36*
X76616105Y-84368829D02*
G01*
X76616105Y-84372015D01*
X76616046Y-84434168D01*
X76615806Y-84485749D01*
X76615278Y-84527813D01*
X76614357Y-84561416D01*
X76612936Y-84587612D01*
X76610908Y-84607455D01*
X76608168Y-84622001D01*
X76604610Y-84632303D01*
X76600126Y-84639417D01*
X76594612Y-84644398D01*
X76587960Y-84648300D01*
X76586588Y-84648862D01*
X76574640Y-84650933D01*
X76552793Y-84652323D01*
X76520607Y-84653043D01*
X76477642Y-84653106D01*
X76423459Y-84652521D01*
X76404829Y-84652228D01*
X76360465Y-84651367D01*
X76325325Y-84650328D01*
X76297610Y-84648977D01*
X76275518Y-84647181D01*
X76257249Y-84644807D01*
X76241002Y-84641720D01*
X76224976Y-84637786D01*
X76180651Y-84623612D01*
X76126125Y-84597658D01*
X76079563Y-84564045D01*
X76040001Y-84522173D01*
X76037977Y-84519449D01*
X76026553Y-84499850D01*
X76014293Y-84473345D01*
X76002682Y-84443672D01*
X75993208Y-84414567D01*
X75987356Y-84389768D01*
X75985254Y-84369881D01*
X75986481Y-84349924D01*
X76112137Y-84349924D01*
X76113204Y-84383789D01*
X76119290Y-84406252D01*
X76130476Y-84430536D01*
X76144343Y-84452171D01*
X76158484Y-84466741D01*
X76165272Y-84471913D01*
X76176750Y-84481974D01*
X76179440Y-84484388D01*
X76197326Y-84495215D01*
X76223323Y-84505964D01*
X76254588Y-84515589D01*
X76288281Y-84523044D01*
X76288580Y-84523097D01*
X76313435Y-84526661D01*
X76345749Y-84530144D01*
X76381375Y-84533147D01*
X76416162Y-84535274D01*
X76496431Y-84539063D01*
X76496431Y-84366380D01*
X76496431Y-84193697D01*
X76429719Y-84193697D01*
X76418993Y-84193744D01*
X76348232Y-84196842D01*
X76287553Y-84204908D01*
X76236454Y-84218105D01*
X76194436Y-84236596D01*
X76160997Y-84260548D01*
X76135636Y-84290122D01*
X76119741Y-84319418D01*
X76112137Y-84349924D01*
X75986481Y-84349924D01*
X75987559Y-84332405D01*
X75998069Y-84291360D01*
X76017182Y-84244810D01*
X76033772Y-84215191D01*
X76067583Y-84174044D01*
X76110538Y-84139459D01*
X76162046Y-84111877D01*
X76221517Y-84091742D01*
X76238160Y-84087977D01*
X76271388Y-84082380D01*
X76309958Y-84077660D01*
X76351990Y-84073880D01*
X76395603Y-84071107D01*
X76438916Y-84069404D01*
X76480049Y-84068837D01*
X76517121Y-84069469D01*
X76548250Y-84071367D01*
X76571558Y-84074594D01*
X76585162Y-84079216D01*
X76586368Y-84080018D01*
X76593434Y-84085329D01*
X76599284Y-84091620D01*
X76604033Y-84099962D01*
X76607795Y-84111423D01*
X76610685Y-84127073D01*
X76612817Y-84147981D01*
X76614306Y-84175217D01*
X76615264Y-84209850D01*
X76615807Y-84252951D01*
X76616049Y-84305587D01*
X76616103Y-84366380D01*
X76616105Y-84368829D01*
G37*
G36*
X71747431Y-84071077D02*
G01*
X71763110Y-84088966D01*
X71763573Y-84089497D01*
X71768960Y-84096362D01*
X71773420Y-84104124D01*
X71777029Y-84113861D01*
X71779863Y-84126650D01*
X71781997Y-84143570D01*
X71783507Y-84165698D01*
X71784467Y-84194112D01*
X71784953Y-84229890D01*
X71785041Y-84274109D01*
X71784806Y-84327846D01*
X71784324Y-84392180D01*
X71784316Y-84393159D01*
X71783792Y-84452485D01*
X71783214Y-84501260D01*
X71782447Y-84540592D01*
X71781359Y-84571590D01*
X71779816Y-84595361D01*
X71777685Y-84613014D01*
X71774833Y-84625656D01*
X71771127Y-84634395D01*
X71766434Y-84640340D01*
X71760620Y-84644598D01*
X71753554Y-84648277D01*
X71749206Y-84649252D01*
X71733327Y-84650664D01*
X71707201Y-84651891D01*
X71671702Y-84652909D01*
X71627705Y-84653696D01*
X71576087Y-84654228D01*
X71517722Y-84654483D01*
X71497909Y-84654516D01*
X71439404Y-84654532D01*
X71391222Y-84654290D01*
X71352322Y-84653638D01*
X71321666Y-84652425D01*
X71298213Y-84650499D01*
X71280925Y-84647708D01*
X71268762Y-84643900D01*
X71260683Y-84638923D01*
X71255650Y-84632625D01*
X71252623Y-84624855D01*
X71250562Y-84615461D01*
X71249061Y-84603000D01*
X71250958Y-84578357D01*
X71258818Y-84558152D01*
X71271655Y-84545652D01*
X71277026Y-84543929D01*
X71289586Y-84542068D01*
X71309269Y-84540614D01*
X71336985Y-84539534D01*
X71373646Y-84538795D01*
X71420159Y-84538365D01*
X71477435Y-84538210D01*
X71668621Y-84538124D01*
X71668621Y-84477321D01*
X71668621Y-84416518D01*
X71541650Y-84414355D01*
X71493714Y-84413274D01*
X71456026Y-84411799D01*
X71428297Y-84409878D01*
X71409665Y-84407452D01*
X71399270Y-84404461D01*
X71384168Y-84392489D01*
X71374034Y-84373341D01*
X71371427Y-84351380D01*
X71376132Y-84329685D01*
X71387934Y-84311335D01*
X71406617Y-84299409D01*
X71415143Y-84297654D01*
X71435736Y-84295685D01*
X71465607Y-84294201D01*
X71503388Y-84293265D01*
X71547713Y-84292939D01*
X71670248Y-84292939D01*
X71666566Y-84262290D01*
X71665417Y-84251835D01*
X71663581Y-84230177D01*
X71662834Y-84213462D01*
X71662784Y-84195281D01*
X71483273Y-84192050D01*
X71448634Y-84191378D01*
X71398012Y-84190111D01*
X71357219Y-84188585D01*
X71325091Y-84186673D01*
X71300462Y-84184246D01*
X71282169Y-84181177D01*
X71269045Y-84177337D01*
X71259928Y-84172599D01*
X71253651Y-84166836D01*
X71250491Y-84160894D01*
X71247018Y-84144108D01*
X71246397Y-84123729D01*
X71248625Y-84104726D01*
X71253699Y-84092070D01*
X71257926Y-84087860D01*
X71265235Y-84083350D01*
X71275713Y-84079687D01*
X71290423Y-84076790D01*
X71310429Y-84074575D01*
X71336794Y-84072961D01*
X71370580Y-84071864D01*
X71412850Y-84071202D01*
X71464669Y-84070893D01*
X71527098Y-84070854D01*
X71747431Y-84071077D01*
G37*
G36*
X72699489Y-84079230D02*
G01*
X72711607Y-84099401D01*
X72720874Y-84126493D01*
X72726215Y-84158125D01*
X72727527Y-84178856D01*
X72728628Y-84210118D01*
X72729434Y-84248867D01*
X72729949Y-84292973D01*
X72730176Y-84340308D01*
X72730117Y-84388743D01*
X72729775Y-84436150D01*
X72729154Y-84480399D01*
X72728256Y-84519363D01*
X72727085Y-84550911D01*
X72725643Y-84572916D01*
X72723861Y-84590425D01*
X72721120Y-84608868D01*
X72717242Y-84620937D01*
X72711064Y-84629793D01*
X72701420Y-84638591D01*
X72696612Y-84642363D01*
X72682190Y-84651304D01*
X72671286Y-84654878D01*
X72662304Y-84653892D01*
X72642960Y-84647374D01*
X72625221Y-84636954D01*
X72614086Y-84625224D01*
X72613993Y-84625044D01*
X72611341Y-84613924D01*
X72608760Y-84591788D01*
X72606299Y-84559273D01*
X72604006Y-84517015D01*
X72601931Y-84465652D01*
X72600849Y-84435211D01*
X72599400Y-84395792D01*
X72598052Y-84360608D01*
X72596880Y-84331518D01*
X72595955Y-84310381D01*
X72595353Y-84299054D01*
X72593903Y-84278900D01*
X72486670Y-84374945D01*
X72476100Y-84384412D01*
X72439850Y-84416880D01*
X72402147Y-84450648D01*
X72365530Y-84483445D01*
X72332535Y-84512997D01*
X72305700Y-84537033D01*
X72300407Y-84541769D01*
X72259823Y-84577660D01*
X72226514Y-84606016D01*
X72199478Y-84627355D01*
X72177716Y-84642199D01*
X72160226Y-84651067D01*
X72146008Y-84654479D01*
X72134061Y-84652955D01*
X72123385Y-84647015D01*
X72112979Y-84637179D01*
X72107430Y-84630461D01*
X72102178Y-84621855D01*
X72097928Y-84611144D01*
X72094608Y-84597264D01*
X72092143Y-84579154D01*
X72090460Y-84555750D01*
X72089486Y-84525990D01*
X72089147Y-84488810D01*
X72089371Y-84443148D01*
X72090082Y-84387942D01*
X72091209Y-84322127D01*
X72095221Y-84103212D01*
X72110307Y-84090244D01*
X72129591Y-84076972D01*
X72148708Y-84072701D01*
X72171239Y-84077131D01*
X72174891Y-84078379D01*
X72185177Y-84082819D01*
X72193407Y-84088866D01*
X72199864Y-84097778D01*
X72204830Y-84110814D01*
X72208587Y-84129231D01*
X72211418Y-84154289D01*
X72213605Y-84187246D01*
X72215431Y-84229359D01*
X72217177Y-84281888D01*
X72217216Y-84283154D01*
X72218612Y-84324794D01*
X72220069Y-84362463D01*
X72221512Y-84394620D01*
X72222865Y-84419726D01*
X72224053Y-84436240D01*
X72225002Y-84442624D01*
X72226257Y-84442644D01*
X72231696Y-84439488D01*
X72241740Y-84431846D01*
X72256957Y-84419225D01*
X72277913Y-84401133D01*
X72305173Y-84377079D01*
X72339305Y-84346570D01*
X72380874Y-84309116D01*
X72430446Y-84264224D01*
X72463294Y-84234430D01*
X72496970Y-84203917D01*
X72523937Y-84179553D01*
X72545264Y-84160397D01*
X72562019Y-84145509D01*
X72575272Y-84133948D01*
X72586093Y-84124772D01*
X72595550Y-84117043D01*
X72604713Y-84109818D01*
X72614650Y-84102158D01*
X72623862Y-84095277D01*
X72650726Y-84077850D01*
X72671606Y-84068793D01*
X72685797Y-84068441D01*
X72699489Y-84079230D01*
G37*
G36*
X75501794Y-84070980D02*
G01*
X75552054Y-84071230D01*
X75592806Y-84071766D01*
X75625159Y-84072716D01*
X75650222Y-84074210D01*
X75669104Y-84076376D01*
X75682915Y-84079344D01*
X75692764Y-84083242D01*
X75699758Y-84088201D01*
X75705008Y-84094348D01*
X75709623Y-84101813D01*
X75710042Y-84102654D01*
X75711899Y-84109740D01*
X75713427Y-84122368D01*
X75714651Y-84141413D01*
X75715597Y-84167752D01*
X75716289Y-84202261D01*
X75716752Y-84245815D01*
X75717012Y-84299292D01*
X75717093Y-84363567D01*
X75717083Y-84407765D01*
X75716976Y-84463989D01*
X75716659Y-84510259D01*
X75716017Y-84547605D01*
X75714938Y-84577053D01*
X75713307Y-84599632D01*
X75711010Y-84616368D01*
X75707934Y-84628290D01*
X75703965Y-84636426D01*
X75698989Y-84641802D01*
X75692892Y-84645447D01*
X75685561Y-84648388D01*
X75680265Y-84649403D01*
X75663505Y-84650783D01*
X75637700Y-84651945D01*
X75604442Y-84652889D01*
X75565321Y-84653614D01*
X75521929Y-84654119D01*
X75475858Y-84654403D01*
X75428699Y-84654466D01*
X75382043Y-84654306D01*
X75337482Y-84653923D01*
X75296606Y-84653317D01*
X75261009Y-84652485D01*
X75232280Y-84651428D01*
X75212012Y-84650144D01*
X75201795Y-84648634D01*
X75198805Y-84647483D01*
X75184743Y-84637160D01*
X75174263Y-84618348D01*
X75172054Y-84612723D01*
X75167864Y-84598654D01*
X75168633Y-84587331D01*
X75174376Y-84572724D01*
X75176065Y-84569283D01*
X75186710Y-84554129D01*
X75198393Y-84544632D01*
X75203493Y-84543305D01*
X75220987Y-84541432D01*
X75249803Y-84539981D01*
X75290028Y-84538947D01*
X75341747Y-84538329D01*
X75405049Y-84538124D01*
X75597419Y-84538124D01*
X75597419Y-84477408D01*
X75597419Y-84416692D01*
X75473367Y-84414143D01*
X75441856Y-84413344D01*
X75400538Y-84411721D01*
X75367577Y-84409658D01*
X75344078Y-84407231D01*
X75331147Y-84404515D01*
X75315217Y-84394771D01*
X75303369Y-84376557D01*
X75300787Y-84352966D01*
X75307902Y-84325460D01*
X75309753Y-84321259D01*
X75316721Y-84310735D01*
X75327557Y-84304322D01*
X75346135Y-84299378D01*
X75359717Y-84297500D01*
X75383633Y-84295676D01*
X75414453Y-84294232D01*
X75449674Y-84293281D01*
X75486790Y-84292939D01*
X75597419Y-84292939D01*
X75597419Y-84270402D01*
X75597367Y-84266210D01*
X75596148Y-84243976D01*
X75593816Y-84221578D01*
X75590213Y-84195290D01*
X75402630Y-84192267D01*
X75350367Y-84191247D01*
X75302320Y-84189919D01*
X75262226Y-84188373D01*
X75231014Y-84186650D01*
X75209616Y-84184793D01*
X75198962Y-84182847D01*
X75197702Y-84182299D01*
X75184197Y-84171884D01*
X75173490Y-84156763D01*
X75169770Y-84148483D01*
X75167221Y-84137934D01*
X75169247Y-84126710D01*
X75176122Y-84109905D01*
X75188673Y-84088502D01*
X75203989Y-84076708D01*
X75206766Y-84076021D01*
X75221618Y-84074469D01*
X75247221Y-84073174D01*
X75282914Y-84072153D01*
X75328037Y-84071421D01*
X75381930Y-84070994D01*
X75443934Y-84070888D01*
X75501794Y-84070980D01*
G37*
G36*
X73327320Y-84075659D02*
G01*
X73394937Y-84086051D01*
X73456529Y-84102758D01*
X73510957Y-84125430D01*
X73557080Y-84153722D01*
X73593756Y-84187283D01*
X73599063Y-84193836D01*
X73614742Y-84217247D01*
X73631339Y-84246694D01*
X73646880Y-84278512D01*
X73659389Y-84309037D01*
X73663935Y-84323292D01*
X73669557Y-84358359D01*
X73666738Y-84394272D01*
X73655175Y-84433078D01*
X73634565Y-84476827D01*
X73622827Y-84497199D01*
X73602099Y-84527569D01*
X73581316Y-84551873D01*
X73562443Y-84567636D01*
X73558906Y-84569860D01*
X73544533Y-84579627D01*
X73535083Y-84587155D01*
X73532014Y-84589852D01*
X73514013Y-84600994D01*
X73487801Y-84613000D01*
X73455976Y-84624954D01*
X73421137Y-84635942D01*
X73385882Y-84645047D01*
X73352809Y-84651355D01*
X73347480Y-84651979D01*
X73325626Y-84653054D01*
X73296288Y-84653152D01*
X73262204Y-84652400D01*
X73226111Y-84650925D01*
X73190744Y-84648855D01*
X73158843Y-84646317D01*
X73133143Y-84643440D01*
X73116380Y-84640349D01*
X73116357Y-84640342D01*
X73089353Y-84631316D01*
X73060589Y-84619252D01*
X73034418Y-84606146D01*
X73015193Y-84593989D01*
X73014600Y-84593484D01*
X73008412Y-84582002D01*
X73003180Y-84561486D01*
X72999115Y-84534341D01*
X72996429Y-84502970D01*
X72995335Y-84469779D01*
X72996044Y-84437170D01*
X72998767Y-84407548D01*
X72998971Y-84406090D01*
X73002905Y-84381808D01*
X73007193Y-84365923D01*
X73012995Y-84355339D01*
X73021471Y-84346962D01*
X73022876Y-84345839D01*
X73036490Y-84337281D01*
X73052857Y-84331723D01*
X73074174Y-84328849D01*
X73102639Y-84328346D01*
X73140450Y-84329896D01*
X73182718Y-84333084D01*
X73215442Y-84337485D01*
X73239220Y-84343396D01*
X73255414Y-84351157D01*
X73265385Y-84361108D01*
X73272551Y-84375984D01*
X73275430Y-84400148D01*
X73268793Y-84422849D01*
X73253142Y-84440824D01*
X73247967Y-84443865D01*
X73228536Y-84450806D01*
X73202071Y-84456578D01*
X73171859Y-84460557D01*
X73141191Y-84462116D01*
X73116380Y-84462233D01*
X73116380Y-84485379D01*
X73116395Y-84487733D01*
X73117716Y-84500835D01*
X73122603Y-84509890D01*
X73133071Y-84516203D01*
X73151131Y-84521077D01*
X73178795Y-84525817D01*
X73194059Y-84527873D01*
X73239326Y-84531314D01*
X73286795Y-84531694D01*
X73331962Y-84529067D01*
X73370322Y-84523488D01*
X73379775Y-84521350D01*
X73423406Y-84507374D01*
X73461912Y-84488305D01*
X73493659Y-84465283D01*
X73517012Y-84439447D01*
X73530336Y-84411938D01*
X73534248Y-84393595D01*
X73535895Y-84357141D01*
X73530235Y-84322068D01*
X73517908Y-84291367D01*
X73499553Y-84268032D01*
X73481911Y-84254267D01*
X73440060Y-84230914D01*
X73390515Y-84212941D01*
X73335225Y-84200721D01*
X73276143Y-84194625D01*
X73215218Y-84195024D01*
X73154401Y-84202290D01*
X73149199Y-84203210D01*
X73113823Y-84208107D01*
X73087428Y-84208529D01*
X73068267Y-84204109D01*
X73054596Y-84194483D01*
X73044670Y-84179283D01*
X73037344Y-84154337D01*
X73040739Y-84131934D01*
X73055040Y-84112908D01*
X73080080Y-84097363D01*
X73115694Y-84085401D01*
X73161715Y-84077124D01*
X73217975Y-84072635D01*
X73254820Y-84071930D01*
X73327320Y-84075659D01*
G37*
G36*
X74622131Y-84069952D02*
G01*
X74665154Y-84071077D01*
X74705040Y-84073126D01*
X74738950Y-84076035D01*
X74764047Y-84079738D01*
X74789145Y-84085726D01*
X74839751Y-84103950D01*
X74881033Y-84128352D01*
X74912709Y-84158691D01*
X74934500Y-84194727D01*
X74946125Y-84236219D01*
X74947500Y-84261763D01*
X74942079Y-84285919D01*
X74928264Y-84308894D01*
X74904858Y-84333510D01*
X74892352Y-84344638D01*
X74871441Y-84360934D01*
X74849558Y-84374379D01*
X74824925Y-84385618D01*
X74795767Y-84395299D01*
X74760308Y-84404069D01*
X74716772Y-84412575D01*
X74663381Y-84421463D01*
X74627074Y-84427324D01*
X74571841Y-84436981D01*
X74527477Y-84445962D01*
X74493497Y-84454501D01*
X74469417Y-84462831D01*
X74454751Y-84471186D01*
X74449015Y-84479799D01*
X74451724Y-84488904D01*
X74462392Y-84498734D01*
X74480536Y-84509524D01*
X74491408Y-84514564D01*
X74511848Y-84521256D01*
X74536810Y-84526184D01*
X74567474Y-84529420D01*
X74605017Y-84531032D01*
X74650621Y-84531092D01*
X74705464Y-84529670D01*
X74770726Y-84526837D01*
X74785993Y-84526082D01*
X74827571Y-84524089D01*
X74859400Y-84522758D01*
X74882933Y-84522126D01*
X74899626Y-84522227D01*
X74910932Y-84523097D01*
X74918305Y-84524773D01*
X74923201Y-84527290D01*
X74927072Y-84530684D01*
X74931828Y-84536670D01*
X74939931Y-84556591D01*
X74942395Y-84579777D01*
X74938359Y-84600881D01*
X74937045Y-84603621D01*
X74922736Y-84618506D01*
X74897527Y-84631185D01*
X74861940Y-84641450D01*
X74816495Y-84649097D01*
X74810960Y-84649660D01*
X74789576Y-84650908D01*
X74759754Y-84651833D01*
X74723823Y-84652392D01*
X74684111Y-84652543D01*
X74642949Y-84652244D01*
X74635380Y-84652138D01*
X74578365Y-84650712D01*
X74531193Y-84648038D01*
X74492253Y-84643717D01*
X74459935Y-84637353D01*
X74432627Y-84628546D01*
X74408719Y-84616898D01*
X74386598Y-84602012D01*
X74364654Y-84583490D01*
X74362576Y-84581579D01*
X74338620Y-84556869D01*
X74323436Y-84534088D01*
X74315462Y-84510162D01*
X74313139Y-84482015D01*
X74313141Y-84479741D01*
X74313893Y-84460503D01*
X74317156Y-84446195D01*
X74324607Y-84432203D01*
X74337927Y-84413915D01*
X74349703Y-84399494D01*
X74372222Y-84377243D01*
X74397972Y-84358985D01*
X74428642Y-84343961D01*
X74465921Y-84331409D01*
X74511497Y-84320570D01*
X74567058Y-84310681D01*
X74579944Y-84308636D01*
X74638268Y-84299138D01*
X74686155Y-84290805D01*
X74724560Y-84283369D01*
X74754438Y-84276563D01*
X74776742Y-84270117D01*
X74792429Y-84263763D01*
X74802452Y-84257232D01*
X74807765Y-84250258D01*
X74809325Y-84242570D01*
X74808651Y-84237681D01*
X74799146Y-84224770D01*
X74778805Y-84213957D01*
X74748133Y-84205357D01*
X74707633Y-84199087D01*
X74657809Y-84195264D01*
X74599166Y-84194004D01*
X74598651Y-84194004D01*
X74564932Y-84194496D01*
X74531246Y-84195755D01*
X74501472Y-84197591D01*
X74479492Y-84199816D01*
X74457970Y-84202619D01*
X74425794Y-84206317D01*
X74396501Y-84209209D01*
X74381932Y-84210419D01*
X74365363Y-84211012D01*
X74354717Y-84209115D01*
X74346452Y-84203840D01*
X74337030Y-84194299D01*
X74328048Y-84182845D01*
X74318656Y-84159941D01*
X74319325Y-84137681D01*
X74329746Y-84118273D01*
X74349614Y-84103924D01*
X74360056Y-84099841D01*
X74386698Y-84092084D01*
X74420056Y-84084667D01*
X74456922Y-84078264D01*
X74494087Y-84073550D01*
X74502628Y-84072772D01*
X74538029Y-84070734D01*
X74578810Y-84069816D01*
X74622131Y-84069952D01*
G37*
G36*
X68664667Y-84073464D02*
G01*
X68667069Y-84074565D01*
X68684334Y-84087006D01*
X68698899Y-84104225D01*
X68705798Y-84116212D01*
X68717684Y-84138679D01*
X68733021Y-84168882D01*
X68751044Y-84205277D01*
X68770990Y-84246321D01*
X68792097Y-84290471D01*
X68813602Y-84336183D01*
X68818348Y-84346330D01*
X68831297Y-84373800D01*
X68843609Y-84399659D01*
X68853152Y-84419414D01*
X68868443Y-84450643D01*
X68882670Y-84425790D01*
X68885346Y-84421023D01*
X68894926Y-84403389D01*
X68907906Y-84379012D01*
X68922925Y-84350459D01*
X68938620Y-84320296D01*
X68950370Y-84297864D01*
X68968807Y-84264498D01*
X68984201Y-84239946D01*
X68997595Y-84222982D01*
X69010028Y-84212382D01*
X69022539Y-84206921D01*
X69036168Y-84205372D01*
X69052387Y-84207346D01*
X69072904Y-84218507D01*
X69078039Y-84224764D01*
X69088500Y-84240778D01*
X69102024Y-84263717D01*
X69117425Y-84291552D01*
X69133518Y-84322254D01*
X69138339Y-84331698D01*
X69158623Y-84371085D01*
X69174537Y-84401044D01*
X69186722Y-84422447D01*
X69195822Y-84436163D01*
X69202479Y-84443065D01*
X69207336Y-84444021D01*
X69211036Y-84439904D01*
X69214222Y-84431585D01*
X69217340Y-84423432D01*
X69224710Y-84406260D01*
X69234907Y-84383576D01*
X69246723Y-84358111D01*
X69257080Y-84335964D01*
X69266454Y-84315569D01*
X69272809Y-84301327D01*
X69275149Y-84295435D01*
X69275198Y-84294899D01*
X69278512Y-84285563D01*
X69286280Y-84268283D01*
X69297460Y-84245071D01*
X69311010Y-84217942D01*
X69325886Y-84188910D01*
X69341049Y-84159987D01*
X69355454Y-84133188D01*
X69368061Y-84110526D01*
X69377826Y-84094014D01*
X69383709Y-84085667D01*
X69397539Y-84075694D01*
X69417809Y-84072068D01*
X69439042Y-84079454D01*
X69460142Y-84097681D01*
X69478761Y-84118932D01*
X69462174Y-84163917D01*
X69461255Y-84166400D01*
X69451518Y-84191907D01*
X69441719Y-84216392D01*
X69433848Y-84234867D01*
X69430234Y-84242903D01*
X69420868Y-84263890D01*
X69409442Y-84289634D01*
X69397663Y-84316290D01*
X69387187Y-84339911D01*
X69363293Y-84392782D01*
X69339743Y-84443592D01*
X69317077Y-84491260D01*
X69295837Y-84534708D01*
X69276564Y-84572855D01*
X69259800Y-84604622D01*
X69246085Y-84628928D01*
X69235961Y-84644695D01*
X69229969Y-84650842D01*
X69228808Y-84651119D01*
X69215153Y-84653048D01*
X69197726Y-84654201D01*
X69194962Y-84654270D01*
X69183659Y-84653475D01*
X69175028Y-84649168D01*
X69166193Y-84639172D01*
X69154279Y-84621311D01*
X69147145Y-84609463D01*
X69134343Y-84586658D01*
X69118792Y-84557796D01*
X69101836Y-84525381D01*
X69084820Y-84491918D01*
X69036844Y-84396091D01*
X68995822Y-84477979D01*
X68985896Y-84497765D01*
X68963597Y-84541808D01*
X68945380Y-84576787D01*
X68930512Y-84603736D01*
X68918259Y-84623691D01*
X68907889Y-84637688D01*
X68898667Y-84646762D01*
X68889861Y-84651948D01*
X68880736Y-84654282D01*
X68870560Y-84654799D01*
X68860422Y-84654639D01*
X68848581Y-84653377D01*
X68838674Y-84649687D01*
X68829527Y-84642225D01*
X68819966Y-84629645D01*
X68808815Y-84610603D01*
X68794900Y-84583755D01*
X68777046Y-84547755D01*
X68765038Y-84523247D01*
X68745562Y-84483030D01*
X68726152Y-84442462D01*
X68708525Y-84405142D01*
X68694399Y-84374667D01*
X68692914Y-84371413D01*
X68679270Y-84341561D01*
X68666225Y-84313067D01*
X68655193Y-84289020D01*
X68647590Y-84272506D01*
X68642856Y-84262178D01*
X68626381Y-84224684D01*
X68612415Y-84190470D01*
X68601634Y-84161328D01*
X68594711Y-84139052D01*
X68592319Y-84125434D01*
X68592553Y-84120486D01*
X68596463Y-84106249D01*
X68606804Y-84093176D01*
X68625683Y-84078289D01*
X68627940Y-84076711D01*
X68640387Y-84069404D01*
X68650618Y-84068571D01*
X68664667Y-84073464D01*
G37*
G36*
X68589242Y-82481024D02*
G01*
X68588825Y-82532636D01*
X68587845Y-82580876D01*
X68586300Y-82623672D01*
X68584190Y-82658952D01*
X68581512Y-82684642D01*
X68573814Y-82730785D01*
X68559728Y-82796915D01*
X68542772Y-82860480D01*
X68523780Y-82918443D01*
X68503588Y-82967772D01*
X68500616Y-82974158D01*
X68490087Y-82996890D01*
X68480654Y-83017393D01*
X68478020Y-83023008D01*
X68456996Y-83061918D01*
X68430041Y-83104466D01*
X68399279Y-83147788D01*
X68366835Y-83189016D01*
X68334834Y-83225286D01*
X68305401Y-83253732D01*
X68299796Y-83258567D01*
X68282583Y-83273645D01*
X68269248Y-83285670D01*
X68262301Y-83292390D01*
X68259639Y-83294787D01*
X68248303Y-83303274D01*
X68230942Y-83315333D01*
X68210079Y-83329184D01*
X68203772Y-83333209D01*
X68156169Y-83360014D01*
X68102560Y-83385138D01*
X68047785Y-83406480D01*
X67996684Y-83421934D01*
X67988205Y-83424035D01*
X67964987Y-83429790D01*
X67946237Y-83434439D01*
X67935388Y-83437130D01*
X67932620Y-83437652D01*
X67916578Y-83438884D01*
X67891726Y-83439390D01*
X67860248Y-83439247D01*
X67824325Y-83438533D01*
X67786140Y-83437324D01*
X67747874Y-83435698D01*
X67711712Y-83433733D01*
X67679834Y-83431507D01*
X67654424Y-83429095D01*
X67637663Y-83426576D01*
X67627205Y-83424194D01*
X67552085Y-83401146D01*
X67477391Y-83368306D01*
X67405879Y-83327045D01*
X67340305Y-83278732D01*
X67328517Y-83269613D01*
X67318220Y-83264518D01*
X67312665Y-83266920D01*
X67310934Y-83274546D01*
X67309393Y-83291574D01*
X67308334Y-83315213D01*
X67307920Y-83342847D01*
X67307831Y-83411440D01*
X66963222Y-83411440D01*
X66618613Y-83411440D01*
X66648041Y-83354522D01*
X66656444Y-83337463D01*
X66668613Y-83309789D01*
X66678142Y-83284504D01*
X66683481Y-83265497D01*
X66684748Y-83257752D01*
X66686524Y-83242978D01*
X66688170Y-83223991D01*
X66689691Y-83200399D01*
X66691091Y-83171810D01*
X66692374Y-83137829D01*
X66693544Y-83098064D01*
X66694607Y-83052123D01*
X66695565Y-82999613D01*
X66696424Y-82940141D01*
X66697187Y-82873314D01*
X66697860Y-82798739D01*
X66698446Y-82716024D01*
X66698950Y-82624776D01*
X66699375Y-82524602D01*
X66699727Y-82415109D01*
X66700010Y-82295905D01*
X66700228Y-82166596D01*
X66700385Y-82026791D01*
X66700453Y-81923692D01*
X67342857Y-81923692D01*
X67342857Y-82380740D01*
X67342857Y-82837788D01*
X67388100Y-82866677D01*
X67390823Y-82868402D01*
X67431939Y-82891534D01*
X67476317Y-82911925D01*
X67519955Y-82927907D01*
X67558853Y-82937814D01*
X67612830Y-82945197D01*
X67662258Y-82946248D01*
X67706010Y-82940102D01*
X67746107Y-82926465D01*
X67784569Y-82905044D01*
X67793008Y-82899033D01*
X67824657Y-82868443D01*
X67852931Y-82828032D01*
X67877291Y-82779031D01*
X67897197Y-82722668D01*
X67912112Y-82660174D01*
X67921496Y-82592778D01*
X67923552Y-82562696D01*
X67925002Y-82520299D01*
X67925532Y-82471920D01*
X67925199Y-82420080D01*
X67924060Y-82367299D01*
X67922172Y-82316099D01*
X67919591Y-82269000D01*
X67916374Y-82228524D01*
X67912578Y-82197190D01*
X67910590Y-82185032D01*
X67895404Y-82113576D01*
X67875467Y-82048520D01*
X67851258Y-81990869D01*
X67823259Y-81941631D01*
X67791949Y-81901815D01*
X67757808Y-81872428D01*
X67738915Y-81860508D01*
X67711460Y-81847018D01*
X67682856Y-81838559D01*
X67649671Y-81834228D01*
X67608474Y-81833121D01*
X67565495Y-81835195D01*
X67517733Y-81842946D01*
X67470623Y-81857235D01*
X67421492Y-81878903D01*
X67367667Y-81908789D01*
X67342857Y-81923692D01*
X66700453Y-81923692D01*
X66700485Y-81876096D01*
X66700534Y-81714118D01*
X66700706Y-80504246D01*
X67063074Y-80504246D01*
X67425442Y-80504246D01*
X67406575Y-80537813D01*
X67396969Y-80554620D01*
X67388054Y-80569644D01*
X67382769Y-80577848D01*
X67382026Y-80579077D01*
X67377742Y-80589918D01*
X67371965Y-80608083D01*
X67365727Y-80630388D01*
X67362979Y-80641597D01*
X67360397Y-80654560D01*
X67358211Y-80669353D01*
X67356348Y-80687205D01*
X67354732Y-80709347D01*
X67353290Y-80737010D01*
X67351947Y-80771424D01*
X67350629Y-80813821D01*
X67349261Y-80865430D01*
X67347770Y-80927482D01*
X67347032Y-80961210D01*
X67345909Y-81023228D01*
X67345049Y-81085853D01*
X67344447Y-81147968D01*
X67344099Y-81208457D01*
X67344001Y-81266203D01*
X67344149Y-81320091D01*
X67344537Y-81369004D01*
X67345163Y-81411825D01*
X67346022Y-81447438D01*
X67347110Y-81474727D01*
X67348421Y-81492575D01*
X67349953Y-81499866D01*
X67350854Y-81499988D01*
X67358998Y-81496617D01*
X67372980Y-81488888D01*
X67389955Y-81478569D01*
X67407083Y-81467431D01*
X67421520Y-81457243D01*
X67430423Y-81449774D01*
X67431453Y-81448888D01*
X67441520Y-81442920D01*
X67458902Y-81434153D01*
X67480788Y-81423878D01*
X67504368Y-81413388D01*
X67526833Y-81403974D01*
X67545372Y-81396928D01*
X67581844Y-81385952D01*
X67643540Y-81372935D01*
X67711137Y-81364119D01*
X67781584Y-81359664D01*
X67851831Y-81359731D01*
X67918825Y-81364481D01*
X67979517Y-81374073D01*
X68056115Y-81395947D01*
X68132263Y-81429015D01*
X68204640Y-81471929D01*
X68272261Y-81523835D01*
X68334141Y-81583878D01*
X68389293Y-81651202D01*
X68436733Y-81724953D01*
X68475474Y-81804275D01*
X68477989Y-81810289D01*
X68487118Y-81831650D01*
X68494692Y-81848700D01*
X68499277Y-81858191D01*
X68501704Y-81862938D01*
X68510129Y-81884572D01*
X68519632Y-81915279D01*
X68529794Y-81953178D01*
X68540198Y-81996392D01*
X68550425Y-82043039D01*
X68560057Y-82091242D01*
X68568676Y-82139119D01*
X68575864Y-82184791D01*
X68581202Y-82226379D01*
X68582930Y-82244917D01*
X68585307Y-82282303D01*
X68587129Y-82326679D01*
X68588392Y-82375973D01*
X68589097Y-82428112D01*
X68589217Y-82471920D01*
X68589242Y-82481024D01*
G37*
G36*
X70610622Y-82823304D02*
G01*
X70609324Y-82858662D01*
X70606822Y-82886674D01*
X70600963Y-82920919D01*
X70583650Y-82985487D01*
X70558906Y-83050074D01*
X70527951Y-83112358D01*
X70492003Y-83170014D01*
X70452278Y-83220718D01*
X70409996Y-83262148D01*
X70407289Y-83264412D01*
X70390261Y-83278895D01*
X70376838Y-83290699D01*
X70369724Y-83297453D01*
X70369254Y-83297938D01*
X70360547Y-83304574D01*
X70345107Y-83314777D01*
X70325941Y-83326548D01*
X70323833Y-83327802D01*
X70304347Y-83339628D01*
X70288390Y-83349697D01*
X70279240Y-83355946D01*
X70278318Y-83356632D01*
X70266123Y-83363528D01*
X70250051Y-83370539D01*
X70242006Y-83373694D01*
X70221528Y-83382214D01*
X70200430Y-83391464D01*
X70184833Y-83397534D01*
X70159432Y-83405896D01*
X70128911Y-83414974D01*
X70096596Y-83423825D01*
X70065815Y-83431503D01*
X70039892Y-83437063D01*
X70038804Y-83437223D01*
X70026678Y-83437895D01*
X70005280Y-83438279D01*
X69976626Y-83438365D01*
X69942735Y-83438145D01*
X69905624Y-83437611D01*
X69896926Y-83437441D01*
X69841018Y-83435589D01*
X69793944Y-83432245D01*
X69753245Y-83426902D01*
X69716459Y-83419048D01*
X69681126Y-83408174D01*
X69644787Y-83393770D01*
X69604981Y-83375327D01*
X69589467Y-83367300D01*
X69566652Y-83354489D01*
X69542009Y-83339863D01*
X69517945Y-83324922D01*
X69496863Y-83311164D01*
X69481170Y-83300090D01*
X69473271Y-83293200D01*
X69471933Y-83291745D01*
X69463116Y-83284149D01*
X69449920Y-83273967D01*
X69429849Y-83259138D01*
X69426930Y-83333830D01*
X69424011Y-83408521D01*
X69092237Y-83407747D01*
X69049606Y-83407621D01*
X68972885Y-83407226D01*
X68907620Y-83406642D01*
X68853848Y-83405870D01*
X68811604Y-83404911D01*
X68780925Y-83403766D01*
X68761848Y-83402434D01*
X68754408Y-83400918D01*
X68752904Y-83398005D01*
X68755509Y-83387201D01*
X68766514Y-83369584D01*
X68766889Y-83369062D01*
X68783753Y-83343496D01*
X68795008Y-83320224D01*
X68802443Y-83294592D01*
X68807845Y-83261942D01*
X68808374Y-83256378D01*
X68809423Y-83237566D01*
X68810540Y-83208540D01*
X68811706Y-83170250D01*
X68812900Y-83123645D01*
X68814101Y-83069675D01*
X68815289Y-83009289D01*
X68816443Y-82943438D01*
X68817543Y-82873071D01*
X68818006Y-82839698D01*
X69461247Y-82839698D01*
X69485369Y-82870168D01*
X69495521Y-82882462D01*
X69525238Y-82912339D01*
X69559553Y-82937579D01*
X69601990Y-82960923D01*
X69645845Y-82982366D01*
X69733411Y-82983687D01*
X69772907Y-82983850D01*
X69807814Y-82982606D01*
X69835619Y-82979461D01*
X69858699Y-82973998D01*
X69879433Y-82965800D01*
X69900199Y-82954451D01*
X69920982Y-82941374D01*
X69935537Y-82930371D01*
X69947857Y-82917958D01*
X69961954Y-82900638D01*
X69982247Y-82869523D01*
X69995706Y-82834610D01*
X70002685Y-82793283D01*
X70003173Y-82787249D01*
X70001288Y-82737414D01*
X69988769Y-82691669D01*
X69966021Y-82650386D01*
X69933447Y-82613942D01*
X69891452Y-82582713D01*
X69840440Y-82557073D01*
X69780814Y-82537398D01*
X69712979Y-82524063D01*
X69704561Y-82523060D01*
X69680412Y-82521235D01*
X69650773Y-82519990D01*
X69617789Y-82519307D01*
X69583603Y-82519169D01*
X69550361Y-82519558D01*
X69520208Y-82520457D01*
X69495287Y-82521849D01*
X69477744Y-82523715D01*
X69469724Y-82526040D01*
X69468425Y-82532413D01*
X69467073Y-82549000D01*
X69465794Y-82574165D01*
X69464655Y-82606326D01*
X69463722Y-82643897D01*
X69463061Y-82685296D01*
X69461247Y-82839698D01*
X68818006Y-82839698D01*
X68818568Y-82799137D01*
X68819497Y-82722587D01*
X68820391Y-82644548D01*
X68821651Y-82539827D01*
X68822893Y-82445616D01*
X68824158Y-82361224D01*
X68825486Y-82285958D01*
X68826918Y-82219127D01*
X68828494Y-82160040D01*
X68830256Y-82108003D01*
X68832243Y-82062327D01*
X68834497Y-82022318D01*
X68837057Y-81987285D01*
X68839965Y-81956536D01*
X68843261Y-81929379D01*
X68846986Y-81905124D01*
X68851180Y-81883077D01*
X68855884Y-81862547D01*
X68861138Y-81842843D01*
X68866984Y-81823272D01*
X68873461Y-81803143D01*
X68901807Y-81728220D01*
X68935882Y-81660522D01*
X68975838Y-81601335D01*
X69022663Y-81549397D01*
X69077348Y-81503447D01*
X69140881Y-81462226D01*
X69198746Y-81432777D01*
X69263208Y-81407927D01*
X69333800Y-81388361D01*
X69411713Y-81373809D01*
X69498139Y-81363996D01*
X69594268Y-81358652D01*
X69628807Y-81357818D01*
X69680983Y-81357795D01*
X69730740Y-81359619D01*
X69780007Y-81363545D01*
X69830717Y-81369827D01*
X69884800Y-81378720D01*
X69944186Y-81390480D01*
X70010807Y-81405361D01*
X70086594Y-81423617D01*
X70111238Y-81429646D01*
X70157294Y-81440599D01*
X70202047Y-81450865D01*
X70243828Y-81460088D01*
X70280965Y-81467911D01*
X70311787Y-81473977D01*
X70334623Y-81477930D01*
X70347802Y-81479412D01*
X70361865Y-81481242D01*
X70379618Y-81486709D01*
X70395350Y-81493743D01*
X70375030Y-81543364D01*
X70370857Y-81553522D01*
X70361515Y-81576050D01*
X70353883Y-81594163D01*
X70349305Y-81604660D01*
X70346733Y-81610539D01*
X70340031Y-81626369D01*
X70330389Y-81649420D01*
X70318662Y-81677642D01*
X70305709Y-81708984D01*
X70289560Y-81747709D01*
X70269321Y-81794862D01*
X70251050Y-81835829D01*
X70235192Y-81869665D01*
X70222193Y-81895431D01*
X70212497Y-81912184D01*
X70206548Y-81918982D01*
X70202088Y-81918756D01*
X70188292Y-81915001D01*
X70168226Y-81907943D01*
X70144509Y-81898449D01*
X70080947Y-81872725D01*
X70005310Y-81845761D01*
X69935221Y-81825441D01*
X69868751Y-81811295D01*
X69803974Y-81802854D01*
X69738960Y-81799649D01*
X69697469Y-81800288D01*
X69654219Y-81804626D01*
X69617357Y-81813525D01*
X69584230Y-81827668D01*
X69552182Y-81847739D01*
X69531301Y-81866323D01*
X69505644Y-81901066D01*
X69483575Y-81946168D01*
X69479336Y-81958927D01*
X69473466Y-81980283D01*
X69467044Y-82006207D01*
X69460793Y-82033532D01*
X69455434Y-82059091D01*
X69451689Y-82079717D01*
X69450281Y-82092241D01*
X69453042Y-82093417D01*
X69466311Y-82094870D01*
X69489754Y-82096014D01*
X69522486Y-82096822D01*
X69563622Y-82097265D01*
X69612278Y-82097317D01*
X69687668Y-82097836D01*
X69789719Y-82101427D01*
X69882475Y-82108595D01*
X69967090Y-82119576D01*
X70044718Y-82134607D01*
X70116512Y-82153924D01*
X70183626Y-82177764D01*
X70247213Y-82206363D01*
X70308428Y-82239957D01*
X70367968Y-82279284D01*
X70434326Y-82334252D01*
X70490523Y-82394964D01*
X70536568Y-82461430D01*
X70572469Y-82533662D01*
X70598235Y-82611670D01*
X70602049Y-82632315D01*
X70605487Y-82663263D01*
X70608149Y-82700578D01*
X70609949Y-82741519D01*
X70610802Y-82783342D01*
X70610784Y-82787249D01*
X70610622Y-82823304D01*
G37*
G36*
X71479964Y-80633132D02*
G01*
X71537799Y-80635461D01*
X71589660Y-80639973D01*
X71639058Y-80647113D01*
X71689505Y-80657326D01*
X71744512Y-80671056D01*
X71756842Y-80674498D01*
X71787651Y-80683979D01*
X71821576Y-80695356D01*
X71856238Y-80707741D01*
X71889257Y-80720244D01*
X71918255Y-80731977D01*
X71940852Y-80742051D01*
X71954670Y-80749577D01*
X71955707Y-80750277D01*
X71969008Y-80758385D01*
X71988421Y-80769352D01*
X72010129Y-80781014D01*
X72042703Y-80799326D01*
X72104137Y-80839950D01*
X72167397Y-80888882D01*
X72230801Y-80944518D01*
X72292666Y-81005255D01*
X72351306Y-81069490D01*
X72405041Y-81135620D01*
X72452185Y-81202041D01*
X72485940Y-81257269D01*
X72535272Y-81354298D01*
X72577185Y-81458491D01*
X72611618Y-81568649D01*
X72638510Y-81683570D01*
X72657797Y-81802055D01*
X72669419Y-81922904D01*
X72673314Y-82044918D01*
X72669420Y-82166897D01*
X72657676Y-82287640D01*
X72638020Y-82405948D01*
X72610389Y-82520621D01*
X72574724Y-82630459D01*
X72530961Y-82734262D01*
X72525978Y-82744586D01*
X72501976Y-82791409D01*
X72475126Y-82839863D01*
X72446705Y-82887904D01*
X72417991Y-82933488D01*
X72390264Y-82974571D01*
X72364801Y-83009108D01*
X72342880Y-83035056D01*
X72335788Y-83042723D01*
X72322128Y-83057661D01*
X72304555Y-83076980D01*
X72285155Y-83098390D01*
X72271263Y-83113264D01*
X72244977Y-83139638D01*
X72218094Y-83164846D01*
X72194671Y-83185005D01*
X72183196Y-83194284D01*
X72164989Y-83209281D01*
X72151282Y-83220926D01*
X72144397Y-83227265D01*
X72132688Y-83237703D01*
X72110837Y-83253058D01*
X72081823Y-83271021D01*
X72047560Y-83290542D01*
X72009962Y-83310573D01*
X71970942Y-83330065D01*
X71932415Y-83347969D01*
X71896293Y-83363236D01*
X71892473Y-83364748D01*
X71822479Y-83390657D01*
X71758595Y-83410424D01*
X71697690Y-83424795D01*
X71636635Y-83434513D01*
X71572299Y-83440325D01*
X71536293Y-83442463D01*
X71501561Y-83444216D01*
X71472165Y-83445128D01*
X71444710Y-83445198D01*
X71415799Y-83444426D01*
X71382035Y-83442815D01*
X71340023Y-83440363D01*
X71339848Y-83440353D01*
X71279918Y-83436009D01*
X71228046Y-83430539D01*
X71180639Y-83423403D01*
X71134104Y-83414061D01*
X71084847Y-83401972D01*
X71077706Y-83400080D01*
X71046713Y-83391514D01*
X71018601Y-83382920D01*
X70991480Y-83373527D01*
X70963464Y-83362563D01*
X70932663Y-83349258D01*
X70897190Y-83332841D01*
X70855154Y-83312541D01*
X70804669Y-83287587D01*
X70762977Y-83266743D01*
X70724143Y-83247028D01*
X70693224Y-83230886D01*
X70668818Y-83217549D01*
X70649527Y-83206249D01*
X70633948Y-83196218D01*
X70620682Y-83186687D01*
X70618791Y-83183375D01*
X70619951Y-83175538D01*
X70625644Y-83162273D01*
X70636509Y-83142143D01*
X70653184Y-83113715D01*
X70654285Y-83111878D01*
X70670800Y-83084183D01*
X70686459Y-83057747D01*
X70699539Y-83035485D01*
X70708321Y-83020312D01*
X70714541Y-83009589D01*
X70728399Y-82986519D01*
X70742055Y-82964592D01*
X70746027Y-82958267D01*
X70757234Y-82940049D01*
X70772673Y-82914666D01*
X70791228Y-82883964D01*
X70811780Y-82849790D01*
X70833213Y-82813990D01*
X70905572Y-82692838D01*
X70923486Y-82709172D01*
X70927003Y-82712401D01*
X70939418Y-82724138D01*
X70947449Y-82732237D01*
X70948039Y-82732889D01*
X70966502Y-82750344D01*
X70992622Y-82771405D01*
X71023837Y-82794320D01*
X71057580Y-82817335D01*
X71091289Y-82838701D01*
X71122398Y-82856664D01*
X71148343Y-82869473D01*
X71156237Y-82872877D01*
X71176562Y-82881786D01*
X71192834Y-82889097D01*
X71214294Y-82897159D01*
X71246485Y-82906073D01*
X71283713Y-82914062D01*
X71322464Y-82920382D01*
X71359221Y-82924289D01*
X71410390Y-82925200D01*
X71483636Y-82917279D01*
X71554994Y-82899034D01*
X71622992Y-82871109D01*
X71686154Y-82834145D01*
X71743004Y-82788786D01*
X71792068Y-82735675D01*
X71797601Y-82728668D01*
X71811274Y-82711574D01*
X71821550Y-82699044D01*
X71826536Y-82693398D01*
X71829250Y-82689614D01*
X71836795Y-82677320D01*
X71847635Y-82658779D01*
X71860433Y-82636244D01*
X71877988Y-82602813D01*
X71906657Y-82536681D01*
X71931272Y-82462936D01*
X71952221Y-82380345D01*
X71969892Y-82287675D01*
X71971639Y-82275393D01*
X71974885Y-82241765D01*
X71977485Y-82199710D01*
X71979423Y-82151425D01*
X71980683Y-82099107D01*
X71981250Y-82044955D01*
X71981109Y-81991164D01*
X71980244Y-81939934D01*
X71978639Y-81893461D01*
X71976280Y-81853942D01*
X71973151Y-81823575D01*
X71970200Y-81803656D01*
X71958292Y-81736902D01*
X71943493Y-81669827D01*
X71926572Y-81605429D01*
X71908296Y-81546708D01*
X71889434Y-81496662D01*
X71881769Y-81479881D01*
X71871095Y-81458280D01*
X71858813Y-81434504D01*
X71846277Y-81411081D01*
X71834842Y-81390542D01*
X71825862Y-81375415D01*
X71820689Y-81368232D01*
X71820104Y-81367644D01*
X71813914Y-81360025D01*
X71803220Y-81346031D01*
X71789940Y-81328158D01*
X71773402Y-81308295D01*
X71744588Y-81279849D01*
X71710931Y-81251470D01*
X71675746Y-81225906D01*
X71642351Y-81205905D01*
X71637760Y-81203592D01*
X71609381Y-81191190D01*
X71576036Y-81178866D01*
X71542829Y-81168396D01*
X71514866Y-81161554D01*
X71505121Y-81159823D01*
X71436136Y-81152440D01*
X71364811Y-81152512D01*
X71295058Y-81159862D01*
X71230791Y-81174315D01*
X71195346Y-81186619D01*
X71131542Y-81217222D01*
X71067532Y-81258520D01*
X71004241Y-81309958D01*
X71001951Y-81312004D01*
X70985727Y-81325674D01*
X70972739Y-81335283D01*
X70965620Y-81338859D01*
X70959046Y-81335409D01*
X70950071Y-81325725D01*
X70936108Y-81306045D01*
X70898195Y-81251330D01*
X70854925Y-81187262D01*
X70853253Y-81184761D01*
X70837615Y-81161573D01*
X70824366Y-81142255D01*
X70814860Y-81128761D01*
X70810449Y-81123047D01*
X70808749Y-81121098D01*
X70801941Y-81111278D01*
X70792838Y-81096777D01*
X70788655Y-81089930D01*
X70779745Y-81075860D01*
X70774048Y-81067588D01*
X70772970Y-81066161D01*
X70765718Y-81055713D01*
X70753947Y-81038187D01*
X70739041Y-81015695D01*
X70722386Y-80990351D01*
X70705367Y-80964267D01*
X70689369Y-80939558D01*
X70675778Y-80918337D01*
X70665978Y-80902716D01*
X70647180Y-80872113D01*
X70668243Y-80863312D01*
X70672382Y-80861600D01*
X70685230Y-80856545D01*
X70691488Y-80854511D01*
X70695473Y-80853071D01*
X70709969Y-80846722D01*
X70734952Y-80835320D01*
X70770406Y-80818872D01*
X70816311Y-80797387D01*
X70891623Y-80763108D01*
X70981258Y-80725713D01*
X71064694Y-80695224D01*
X71143424Y-80671247D01*
X71218939Y-80653390D01*
X71292733Y-80641258D01*
X71366298Y-80634459D01*
X71441125Y-80632597D01*
X71479964Y-80633132D01*
G37*
G36*
X76615435Y-80718039D02*
G01*
X76616062Y-80803006D01*
X76616610Y-80896575D01*
X76617083Y-80999089D01*
X76617482Y-81110887D01*
X76617813Y-81232312D01*
X76618078Y-81363705D01*
X76618280Y-81505408D01*
X76618424Y-81657762D01*
X76618511Y-81821108D01*
X76618546Y-81995788D01*
X76618540Y-82118257D01*
X76618484Y-82285562D01*
X76618368Y-82441766D01*
X76618190Y-82587211D01*
X76617946Y-82722235D01*
X76617632Y-82847178D01*
X76617244Y-82962381D01*
X76616779Y-83068183D01*
X76616234Y-83164923D01*
X76615605Y-83252943D01*
X76614888Y-83332582D01*
X76614081Y-83404179D01*
X76613178Y-83468075D01*
X76612177Y-83524609D01*
X76611075Y-83574122D01*
X76609867Y-83616952D01*
X76608550Y-83653441D01*
X76607121Y-83683928D01*
X76605576Y-83708753D01*
X76603911Y-83728256D01*
X76602123Y-83742776D01*
X76600209Y-83752653D01*
X76595097Y-83768782D01*
X76586344Y-83782915D01*
X76572322Y-83793518D01*
X76567485Y-83796149D01*
X76560343Y-83799071D01*
X76551191Y-83801394D01*
X76538649Y-83803225D01*
X76521336Y-83804672D01*
X76497871Y-83805843D01*
X76466873Y-83806845D01*
X76426962Y-83807786D01*
X76376757Y-83808774D01*
X76376556Y-83808777D01*
X76354630Y-83809079D01*
X76321617Y-83809380D01*
X76278098Y-83809680D01*
X76224654Y-83809977D01*
X76161866Y-83810269D01*
X76090315Y-83810555D01*
X76010583Y-83810833D01*
X75923249Y-83811103D01*
X75828896Y-83811361D01*
X75728104Y-83811608D01*
X75621454Y-83811841D01*
X75509528Y-83812059D01*
X75392907Y-83812260D01*
X75272171Y-83812443D01*
X75147901Y-83812606D01*
X75020680Y-83812748D01*
X74891087Y-83812867D01*
X74759704Y-83812963D01*
X74585179Y-83813049D01*
X74415959Y-83813081D01*
X74257780Y-83813051D01*
X74110320Y-83812958D01*
X73973257Y-83812799D01*
X73846267Y-83812570D01*
X73729029Y-83812270D01*
X73621219Y-83811894D01*
X73522516Y-83811441D01*
X73432598Y-83810908D01*
X73351141Y-83810291D01*
X73277824Y-83809589D01*
X73212324Y-83808798D01*
X73154319Y-83807916D01*
X73103485Y-83806940D01*
X73059502Y-83805867D01*
X73022046Y-83804695D01*
X72990795Y-83803420D01*
X72965427Y-83802040D01*
X72945619Y-83800552D01*
X72931049Y-83798954D01*
X72921394Y-83797242D01*
X72907351Y-83792859D01*
X72888603Y-83780963D01*
X72876650Y-83762091D01*
X72869771Y-83734139D01*
X72869383Y-83726657D01*
X72868951Y-83707749D01*
X72868509Y-83678063D01*
X72868059Y-83638065D01*
X72867603Y-83588223D01*
X72867143Y-83529002D01*
X72866681Y-83460871D01*
X72866279Y-83393927D01*
X74048821Y-83393927D01*
X74502044Y-83393927D01*
X74955268Y-83393927D01*
X74955411Y-83348684D01*
X74955413Y-83348023D01*
X74956314Y-83321943D01*
X74958464Y-83296832D01*
X74961410Y-83278042D01*
X74962024Y-83275502D01*
X74971462Y-83246977D01*
X74986597Y-83211912D01*
X75006141Y-83172763D01*
X75028805Y-83131982D01*
X75053302Y-83092022D01*
X75078344Y-83055338D01*
X75090342Y-83038725D01*
X75102956Y-83021031D01*
X75111607Y-83008636D01*
X75116366Y-83001796D01*
X75128050Y-82985504D01*
X75141068Y-82967772D01*
X75144534Y-82963112D01*
X75155183Y-82948766D01*
X75165135Y-82935294D01*
X75176287Y-82920122D01*
X75190531Y-82900672D01*
X75209764Y-82874368D01*
X75233103Y-82842418D01*
X75305532Y-82743019D01*
X75316516Y-82727916D01*
X75335239Y-82702172D01*
X75352234Y-82678804D01*
X75380891Y-82639430D01*
X75428478Y-82574203D01*
X75469822Y-82517779D01*
X75505265Y-82469701D01*
X75535153Y-82429513D01*
X75559831Y-82396760D01*
X75579645Y-82370984D01*
X75594938Y-82351730D01*
X75606057Y-82338543D01*
X75613345Y-82330964D01*
X75617148Y-82328540D01*
X75618107Y-82331095D01*
X75619452Y-82343914D01*
X75620685Y-82366500D01*
X75621799Y-82397709D01*
X75622789Y-82436399D01*
X75623648Y-82481425D01*
X75624370Y-82531646D01*
X75624948Y-82585916D01*
X75625376Y-82643093D01*
X75625648Y-82702034D01*
X75625757Y-82761595D01*
X75625697Y-82820634D01*
X75625462Y-82878005D01*
X75625045Y-82932568D01*
X75624440Y-82983177D01*
X75623641Y-83028690D01*
X75622641Y-83067963D01*
X75621433Y-83099853D01*
X75619399Y-83140681D01*
X75617443Y-83172321D01*
X75615261Y-83196817D01*
X75612538Y-83216435D01*
X75608960Y-83233444D01*
X75604211Y-83250110D01*
X75597976Y-83268702D01*
X75595487Y-83275639D01*
X75584105Y-83304182D01*
X75571566Y-83331837D01*
X75560164Y-83353469D01*
X75540264Y-83386874D01*
X75557896Y-83390400D01*
X75560811Y-83390700D01*
X75574937Y-83391285D01*
X75599230Y-83391833D01*
X75632682Y-83392337D01*
X75674283Y-83392787D01*
X75723023Y-83393174D01*
X75777893Y-83393490D01*
X75837884Y-83393727D01*
X75901986Y-83393875D01*
X75969190Y-83393927D01*
X76046153Y-83393891D01*
X76115633Y-83393768D01*
X76174785Y-83393545D01*
X76224297Y-83393210D01*
X76264856Y-83392749D01*
X76297149Y-83392150D01*
X76321864Y-83391400D01*
X76339688Y-83390486D01*
X76351310Y-83389395D01*
X76357417Y-83388114D01*
X76358697Y-83386630D01*
X76358159Y-83385713D01*
X76352084Y-83376004D01*
X76341844Y-83360068D01*
X76329330Y-83340853D01*
X76329108Y-83340514D01*
X76317813Y-83322345D01*
X76308637Y-83304859D01*
X76301295Y-83286513D01*
X76295504Y-83265761D01*
X76290979Y-83241059D01*
X76287437Y-83210862D01*
X76284592Y-83173624D01*
X76282162Y-83127802D01*
X76279862Y-83071850D01*
X76279196Y-83049392D01*
X76278509Y-83014263D01*
X76277900Y-82969745D01*
X76277367Y-82916564D01*
X76276910Y-82855446D01*
X76276525Y-82787119D01*
X76276211Y-82712307D01*
X76275966Y-82631738D01*
X76275789Y-82546138D01*
X76275678Y-82456233D01*
X76275630Y-82362750D01*
X76275645Y-82266415D01*
X76275720Y-82167954D01*
X76275853Y-82068094D01*
X76276043Y-81967561D01*
X76276288Y-81867082D01*
X76276586Y-81767383D01*
X76276936Y-81669189D01*
X76277334Y-81573229D01*
X76277781Y-81480227D01*
X76278274Y-81390911D01*
X76278810Y-81306007D01*
X76279389Y-81226241D01*
X76280009Y-81152339D01*
X76280667Y-81085028D01*
X76281362Y-81025034D01*
X76282093Y-80973084D01*
X76282856Y-80929904D01*
X76283652Y-80896220D01*
X76284477Y-80872759D01*
X76285330Y-80860247D01*
X76288314Y-80839007D01*
X76294938Y-80805797D01*
X76304045Y-80778450D01*
X76317055Y-80753165D01*
X76335385Y-80726145D01*
X76338096Y-80722435D01*
X76350321Y-80704966D01*
X76358916Y-80691457D01*
X76362163Y-80684574D01*
X76360816Y-80684124D01*
X76349756Y-80683235D01*
X76328205Y-80682414D01*
X76296960Y-80681669D01*
X76256819Y-80681011D01*
X76208580Y-80680450D01*
X76153040Y-80679996D01*
X76090999Y-80679660D01*
X76023254Y-80679450D01*
X75950602Y-80679378D01*
X75898791Y-80679413D01*
X75833219Y-80679561D01*
X75771877Y-80679816D01*
X75715697Y-80680167D01*
X75665608Y-80680606D01*
X75622542Y-80681121D01*
X75587428Y-80681704D01*
X75561198Y-80682344D01*
X75544783Y-80683032D01*
X75539112Y-80683757D01*
X75540200Y-80687191D01*
X75545750Y-80698705D01*
X75554412Y-80714405D01*
X75559243Y-80722746D01*
X75570579Y-80742375D01*
X75579673Y-80758188D01*
X75594085Y-80790292D01*
X75606255Y-80832077D01*
X75615258Y-80880780D01*
X75615916Y-80887055D01*
X75617121Y-80906462D01*
X75618293Y-80934985D01*
X75619423Y-80971468D01*
X75620499Y-81014756D01*
X75621511Y-81063694D01*
X75622448Y-81117128D01*
X75623299Y-81173902D01*
X75624054Y-81232863D01*
X75624700Y-81292853D01*
X75625229Y-81352720D01*
X75625628Y-81411308D01*
X75625888Y-81467461D01*
X75625996Y-81520026D01*
X75625944Y-81567847D01*
X75625718Y-81609769D01*
X75625310Y-81644638D01*
X75624708Y-81671298D01*
X75623901Y-81688594D01*
X75622878Y-81695372D01*
X75620855Y-81695791D01*
X75616546Y-81693189D01*
X75609464Y-81686435D01*
X75598879Y-81674681D01*
X75584063Y-81657081D01*
X75564286Y-81632789D01*
X75538820Y-81600958D01*
X75506934Y-81560742D01*
X75496871Y-81548031D01*
X75480718Y-81527664D01*
X75464632Y-81507411D01*
X75462772Y-81505070D01*
X75442132Y-81478983D01*
X75417396Y-81447568D01*
X75391328Y-81414344D01*
X75366695Y-81382826D01*
X75357394Y-81370924D01*
X75343008Y-81352555D01*
X75327827Y-81333203D01*
X75314772Y-81316426D01*
X75298445Y-81295112D01*
X75285409Y-81277744D01*
X75279414Y-81269736D01*
X75269855Y-81257546D01*
X75264452Y-81251477D01*
X75262227Y-81249164D01*
X75254305Y-81239347D01*
X75243710Y-81225207D01*
X75238565Y-81218212D01*
X75226288Y-81202012D01*
X75216847Y-81190181D01*
X75214405Y-81187241D01*
X75202922Y-81172893D01*
X75186959Y-81152509D01*
X75168430Y-81128581D01*
X75149251Y-81103598D01*
X75131336Y-81080053D01*
X75116601Y-81060435D01*
X75106959Y-81047235D01*
X75104180Y-81043342D01*
X75092814Y-81028201D01*
X75083777Y-81017232D01*
X75081526Y-81014606D01*
X75072092Y-81002592D01*
X75058873Y-80984993D01*
X75043990Y-80964613D01*
X75011025Y-80917055D01*
X74984377Y-80873985D01*
X74964623Y-80835543D01*
X74950977Y-80799975D01*
X74942652Y-80765531D01*
X74938862Y-80730459D01*
X74936327Y-80679378D01*
X74492585Y-80679378D01*
X74048844Y-80679378D01*
X74065685Y-80692499D01*
X74068827Y-80694950D01*
X74085286Y-80707991D01*
X74099580Y-80719892D01*
X74113779Y-80732546D01*
X74129950Y-80747849D01*
X74150163Y-80767695D01*
X74176485Y-80793978D01*
X74178405Y-80795904D01*
X74203670Y-80821608D01*
X74226967Y-80846166D01*
X74250137Y-80871640D01*
X74275020Y-80900093D01*
X74303456Y-80933587D01*
X74337284Y-80974184D01*
X74340878Y-80978522D01*
X74351934Y-80991860D01*
X74367047Y-81010089D01*
X74384035Y-81030577D01*
X74390190Y-81038017D01*
X74411385Y-81063828D01*
X74432689Y-81090008D01*
X74450304Y-81111895D01*
X74451401Y-81113270D01*
X74468229Y-81134169D01*
X74484631Y-81154249D01*
X74497202Y-81169339D01*
X74501287Y-81174218D01*
X74517188Y-81194055D01*
X74531991Y-81213532D01*
X74537710Y-81221193D01*
X74548441Y-81234758D01*
X74555593Y-81242720D01*
X74559689Y-81247085D01*
X74569647Y-81259186D01*
X74581653Y-81274828D01*
X74589785Y-81285533D01*
X74600723Y-81299191D01*
X74607679Y-81306935D01*
X74608374Y-81307607D01*
X74615875Y-81316200D01*
X74627757Y-81330893D01*
X74641781Y-81348930D01*
X74644084Y-81351938D01*
X74658109Y-81369992D01*
X74669752Y-81384556D01*
X74676688Y-81392713D01*
X74681129Y-81397766D01*
X74691667Y-81410654D01*
X74704178Y-81426609D01*
X74712828Y-81437644D01*
X74722963Y-81449941D01*
X74728626Y-81455970D01*
X74733206Y-81460893D01*
X74742861Y-81472844D01*
X74755047Y-81488809D01*
X74758142Y-81492943D01*
X74778314Y-81519244D01*
X74800814Y-81547750D01*
X74822558Y-81574592D01*
X74840461Y-81595903D01*
X74844273Y-81600430D01*
X74856977Y-81616433D01*
X74870048Y-81633849D01*
X74873884Y-81639057D01*
X74889744Y-81659602D01*
X74905074Y-81678316D01*
X74915500Y-81690745D01*
X74931818Y-81710718D01*
X74947903Y-81730855D01*
X74957205Y-81742637D01*
X74974857Y-81764911D01*
X74995065Y-81790341D01*
X75015037Y-81815410D01*
X75029948Y-81834161D01*
X75047654Y-81856579D01*
X75062403Y-81875418D01*
X75072023Y-81887914D01*
X75076294Y-81893511D01*
X75090793Y-81911956D01*
X75105590Y-81930198D01*
X75112482Y-81938670D01*
X75121167Y-81949943D01*
X75124562Y-81955275D01*
X75121452Y-81960604D01*
X75112951Y-81973561D01*
X75100362Y-81992196D01*
X75084985Y-82014559D01*
X75070011Y-82036179D01*
X75055116Y-82057701D01*
X75043490Y-82074518D01*
X75036824Y-82084185D01*
X75035923Y-82085487D01*
X75028142Y-82096560D01*
X75015454Y-82114473D01*
X74999404Y-82137050D01*
X74981538Y-82162112D01*
X74979474Y-82165005D01*
X74960347Y-82191863D01*
X74942064Y-82217630D01*
X74926609Y-82239505D01*
X74915965Y-82254686D01*
X74908475Y-82265403D01*
X74896058Y-82282951D01*
X74886776Y-82295806D01*
X74881832Y-82302579D01*
X74870195Y-82318767D01*
X74857477Y-82336670D01*
X74835221Y-82368163D01*
X74808924Y-82405199D01*
X74786670Y-82436284D01*
X74766941Y-82463537D01*
X74748217Y-82489077D01*
X74745403Y-82492897D01*
X74725687Y-82519841D01*
X74704778Y-82548657D01*
X74686757Y-82573725D01*
X74686325Y-82574329D01*
X74667902Y-82600116D01*
X74647636Y-82628445D01*
X74629838Y-82653291D01*
X74613015Y-82676945D01*
X74593520Y-82704681D01*
X74576510Y-82729181D01*
X74574361Y-82732291D01*
X74561355Y-82750528D01*
X74550529Y-82764787D01*
X74544041Y-82772208D01*
X74543768Y-82772449D01*
X74536796Y-82780486D01*
X74525705Y-82795016D01*
X74512766Y-82813072D01*
X74507580Y-82820512D01*
X74483026Y-82855470D01*
X74459032Y-82889229D01*
X74436614Y-82920391D01*
X74416793Y-82947560D01*
X74400585Y-82969336D01*
X74389008Y-82984323D01*
X74383080Y-82991123D01*
X74379435Y-82995460D01*
X74370856Y-83007221D01*
X74359819Y-83023230D01*
X74350729Y-83036473D01*
X74341528Y-83049261D01*
X74336572Y-83055338D01*
X74335330Y-83056604D01*
X74328460Y-83065350D01*
X74318955Y-83078689D01*
X74315542Y-83083596D01*
X74306665Y-83095771D01*
X74301441Y-83102040D01*
X74300205Y-83103323D01*
X74293349Y-83112072D01*
X74283805Y-83125391D01*
X74278323Y-83133148D01*
X74254659Y-83164491D01*
X74225783Y-83200300D01*
X74194122Y-83237690D01*
X74162101Y-83273777D01*
X74132147Y-83305677D01*
X74117943Y-83320387D01*
X74096841Y-83342538D01*
X74077349Y-83363279D01*
X74052057Y-83390450D01*
X74048821Y-83393927D01*
X72866279Y-83393927D01*
X72866234Y-83386461D01*
X73099515Y-83386461D01*
X73138596Y-83390153D01*
X73146912Y-83390668D01*
X73167043Y-83391327D01*
X73195941Y-83391911D01*
X73232404Y-83392417D01*
X73275230Y-83392846D01*
X73323216Y-83393197D01*
X73375160Y-83393470D01*
X73429858Y-83393664D01*
X73486109Y-83393778D01*
X73542709Y-83393813D01*
X73598458Y-83393767D01*
X73652151Y-83393640D01*
X73702586Y-83393432D01*
X73748561Y-83393143D01*
X73788874Y-83392771D01*
X73822322Y-83392316D01*
X73847702Y-83391778D01*
X73863812Y-83391156D01*
X73869449Y-83390450D01*
X73869437Y-83390269D01*
X73866067Y-83383144D01*
X73858522Y-83371477D01*
X73836267Y-83334174D01*
X73820003Y-83290987D01*
X73810400Y-83241081D01*
X73809644Y-83230319D01*
X73808849Y-83207846D01*
X73808122Y-83175293D01*
X73807463Y-83133510D01*
X73806872Y-83083346D01*
X73806348Y-83025650D01*
X73805893Y-82961270D01*
X73805504Y-82891057D01*
X73805183Y-82815859D01*
X73804929Y-82736524D01*
X73804742Y-82653903D01*
X73804622Y-82568844D01*
X73804568Y-82482197D01*
X73804581Y-82394810D01*
X73804660Y-82307532D01*
X73804805Y-82221213D01*
X73805016Y-82136701D01*
X73805293Y-82054846D01*
X73805635Y-81976496D01*
X73806043Y-81902502D01*
X73806516Y-81833711D01*
X73807055Y-81770973D01*
X73807658Y-81715137D01*
X73808326Y-81667052D01*
X73809059Y-81627568D01*
X73809856Y-81597532D01*
X73810718Y-81577795D01*
X73815679Y-81498390D01*
X73841916Y-81452283D01*
X73868152Y-81406177D01*
X73835234Y-81402432D01*
X73831218Y-81402107D01*
X73814334Y-81401390D01*
X73787531Y-81400702D01*
X73752026Y-81400060D01*
X73709035Y-81399477D01*
X73659771Y-81398970D01*
X73605452Y-81398554D01*
X73547291Y-81398243D01*
X73486505Y-81398054D01*
X73170695Y-81397420D01*
X73167536Y-82333646D01*
X73164377Y-83269872D01*
X73145473Y-83310008D01*
X73145263Y-83310453D01*
X73133937Y-83333016D01*
X73122372Y-83353780D01*
X73113042Y-83368303D01*
X73099515Y-83386461D01*
X72866234Y-83386461D01*
X72866221Y-83384295D01*
X72865763Y-83299742D01*
X72865310Y-83207678D01*
X72864864Y-83108569D01*
X72864428Y-83002884D01*
X72864004Y-82891087D01*
X72863593Y-82773647D01*
X72863198Y-82651030D01*
X72862822Y-82523703D01*
X72862465Y-82392132D01*
X72862132Y-82256785D01*
X72861823Y-82118128D01*
X72861540Y-81976627D01*
X72858305Y-80252846D01*
X72886037Y-80228224D01*
X72901834Y-80214546D01*
X72919505Y-80201253D01*
X72934800Y-80193632D01*
X72951128Y-80190136D01*
X72971896Y-80189215D01*
X73005463Y-80189008D01*
X73005463Y-80222729D01*
X73005674Y-80234759D01*
X73008107Y-80272544D01*
X73012745Y-80314377D01*
X73018942Y-80355016D01*
X73026049Y-80389223D01*
X73036708Y-80422617D01*
X73053355Y-80461445D01*
X73074000Y-80501189D01*
X73097170Y-80539429D01*
X73121393Y-80573747D01*
X73145197Y-80601724D01*
X73167108Y-80620940D01*
X73168446Y-80621864D01*
X73185422Y-80634565D01*
X73200191Y-80647007D01*
X73212105Y-80656185D01*
X73230609Y-80668279D01*
X73251426Y-80680446D01*
X73311575Y-80708794D01*
X73382323Y-80730877D01*
X73453723Y-80741589D01*
X73525058Y-80740999D01*
X73595606Y-80729180D01*
X73664647Y-80706201D01*
X73731462Y-80672133D01*
X73795330Y-80627047D01*
X73811742Y-80612826D01*
X73855076Y-80566149D01*
X73892764Y-80511804D01*
X73923181Y-80452367D01*
X73944699Y-80390410D01*
X73944745Y-80390238D01*
X73952430Y-80355965D01*
X73957720Y-80319077D01*
X73960938Y-80276584D01*
X73962402Y-80225494D01*
X73962853Y-80189008D01*
X75169805Y-80189465D01*
X75237653Y-80189498D01*
X75355629Y-80189586D01*
X75470918Y-80189712D01*
X75582921Y-80189874D01*
X75691038Y-80190069D01*
X75794670Y-80190296D01*
X75893218Y-80190552D01*
X75986082Y-80190834D01*
X76072664Y-80191142D01*
X76152364Y-80191472D01*
X76224584Y-80191822D01*
X76288723Y-80192190D01*
X76344182Y-80192574D01*
X76390363Y-80192972D01*
X76426666Y-80193382D01*
X76452492Y-80193800D01*
X76467242Y-80194226D01*
X76476951Y-80194700D01*
X76516026Y-80197068D01*
X76545354Y-80200144D01*
X76566525Y-80204573D01*
X76581129Y-80211000D01*
X76590756Y-80220072D01*
X76596996Y-80232434D01*
X76601440Y-80248733D01*
X76602353Y-80253500D01*
X76604072Y-80266377D01*
X76605675Y-80284101D01*
X76607165Y-80307012D01*
X76608546Y-80335453D01*
X76609821Y-80369764D01*
X76610994Y-80410288D01*
X76612067Y-80457365D01*
X76613045Y-80511337D01*
X76613930Y-80572546D01*
X76614725Y-80641333D01*
X76615125Y-80684574D01*
X76615435Y-80718039D01*
G37*
%TD*%
D11*
%TO.C,SW1*%
X53890000Y-54470000D03*
X61510000Y-49390000D03*
D12*
X61510000Y-57010000D03*
D13*
X56430000Y-51930000D03*
%TD*%
D14*
%TO.C,D5*%
X57698000Y-78715000D03*
D15*
X57698000Y-81255000D03*
%TD*%
D16*
%TO.C,H1*%
X32700000Y-28200000D03*
%TD*%
D17*
%TO.C,D4*%
X72698662Y-73847289D03*
D15*
X74191636Y-75902193D03*
%TD*%
D18*
%TO.C,D2*%
X81966825Y-45317335D03*
D15*
X84382509Y-44532431D03*
%TD*%
D19*
%TO.C,D9*%
X42701338Y-32552711D03*
D15*
X41208364Y-30497807D03*
%TD*%
D20*
%TO.C,D6*%
X42698102Y-73844938D03*
D15*
X41205128Y-75899842D03*
%TD*%
D16*
%TO.C,H2*%
X82700000Y-78200000D03*
%TD*%
D14*
%TO.C,D0*%
X57702000Y-27680000D03*
D15*
X57702000Y-25140000D03*
%TD*%
D16*
%TO.C,H3*%
X32700000Y-78200000D03*
%TD*%
D21*
%TO.C,D7*%
X33428420Y-61084211D03*
D15*
X31012736Y-61869115D03*
%TD*%
D22*
%TO.C,D1*%
X72701898Y-32555062D03*
D15*
X74194872Y-30500158D03*
%TD*%
D23*
%TO.C,D3*%
X81970344Y-61088015D03*
D15*
X84386028Y-61872919D03*
%TD*%
D16*
%TO.C,H4*%
X82700000Y-28200000D03*
%TD*%
D24*
%TO.C,D8*%
X33434411Y-45313531D03*
D15*
X31018727Y-44528627D03*
%TD*%
D25*
%TO.C,R1*%
X67902000Y-76361000D03*
X62422000Y-76361000D03*
%TD*%
D26*
%TO.C,J6*%
X50321800Y-31350000D03*
X50728200Y-33890000D03*
X50321800Y-36430000D03*
X50728200Y-38970000D03*
%TD*%
D27*
%TO.C,J3*%
X32825000Y-40740000D03*
D28*
X36165000Y-40740000D03*
X32621800Y-38200000D03*
X35961800Y-38200000D03*
X32825000Y-35660000D03*
X36165000Y-35660000D03*
%TD*%
D29*
%TO.C,U3*%
X46036000Y-39785000D03*
D30*
X43966000Y-41055000D03*
X46036000Y-42325000D03*
%TD*%
D31*
%TO.C,R5*%
X41211421Y-42002579D03*
X37336477Y-45877523D03*
%TD*%
D32*
%TO.C,U1*%
X66922000Y-56846000D03*
D33*
X64382000Y-56846000D03*
X64382000Y-49226000D03*
X66922000Y-49226000D03*
%TD*%
D34*
%TO.C,J2*%
X77174000Y-66131000D03*
X71374000Y-66131000D03*
%TD*%
D35*
%TO.C,R3*%
X28274000Y-52389000D03*
X28274000Y-57869000D03*
%TD*%
D34*
%TO.C,J1*%
X37793000Y-49582000D03*
X43593000Y-49582000D03*
%TD*%
D36*
%TO.C,U2*%
X61555800Y-31390000D03*
D37*
X61962200Y-33930000D03*
X61555800Y-36470000D03*
X61962200Y-39010000D03*
X53427800Y-39010000D03*
X53834200Y-36470000D03*
X53427800Y-33930000D03*
X53834200Y-31390000D03*
%TD*%
D38*
%TO.C,D11*%
X49500000Y-50150000D03*
D39*
X49500000Y-57770000D03*
%TD*%
D25*
%TO.C,R2*%
X65960000Y-45900000D03*
X71440000Y-45900000D03*
%TD*%
D28*
%TO.C,J5*%
X64631800Y-31393000D03*
X65038200Y-33933000D03*
X64631800Y-36473000D03*
X65038200Y-39013000D03*
%TD*%
D40*
%TO.C,C1*%
X45903000Y-45724000D03*
X43403000Y-45724000D03*
%TD*%
D25*
%TO.C,R4*%
X48185000Y-23257000D03*
X53665000Y-23257000D03*
%TD*%
D36*
%TO.C,D12*%
X78690000Y-42343000D03*
D40*
X71070000Y-42343000D03*
%TD*%
D25*
%TO.C,R7*%
X45183000Y-23215000D03*
X39703000Y-23215000D03*
%TD*%
D41*
%TO.C,K1*%
X48475000Y-61525000D03*
X48475000Y-66225000D03*
X59975000Y-61525000D03*
X66975000Y-61525000D03*
%TD*%
D42*
%TO.C,D10*%
X52001000Y-81234000D03*
D43*
X47001000Y-81234000D03*
X47001000Y-76234000D03*
X52001000Y-76234000D03*
%TD*%
D25*
%TO.C,R6*%
X63544000Y-23245000D03*
X69024000Y-23245000D03*
%TD*%
D40*
%TO.C,C3*%
X46003000Y-36224000D03*
X43503000Y-36224000D03*
%TD*%
M02*
