%TF.GenerationSoftware,KiCad,Pcbnew,9.0.8*%
%TF.CreationDate,2026-03-25T13:51:45-05:00*%
%TF.ProjectId,Motor Simulator 24V_ NOV2025,4d6f746f-7220-4536-996d-756c61746f72,vNOV'25*%
%TF.SameCoordinates,Original*%
%TF.FileFunction,Legend,Top*%
%TF.FilePolarity,Positive*%
%FSLAX46Y46*%
G04 Gerber Fmt 4.6, Leading zero omitted, Abs format (unit mm)*
G04 Created by KiCad (PCBNEW 9.0.8) date 2026-03-25 13:51:45*
%MOMM*%
%LPD*%
G01*
G04 APERTURE LIST*
%ADD10C,0.400000*%
%ADD11C,0.250000*%
%ADD12C,0.200000*%
%ADD13C,0.300000*%
%ADD14C,0.127000*%
%ADD15C,0.120000*%
%ADD16C,0.000000*%
G04 APERTURE END LIST*
D10*
X84850000Y-22050000D02*
G75*
G02*
X88850000Y-26050000I0J-4000000D01*
G01*
X88850000Y-80700000D02*
G75*
G02*
X84850000Y-84700000I-4000000J0D01*
G01*
X26200000Y-26050000D02*
G75*
G02*
X30200000Y-22050000I4000000J0D01*
G01*
X84850000Y-84700000D02*
X30200000Y-84700000D01*
X88850000Y-26050000D02*
X88850000Y-80700000D01*
X30200000Y-22050000D02*
X84850000Y-22050000D01*
X26200000Y-80700000D02*
X26200000Y-26050000D01*
X30200000Y-84700000D02*
G75*
G02*
X26200000Y-80700000I0J4000000D01*
G01*
D11*
G36*
X46620018Y-32119172D02*
G01*
X46698149Y-32116261D01*
X46772026Y-32107606D01*
X46839149Y-32093889D01*
X46901788Y-32075021D01*
X46957577Y-32052113D01*
X47008767Y-32024633D01*
X47053477Y-31993963D01*
X47093527Y-31959233D01*
X47127715Y-31921771D01*
X47157157Y-31880650D01*
X47181283Y-31836773D01*
X47200488Y-31789514D01*
X47223421Y-31685390D01*
X47226901Y-31621466D01*
X47223994Y-31562526D01*
X47215375Y-31506853D01*
X47201594Y-31455803D01*
X47182649Y-31408154D01*
X47159099Y-31364724D01*
X47130816Y-31324860D01*
X47060877Y-31256611D01*
X46972795Y-31203708D01*
X46865896Y-31167437D01*
X46739423Y-31150053D01*
X46695672Y-31148948D01*
X46623611Y-31151975D01*
X46554568Y-31161444D01*
X46497487Y-31175461D01*
X46444233Y-31195237D01*
X46372264Y-31237150D01*
X46405878Y-30905316D01*
X47155551Y-30905316D01*
X47155551Y-30605080D01*
X46120297Y-30605080D01*
X46042536Y-31514396D01*
X46386919Y-31518518D01*
X46404916Y-31485051D01*
X46426972Y-31456820D01*
X46480330Y-31416982D01*
X46550614Y-31394206D01*
X46622125Y-31388367D01*
X46665111Y-31391252D01*
X46704508Y-31399725D01*
X46739149Y-31413072D01*
X46769905Y-31431197D01*
X46796096Y-31453402D01*
X46818081Y-31479732D01*
X46848534Y-31543827D01*
X46859437Y-31623573D01*
X46856546Y-31666615D01*
X46848032Y-31705930D01*
X46834704Y-31740146D01*
X46816574Y-31770501D01*
X46794330Y-31796342D01*
X46767875Y-31818103D01*
X46702651Y-31848811D01*
X46620264Y-31860829D01*
X46613790Y-31860885D01*
X46569024Y-31857967D01*
X46527898Y-31849266D01*
X46492691Y-31835823D01*
X46461226Y-31817366D01*
X46434728Y-31794954D01*
X46412129Y-31768027D01*
X46379637Y-31701311D01*
X46368051Y-31648760D01*
X46013136Y-31648760D01*
X46018582Y-31705414D01*
X46029683Y-31759199D01*
X46045877Y-31808743D01*
X46067281Y-31855231D01*
X46093389Y-31897900D01*
X46124393Y-31937293D01*
X46200649Y-32005557D01*
X46296689Y-32059455D01*
X46413736Y-32097454D01*
X46553090Y-32117111D01*
X46620018Y-32119172D01*
G37*
G36*
X47334062Y-30605080D02*
G01*
X47796047Y-32096000D01*
X48352555Y-32096000D01*
X48814540Y-30605080D01*
X48442864Y-30605080D01*
X48171937Y-31518518D01*
X48102694Y-31808312D01*
X48054334Y-31808312D01*
X47982985Y-31518518D01*
X47712058Y-30605080D01*
X47334062Y-30605080D01*
G37*
G36*
X60927854Y-27457131D02*
G01*
X61060103Y-27452283D01*
X61185887Y-27437885D01*
X61301424Y-27414919D01*
X61409579Y-27383323D01*
X61506010Y-27345003D01*
X61594491Y-27299074D01*
X61671048Y-27248286D01*
X61739371Y-27190882D01*
X61796565Y-27129940D01*
X61845367Y-27063228D01*
X61884163Y-26993398D01*
X61914348Y-26918430D01*
X61935255Y-26839863D01*
X61947116Y-26756571D01*
X61949858Y-26690514D01*
X61945082Y-26605401D01*
X61931190Y-26527439D01*
X61878851Y-26391653D01*
X61794492Y-26275610D01*
X61674635Y-26173903D01*
X61510730Y-26082941D01*
X61286900Y-25998738D01*
X61047405Y-25929717D01*
X60835446Y-25868731D01*
X60659107Y-25799316D01*
X60590591Y-25757490D01*
X60538533Y-25708810D01*
X60505452Y-25651691D01*
X60493865Y-25584552D01*
X60498625Y-25534633D01*
X60512408Y-25490360D01*
X60563926Y-25418524D01*
X60648850Y-25365420D01*
X60771893Y-25334100D01*
X60854429Y-25329166D01*
X60932838Y-25334024D01*
X61004659Y-25348494D01*
X61065864Y-25370772D01*
X61120409Y-25401305D01*
X61165983Y-25438107D01*
X61204759Y-25482223D01*
X61260022Y-25590367D01*
X61284907Y-25728045D01*
X61890324Y-25728045D01*
X61882898Y-25628148D01*
X61866166Y-25534038D01*
X61840933Y-25447214D01*
X61807305Y-25366212D01*
X61765810Y-25291497D01*
X61716602Y-25222764D01*
X61595016Y-25102702D01*
X61441985Y-25006490D01*
X61256283Y-24936348D01*
X61037084Y-24896073D01*
X60875342Y-24888155D01*
X60743661Y-24892987D01*
X60619644Y-24907277D01*
X60506708Y-24929982D01*
X60401965Y-24961070D01*
X60309103Y-24998737D01*
X60224700Y-25043677D01*
X60151991Y-25093438D01*
X60087823Y-25149436D01*
X60034433Y-25209054D01*
X59989627Y-25274040D01*
X59954542Y-25342312D01*
X59928211Y-25415294D01*
X59911050Y-25492055D01*
X59903065Y-25573068D01*
X59902492Y-25602107D01*
X59907267Y-25689837D01*
X59921153Y-25769897D01*
X59943321Y-25842289D01*
X59973186Y-25907994D01*
X60056445Y-26024412D01*
X60173898Y-26124944D01*
X60333645Y-26213435D01*
X60551137Y-26293911D01*
X60784419Y-26359090D01*
X60994576Y-26417800D01*
X61169652Y-26486347D01*
X61237733Y-26528616D01*
X61289483Y-26578511D01*
X61322382Y-26637754D01*
X61333908Y-26708069D01*
X61329127Y-26762065D01*
X61315198Y-26810384D01*
X61263242Y-26889207D01*
X61178416Y-26948269D01*
X61056248Y-26985604D01*
X60938387Y-26995054D01*
X60856679Y-26990218D01*
X60780643Y-26975899D01*
X60713309Y-26953369D01*
X60652506Y-26922541D01*
X60600808Y-26885344D01*
X60556252Y-26840954D01*
X60520346Y-26791198D01*
X60492182Y-26735090D01*
X60472402Y-26673430D01*
X60461197Y-26605941D01*
X60458908Y-26568087D01*
X59846469Y-26568087D01*
X59851907Y-26669077D01*
X59866714Y-26764272D01*
X59890179Y-26852559D01*
X59922075Y-26935078D01*
X60009799Y-27082653D01*
X60129090Y-27208194D01*
X60280644Y-27311347D01*
X60465686Y-27389925D01*
X60684763Y-27440111D01*
X60927854Y-27457131D01*
G37*
G36*
X62233027Y-27415000D02*
G01*
X62814020Y-27415000D01*
X62814020Y-25560128D01*
X62233027Y-25560128D01*
X62233027Y-27415000D01*
G37*
G36*
X62233027Y-25371145D02*
G01*
X62814020Y-25371145D01*
X62814020Y-24930134D01*
X62233027Y-24930134D01*
X62233027Y-25371145D01*
G37*
G36*
X63180689Y-27415000D02*
G01*
X63761682Y-27415000D01*
X63761682Y-26256525D01*
X63766502Y-26184225D01*
X63780708Y-26121782D01*
X63801730Y-26072864D01*
X63830068Y-26031945D01*
X63904588Y-25974856D01*
X64007965Y-25945308D01*
X64069580Y-25941605D01*
X64141157Y-25946561D01*
X64203987Y-25961713D01*
X64250950Y-25983374D01*
X64290770Y-26013260D01*
X64321172Y-26048712D01*
X64344921Y-26091752D01*
X64371787Y-26203828D01*
X64374121Y-26256525D01*
X64374121Y-27415000D01*
X64955113Y-27415000D01*
X64955113Y-26256525D01*
X64959920Y-26185270D01*
X64974024Y-26123572D01*
X64995075Y-26074589D01*
X65023382Y-26033537D01*
X65098011Y-25975691D01*
X65200866Y-25945518D01*
X65263165Y-25941605D01*
X65335943Y-25946553D01*
X65399648Y-25961649D01*
X65447191Y-25983215D01*
X65487403Y-26012921D01*
X65517999Y-26048059D01*
X65541848Y-26090646D01*
X65568732Y-26201144D01*
X65571063Y-26253014D01*
X65571063Y-27415000D01*
X66152056Y-27415000D01*
X66152056Y-26239123D01*
X66147251Y-26138593D01*
X66133152Y-26045280D01*
X66110703Y-25960688D01*
X66080191Y-25883227D01*
X66042435Y-25813565D01*
X65997642Y-25751066D01*
X65888214Y-25647510D01*
X65753113Y-25572710D01*
X65593001Y-25528723D01*
X65455659Y-25518148D01*
X65354031Y-25522969D01*
X65260977Y-25537174D01*
X65179082Y-25559394D01*
X65104577Y-25589633D01*
X65037903Y-25627073D01*
X64977898Y-25671680D01*
X64874800Y-25783804D01*
X64846578Y-25826047D01*
X64803588Y-25760731D01*
X64754723Y-25703633D01*
X64639283Y-25611913D01*
X64500967Y-25550211D01*
X64340621Y-25520395D01*
X64279629Y-25518148D01*
X64181272Y-25523074D01*
X64091658Y-25538011D01*
X64016678Y-25560572D01*
X63947339Y-25591848D01*
X63824646Y-25679297D01*
X63737105Y-25773535D01*
X63712681Y-25773535D01*
X63712681Y-25560128D01*
X63180689Y-25560128D01*
X63180689Y-27415000D01*
G37*
G36*
X67145972Y-27457131D02*
G01*
X67243781Y-27452265D01*
X67331886Y-27437740D01*
X67406456Y-27415563D01*
X67474629Y-27385155D01*
X67596055Y-27299755D01*
X67688496Y-27201592D01*
X67706051Y-27201592D01*
X67706051Y-27415000D01*
X68245065Y-27415000D01*
X68245065Y-25560128D01*
X67664072Y-25560128D01*
X67664072Y-26718602D01*
X67659236Y-26791903D01*
X67644926Y-26855054D01*
X67623925Y-26903876D01*
X67595549Y-26944646D01*
X67521092Y-27001013D01*
X67417116Y-27029999D01*
X67356021Y-27033523D01*
X67283401Y-27028567D01*
X67220111Y-27013414D01*
X67173338Y-26991889D01*
X67133867Y-26962227D01*
X67103819Y-26927023D01*
X67080415Y-26884298D01*
X67053836Y-26772271D01*
X67051480Y-26718602D01*
X67051480Y-25560128D01*
X66470488Y-25560128D01*
X66470488Y-26746537D01*
X66475287Y-26847480D01*
X66489346Y-26940826D01*
X66511692Y-27025138D01*
X66542005Y-27102044D01*
X66579476Y-27170998D01*
X66623838Y-27232597D01*
X66732087Y-27334144D01*
X66865545Y-27406741D01*
X67023478Y-27448375D01*
X67145972Y-27457131D01*
G37*
G36*
X69196085Y-27415000D02*
G01*
X69196085Y-24930134D01*
X68615092Y-24930134D01*
X68615092Y-27415000D01*
X69196085Y-27415000D01*
G37*
G36*
X70467928Y-25518254D02*
G01*
X70697504Y-25537428D01*
X70881237Y-25585420D01*
X71025978Y-25657861D01*
X71137680Y-25753320D01*
X71182421Y-25810203D01*
X71219899Y-25873696D01*
X71250302Y-25945251D01*
X71272593Y-26023919D01*
X71286859Y-26113479D01*
X71291689Y-26211035D01*
X71291689Y-27415000D01*
X70763208Y-27415000D01*
X70728251Y-27208614D01*
X70645012Y-27288758D01*
X70575307Y-27338643D01*
X70500892Y-27379274D01*
X70416638Y-27412964D01*
X70328576Y-27436860D01*
X70230349Y-27452155D01*
X70129703Y-27457131D01*
X70067708Y-27455207D01*
X69892161Y-27425956D01*
X69746009Y-27365646D01*
X69630051Y-27278738D01*
X69544555Y-27167874D01*
X69513502Y-27103645D01*
X69490749Y-27033804D01*
X69476588Y-26957620D01*
X69471774Y-26876139D01*
X69472529Y-26865606D01*
X70056125Y-26865606D01*
X70067130Y-26945726D01*
X70084081Y-26984598D01*
X70108590Y-27016856D01*
X70144442Y-27045161D01*
X70189175Y-27065844D01*
X70254823Y-27081069D01*
X70332730Y-27086035D01*
X70453426Y-27073506D01*
X70572245Y-27029063D01*
X70659060Y-26959197D01*
X70712907Y-26868894D01*
X70726963Y-26816767D01*
X70731762Y-26760581D01*
X70731762Y-26617089D01*
X70367688Y-26659068D01*
X70228326Y-26683358D01*
X70130041Y-26723753D01*
X70076394Y-26778792D01*
X70061101Y-26818714D01*
X70056125Y-26865606D01*
X69472529Y-26865606D01*
X69479357Y-26770415D01*
X69494603Y-26700894D01*
X69517672Y-26638919D01*
X69549330Y-26582391D01*
X69588600Y-26532917D01*
X69640755Y-26485580D01*
X69701365Y-26445664D01*
X69785503Y-26406221D01*
X69880438Y-26375462D01*
X70040958Y-26342954D01*
X70220684Y-26323081D01*
X70731762Y-26281102D01*
X70731762Y-26169056D01*
X70731706Y-26161238D01*
X70714510Y-26050756D01*
X70695234Y-26009332D01*
X70669066Y-25975509D01*
X70631700Y-25945985D01*
X70586131Y-25924725D01*
X70514891Y-25908277D01*
X70430733Y-25903136D01*
X70417205Y-25903256D01*
X70293614Y-25919927D01*
X70211434Y-25961608D01*
X70180008Y-25993810D01*
X70155788Y-26033731D01*
X70136395Y-26090403D01*
X70126192Y-26158523D01*
X69562755Y-26158523D01*
X69574081Y-26042301D01*
X69592772Y-25968050D01*
X69619903Y-25899608D01*
X69656179Y-25835305D01*
X69700574Y-25777055D01*
X69755860Y-25722044D01*
X69819290Y-25673701D01*
X69896097Y-25629080D01*
X69981198Y-25592069D01*
X70081794Y-25560565D01*
X70190644Y-25537807D01*
X70315537Y-25523048D01*
X70448135Y-25518148D01*
X70467928Y-25518254D01*
G37*
G36*
X72708297Y-25560128D02*
G01*
X72368800Y-25560128D01*
X72368800Y-25087670D01*
X71787807Y-25087670D01*
X71787807Y-25560128D01*
X71535932Y-25560128D01*
X71535932Y-25994117D01*
X71787807Y-25994117D01*
X71787807Y-27131525D01*
X71806359Y-27235711D01*
X71859421Y-27322934D01*
X71897386Y-27357633D01*
X71941752Y-27384900D01*
X71991372Y-27403795D01*
X72045714Y-27413688D01*
X72074945Y-27415000D01*
X72708297Y-27415000D01*
X72708297Y-27005587D01*
X72368800Y-27005587D01*
X72368800Y-25994117D01*
X72708297Y-25994117D01*
X72708297Y-25560128D01*
G37*
G36*
X74098967Y-25536196D02*
G01*
X74295299Y-25589460D01*
X74467087Y-25674155D01*
X74611881Y-25786881D01*
X74728153Y-25925259D01*
X74775061Y-26003489D01*
X74814437Y-26088141D01*
X74845708Y-26178703D01*
X74868616Y-26275423D01*
X74882744Y-26378538D01*
X74887554Y-26487640D01*
X74873540Y-26670978D01*
X74853008Y-26769673D01*
X74823919Y-26862279D01*
X74786260Y-26949592D01*
X74740761Y-27030432D01*
X74686802Y-27106026D01*
X74625657Y-27174636D01*
X74556065Y-27237549D01*
X74479957Y-27292849D01*
X74395678Y-27341508D01*
X74305653Y-27381856D01*
X74208318Y-27414338D01*
X74106167Y-27437820D01*
X73998250Y-27452275D01*
X73886616Y-27457131D01*
X73672895Y-27438900D01*
X73476061Y-27385381D01*
X73303719Y-27300358D01*
X73158408Y-27187275D01*
X73041740Y-27048624D01*
X72994697Y-26970342D01*
X72955224Y-26885713D01*
X72923898Y-26795297D01*
X72900959Y-26698832D01*
X72886826Y-26596157D01*
X72882015Y-26487640D01*
X73459497Y-26487640D01*
X73464207Y-26587693D01*
X73497629Y-26749097D01*
X73558004Y-26870894D01*
X73597478Y-26919001D01*
X73642418Y-26958512D01*
X73694481Y-26990645D01*
X73751399Y-27013749D01*
X73816884Y-27028609D01*
X73886616Y-27033523D01*
X73955917Y-27028657D01*
X74071568Y-26993853D01*
X74166643Y-26926602D01*
X74206835Y-26879752D01*
X74241110Y-26824108D01*
X74269890Y-26757039D01*
X74291313Y-26680244D01*
X74305285Y-26589417D01*
X74310072Y-26487640D01*
X74305401Y-26387823D01*
X74272072Y-26226014D01*
X74211922Y-26103981D01*
X74172731Y-26055912D01*
X74128074Y-26016380D01*
X74076573Y-25984358D01*
X74020203Y-25961296D01*
X73955570Y-25946508D01*
X73886616Y-25941605D01*
X73814715Y-25946840D01*
X73698719Y-25982377D01*
X73603209Y-26050335D01*
X73562891Y-26097401D01*
X73528484Y-26153215D01*
X73499680Y-26220152D01*
X73478230Y-26296694D01*
X73464281Y-26386798D01*
X73459497Y-26487640D01*
X72882015Y-26487640D01*
X72896198Y-26303876D01*
X72916849Y-26205426D01*
X72946067Y-26113041D01*
X72983903Y-26025836D01*
X73029592Y-25945089D01*
X73083812Y-25869499D01*
X73145229Y-25800890D01*
X73215164Y-25737925D01*
X73291618Y-25682580D01*
X73376280Y-25633864D01*
X73466672Y-25593472D01*
X73564345Y-25560960D01*
X73666789Y-25537461D01*
X73774884Y-25523005D01*
X73886616Y-25518148D01*
X74098967Y-25536196D01*
G37*
G36*
X75180340Y-27415000D02*
G01*
X75761333Y-27415000D01*
X75761333Y-26319570D01*
X75766170Y-26245074D01*
X75780493Y-26183104D01*
X75800851Y-26138062D01*
X75828216Y-26101637D01*
X75900125Y-26053623D01*
X76005338Y-26030785D01*
X76051829Y-26029074D01*
X76275769Y-26029074D01*
X76275769Y-25560128D01*
X76191811Y-25560128D01*
X76067140Y-25565534D01*
X75967170Y-25583835D01*
X75909415Y-25605607D01*
X75858497Y-25636027D01*
X75772778Y-25722125D01*
X75736756Y-25773535D01*
X75719354Y-25773535D01*
X75719354Y-25560128D01*
X75180340Y-25560128D01*
X75180340Y-27415000D01*
G37*
G36*
X48377018Y-39818172D02*
G01*
X48455149Y-39815261D01*
X48529026Y-39806606D01*
X48596149Y-39792889D01*
X48658788Y-39774021D01*
X48714577Y-39751113D01*
X48765767Y-39723633D01*
X48810477Y-39692963D01*
X48850527Y-39658233D01*
X48884715Y-39620771D01*
X48914157Y-39579650D01*
X48938283Y-39535773D01*
X48957488Y-39488514D01*
X48980421Y-39384390D01*
X48983901Y-39320466D01*
X48980994Y-39261526D01*
X48972375Y-39205853D01*
X48958594Y-39154803D01*
X48939649Y-39107154D01*
X48916099Y-39063724D01*
X48887816Y-39023860D01*
X48817877Y-38955611D01*
X48729795Y-38902708D01*
X48622896Y-38866437D01*
X48496423Y-38849053D01*
X48452672Y-38847948D01*
X48380611Y-38850975D01*
X48311568Y-38860444D01*
X48254487Y-38874461D01*
X48201233Y-38894237D01*
X48129264Y-38936150D01*
X48162878Y-38604316D01*
X48912551Y-38604316D01*
X48912551Y-38304080D01*
X47877297Y-38304080D01*
X47799536Y-39213396D01*
X48143919Y-39217518D01*
X48161916Y-39184051D01*
X48183972Y-39155820D01*
X48237330Y-39115982D01*
X48307614Y-39093206D01*
X48379125Y-39087367D01*
X48422111Y-39090252D01*
X48461508Y-39098725D01*
X48496149Y-39112072D01*
X48526905Y-39130197D01*
X48553096Y-39152402D01*
X48575081Y-39178732D01*
X48605534Y-39242827D01*
X48616437Y-39322573D01*
X48613546Y-39365615D01*
X48605032Y-39404930D01*
X48591704Y-39439146D01*
X48573574Y-39469501D01*
X48551330Y-39495342D01*
X48524875Y-39517103D01*
X48459651Y-39547811D01*
X48377264Y-39559829D01*
X48370790Y-39559885D01*
X48326024Y-39556967D01*
X48284898Y-39548266D01*
X48249691Y-39534823D01*
X48218226Y-39516366D01*
X48191728Y-39493954D01*
X48169129Y-39467027D01*
X48136637Y-39400311D01*
X48125051Y-39347760D01*
X47770136Y-39347760D01*
X47775582Y-39404414D01*
X47786683Y-39458199D01*
X47802877Y-39507743D01*
X47824281Y-39554231D01*
X47850389Y-39596900D01*
X47881393Y-39636293D01*
X47957649Y-39704557D01*
X48053689Y-39758455D01*
X48170736Y-39796454D01*
X48310090Y-39816111D01*
X48377018Y-39818172D01*
G37*
D12*
G36*
X57583946Y-83451661D02*
G01*
X57781355Y-83451661D01*
X57781355Y-83202411D01*
X58036161Y-83202411D01*
X58036161Y-83014833D01*
X57781355Y-83014833D01*
X57781355Y-82765644D01*
X57583946Y-82765644D01*
X57583946Y-83014833D01*
X57329139Y-83014833D01*
X57329139Y-83202411D01*
X57583946Y-83202411D01*
X57583946Y-83451661D01*
G37*
D11*
G36*
X66461536Y-34326621D02*
G01*
X66461536Y-34597456D01*
X67620713Y-34597456D01*
X67620713Y-34297220D01*
X67228062Y-34297220D01*
X66948709Y-34305646D01*
X66948709Y-34293007D01*
X67101356Y-34200629D01*
X67232432Y-34113387D01*
X67324829Y-34044581D01*
X67403871Y-33977734D01*
X67462468Y-33920369D01*
X67511670Y-33863519D01*
X67548659Y-33811752D01*
X67578438Y-33759685D01*
X67600337Y-33709559D01*
X67616216Y-33658550D01*
X67630895Y-33552919D01*
X67631246Y-33532801D01*
X67628337Y-33480951D01*
X67619698Y-33431536D01*
X67605724Y-33385426D01*
X67586449Y-33341992D01*
X67532699Y-33264004D01*
X67458475Y-33197887D01*
X67362999Y-33144849D01*
X67245287Y-33107082D01*
X67104739Y-33087539D01*
X67039018Y-33085562D01*
X66955779Y-33088487D01*
X66878055Y-33097241D01*
X66809994Y-33110798D01*
X66747107Y-33129474D01*
X66692563Y-33151800D01*
X66642868Y-33178648D01*
X66600057Y-33208475D01*
X66561865Y-33242380D01*
X66529263Y-33279225D01*
X66501205Y-33319885D01*
X66459268Y-33411999D01*
X66436144Y-33520844D01*
X66432136Y-33583176D01*
X66793371Y-33583176D01*
X66796962Y-33538116D01*
X66806321Y-33497414D01*
X66820076Y-33463863D01*
X66838707Y-33434426D01*
X66860955Y-33410389D01*
X66887576Y-33390410D01*
X66953730Y-33363300D01*
X67034805Y-33354290D01*
X67084787Y-33357229D01*
X67129318Y-33366079D01*
X67164250Y-33379050D01*
X67194266Y-33396828D01*
X67217248Y-33417390D01*
X67235674Y-33442053D01*
X67257698Y-33501830D01*
X67261676Y-33547547D01*
X67258629Y-33585489D01*
X67249022Y-33624289D01*
X67209852Y-33703210D01*
X67133973Y-33797834D01*
X66999800Y-33923898D01*
X66767231Y-34107325D01*
X66461536Y-34326621D01*
G37*
D12*
G36*
X86012946Y-62785661D02*
G01*
X86210355Y-62785661D01*
X86210355Y-62536411D01*
X86465161Y-62536411D01*
X86465161Y-62348833D01*
X86210355Y-62348833D01*
X86210355Y-62099644D01*
X86012946Y-62099644D01*
X86012946Y-62348833D01*
X85758139Y-62348833D01*
X85758139Y-62536411D01*
X86012946Y-62536411D01*
X86012946Y-62785661D01*
G37*
G36*
X86052946Y-44332661D02*
G01*
X86250355Y-44332661D01*
X86250355Y-44083411D01*
X86505161Y-44083411D01*
X86505161Y-43895833D01*
X86250355Y-43895833D01*
X86250355Y-43646644D01*
X86052946Y-43646644D01*
X86052946Y-43895833D01*
X85798139Y-43895833D01*
X85798139Y-44083411D01*
X86052946Y-44083411D01*
X86052946Y-44332661D01*
G37*
D11*
G36*
X67226834Y-39815279D02*
G01*
X67296409Y-39812402D01*
X67362586Y-39803993D01*
X67485924Y-39771360D01*
X67596426Y-39718948D01*
X67693119Y-39648163D01*
X67751834Y-39588408D01*
X67770702Y-39790000D01*
X68026974Y-39790000D01*
X68026974Y-38977312D01*
X67216301Y-38977312D01*
X67216301Y-39235690D01*
X67684606Y-39235690D01*
X67661426Y-39311203D01*
X67616761Y-39379791D01*
X67550571Y-39439593D01*
X67464055Y-39486704D01*
X67361742Y-39515934D01*
X67275103Y-39523378D01*
X67219283Y-39520413D01*
X67165565Y-39511382D01*
X67117689Y-39497263D01*
X67072538Y-39477492D01*
X67032924Y-39453575D01*
X66996462Y-39424363D01*
X66964793Y-39391255D01*
X66936666Y-39353028D01*
X66912798Y-39310392D01*
X66892948Y-39262585D01*
X66877376Y-39209325D01*
X66866447Y-39150629D01*
X66859371Y-39042433D01*
X66862246Y-38973362D01*
X66870645Y-38910109D01*
X66883877Y-38853785D01*
X66901753Y-38802822D01*
X66923643Y-38757679D01*
X66949448Y-38717562D01*
X67011777Y-38651872D01*
X67088034Y-38604369D01*
X67178224Y-38575163D01*
X67275103Y-38565793D01*
X67333382Y-38568643D01*
X67386177Y-38576868D01*
X67433556Y-38589943D01*
X67475845Y-38607399D01*
X67546955Y-38654460D01*
X67601215Y-38716489D01*
X67638618Y-38792440D01*
X67648978Y-38828293D01*
X68026974Y-38828293D01*
X68013341Y-38765321D01*
X67994486Y-38705660D01*
X67970701Y-38649646D01*
X67942093Y-38597112D01*
X67870898Y-38502650D01*
X67781472Y-38422660D01*
X67674055Y-38358077D01*
X67548871Y-38310430D01*
X67406447Y-38281722D01*
X67275103Y-38273893D01*
X67200249Y-38276803D01*
X67127507Y-38285453D01*
X67057562Y-38299626D01*
X66990291Y-38319233D01*
X66926638Y-38343869D01*
X66866175Y-38373594D01*
X66809959Y-38407771D01*
X66757390Y-38446671D01*
X66709475Y-38489462D01*
X66665617Y-38536613D01*
X66626640Y-38587211D01*
X66592096Y-38641834D01*
X66562576Y-38699630D01*
X66537861Y-38761155D01*
X66518332Y-38825751D01*
X66503995Y-38893822D01*
X66495106Y-38964990D01*
X66491829Y-39039417D01*
X66491816Y-39044540D01*
X66494712Y-39122344D01*
X66503261Y-39196730D01*
X66517165Y-39267198D01*
X66536250Y-39334025D01*
X66560201Y-39396835D01*
X66588884Y-39455780D01*
X66622023Y-39510625D01*
X66659471Y-39561367D01*
X66701054Y-39607907D01*
X66746546Y-39650087D01*
X66848827Y-39721065D01*
X66965125Y-39773187D01*
X67094213Y-39805093D01*
X67226834Y-39815279D01*
G37*
G36*
X68264195Y-39790000D02*
G01*
X68591724Y-39790000D01*
X68591724Y-38670757D01*
X68640084Y-38670757D01*
X68736621Y-38943790D01*
X69057923Y-39790000D01*
X69614430Y-39790000D01*
X69614430Y-38299080D01*
X69288916Y-38299080D01*
X69288916Y-39418323D01*
X69240647Y-39418323D01*
X69144019Y-39145382D01*
X68822717Y-38299080D01*
X68264195Y-38299080D01*
X68264195Y-39790000D01*
G37*
G36*
X70631195Y-38307648D02*
G01*
X70765822Y-38337366D01*
X70885074Y-38386635D01*
X70938848Y-38418142D01*
X70988722Y-38454086D01*
X71034623Y-38494368D01*
X71076356Y-38538797D01*
X71114026Y-38587553D01*
X71147208Y-38640204D01*
X71176058Y-38697230D01*
X71200052Y-38757919D01*
X71219274Y-38822999D01*
X71233225Y-38891512D01*
X71241845Y-38964326D01*
X71244751Y-39040327D01*
X71235618Y-39174919D01*
X71205301Y-39309990D01*
X71155485Y-39429654D01*
X71087569Y-39533627D01*
X71047111Y-39579635D01*
X71002519Y-39621473D01*
X70953669Y-39659197D01*
X70900940Y-39692432D01*
X70843916Y-39721298D01*
X70783245Y-39745308D01*
X70718262Y-39764527D01*
X70649859Y-39778478D01*
X70577219Y-39787094D01*
X70501398Y-39790000D01*
X69863008Y-39790000D01*
X69863008Y-39506525D01*
X70224152Y-39506525D01*
X70480332Y-39506525D01*
X70549022Y-39501593D01*
X70596223Y-39491691D01*
X70639944Y-39476702D01*
X70680473Y-39456637D01*
X70717345Y-39431821D01*
X70751428Y-39401529D01*
X70781510Y-39366661D01*
X70808596Y-39325598D01*
X70831174Y-39280060D01*
X70849941Y-39227756D01*
X70863584Y-39171126D01*
X70872266Y-39107740D01*
X70875181Y-39040327D01*
X70868809Y-38943532D01*
X70843102Y-38835228D01*
X70800458Y-38746863D01*
X70742822Y-38677437D01*
X70708614Y-38649590D01*
X70670770Y-38626314D01*
X70628990Y-38607649D01*
X70583685Y-38594011D01*
X70533761Y-38585452D01*
X70480332Y-38582554D01*
X70224152Y-38582554D01*
X70224152Y-39506525D01*
X69863008Y-39506525D01*
X69863008Y-38299080D01*
X70501398Y-38299080D01*
X70631195Y-38307648D01*
G37*
D13*
G36*
X48347415Y-41681070D02*
G01*
X48638368Y-41708971D01*
X48907525Y-41780192D01*
X49150138Y-41891101D01*
X49362481Y-42037965D01*
X49541730Y-42217406D01*
X49685591Y-42426726D01*
X49743477Y-42541761D01*
X49791845Y-42664000D01*
X49830073Y-42792626D01*
X49857946Y-42927981D01*
X49874995Y-43069768D01*
X49880780Y-43217867D01*
X49880737Y-43230789D01*
X49873964Y-43379177D01*
X49855948Y-43521218D01*
X49826990Y-43657328D01*
X49787616Y-43786609D01*
X49737821Y-43909891D01*
X49678383Y-44025793D01*
X49608892Y-44135373D01*
X49530511Y-44236946D01*
X49442447Y-44331555D01*
X49346272Y-44417460D01*
X49240978Y-44495457D01*
X49128419Y-44564015D01*
X49007658Y-44623542D01*
X48880572Y-44672898D01*
X48746603Y-44712108D01*
X48607352Y-44740461D01*
X48462858Y-44757740D01*
X48314206Y-44763558D01*
X48274932Y-44763163D01*
X47983536Y-44734431D01*
X47714510Y-44662568D01*
X47472370Y-44551204D01*
X47260612Y-44403989D01*
X47081884Y-44224145D01*
X46938383Y-44014185D01*
X46880596Y-43898652D01*
X46832311Y-43775837D01*
X46794110Y-43646426D01*
X46766257Y-43510178D01*
X46749205Y-43367246D01*
X46743419Y-43217867D01*
X47478529Y-43217867D01*
X47496176Y-43450991D01*
X47552983Y-43669048D01*
X47643689Y-43847073D01*
X47764996Y-43987443D01*
X47836992Y-44044066D01*
X47915958Y-44091127D01*
X48003348Y-44129067D01*
X48097313Y-44156627D01*
X48200624Y-44173934D01*
X48310176Y-44179756D01*
X48491130Y-44163532D01*
X48674062Y-44106582D01*
X48829210Y-44011121D01*
X48896824Y-43948695D01*
X48956850Y-43876998D01*
X49010179Y-43794125D01*
X49054907Y-43701956D01*
X49091747Y-43597206D01*
X49118713Y-43483017D01*
X49135843Y-43355224D01*
X49141640Y-43217867D01*
X49124522Y-42991090D01*
X49068056Y-42774384D01*
X48977390Y-42596957D01*
X48855870Y-42456784D01*
X48783727Y-42400206D01*
X48704574Y-42353151D01*
X48617068Y-42315241D01*
X48522969Y-42287688D01*
X48419690Y-42270406D01*
X48310176Y-42264587D01*
X48131953Y-42280497D01*
X47948451Y-42337392D01*
X47792347Y-42433013D01*
X47724310Y-42495447D01*
X47663866Y-42567110D01*
X47610292Y-42649621D01*
X47565336Y-42741284D01*
X47528438Y-42844913D01*
X47501420Y-42957709D01*
X47484321Y-43083210D01*
X47478529Y-43217867D01*
X46743419Y-43217867D01*
X46743447Y-43207457D01*
X46750030Y-43059744D01*
X46767857Y-42918362D01*
X46796625Y-42782919D01*
X46835814Y-42654277D01*
X46885437Y-42531600D01*
X46944718Y-42416266D01*
X47014100Y-42307182D01*
X47092401Y-42206066D01*
X47180479Y-42111819D01*
X47276719Y-42026235D01*
X47382223Y-41948462D01*
X47495063Y-41880093D01*
X47616294Y-41820672D01*
X47743937Y-41771400D01*
X47878676Y-41732219D01*
X48018797Y-41703885D01*
X48164370Y-41686604D01*
X48314206Y-41680786D01*
X48347415Y-41681070D01*
G37*
G36*
X49947275Y-41731161D02*
G01*
X50871245Y-44713000D01*
X51984260Y-44713000D01*
X52908231Y-41731161D01*
X52164878Y-41731161D01*
X51623025Y-43558036D01*
X51484539Y-44137624D01*
X51387819Y-44137624D01*
X51245120Y-43558036D01*
X50703267Y-41731161D01*
X49947275Y-41731161D01*
G37*
G36*
X53208650Y-44713000D02*
G01*
X55300223Y-44713000D01*
X55300223Y-44120955D01*
X53930937Y-44120955D01*
X53930937Y-43503448D01*
X55153128Y-43503448D01*
X55153128Y-42936499D01*
X53930937Y-42936499D01*
X53930937Y-42323389D01*
X55287584Y-42323389D01*
X55287584Y-41731161D01*
X53208650Y-41731161D01*
X53208650Y-44713000D01*
G37*
G36*
X57174207Y-41734475D02*
G01*
X57427989Y-41772025D01*
X57642629Y-41846689D01*
X57819053Y-41953707D01*
X57958605Y-42090325D01*
X58014775Y-42169527D01*
X58061687Y-42256002D01*
X58099268Y-42350443D01*
X58126694Y-42451954D01*
X58143824Y-42562588D01*
X58149621Y-42680227D01*
X58148259Y-42735408D01*
X58115373Y-42945341D01*
X58083205Y-43040785D01*
X58041008Y-43129763D01*
X57988641Y-43212695D01*
X57926787Y-43288505D01*
X57854328Y-43358181D01*
X57772763Y-43419881D01*
X57679999Y-43474599D01*
X57578459Y-43520301D01*
X57763290Y-43822734D01*
X58271437Y-44713000D01*
X57469283Y-44713000D01*
X56881268Y-43608594D01*
X56419283Y-43608594D01*
X56419283Y-44713000D01*
X55696996Y-44713000D01*
X55696996Y-43070955D01*
X56419283Y-43070955D01*
X57041003Y-43070955D01*
X57115236Y-43066492D01*
X57240244Y-43030371D01*
X57289555Y-42999300D01*
X57330608Y-42959651D01*
X57365551Y-42907678D01*
X57391113Y-42846098D01*
X57408816Y-42764998D01*
X57414695Y-42671984D01*
X57408632Y-42585989D01*
X57369720Y-42462867D01*
X57337256Y-42414007D01*
X57296076Y-42373142D01*
X57242664Y-42338475D01*
X57179433Y-42313006D01*
X57097326Y-42295529D01*
X57003084Y-42289683D01*
X56419283Y-42289683D01*
X56419283Y-43070955D01*
X55696996Y-43070955D01*
X55696996Y-41731161D01*
X57066099Y-41731161D01*
X57174207Y-41734475D01*
G37*
G36*
X58601532Y-44713000D02*
G01*
X60617451Y-44713000D01*
X60617451Y-44112528D01*
X59323819Y-44112528D01*
X59323819Y-41731161D01*
X58601532Y-41731161D01*
X58601532Y-44713000D01*
G37*
G36*
X62327876Y-41681070D02*
G01*
X62618828Y-41708971D01*
X62887986Y-41780192D01*
X63130599Y-41891101D01*
X63342942Y-42037965D01*
X63522190Y-42217406D01*
X63666052Y-42426726D01*
X63723938Y-42541761D01*
X63772305Y-42664000D01*
X63810534Y-42792626D01*
X63838407Y-42927981D01*
X63855455Y-43069768D01*
X63861240Y-43217867D01*
X63861198Y-43230789D01*
X63854424Y-43379177D01*
X63836408Y-43521218D01*
X63807450Y-43657328D01*
X63768077Y-43786609D01*
X63718282Y-43909891D01*
X63658844Y-44025793D01*
X63589352Y-44135373D01*
X63510972Y-44236946D01*
X63422908Y-44331555D01*
X63326732Y-44417460D01*
X63221439Y-44495457D01*
X63108879Y-44564015D01*
X62988118Y-44623542D01*
X62861033Y-44672898D01*
X62727064Y-44712108D01*
X62587813Y-44740461D01*
X62443319Y-44757740D01*
X62294667Y-44763558D01*
X62255392Y-44763163D01*
X61963996Y-44734431D01*
X61694970Y-44662568D01*
X61452830Y-44551204D01*
X61241072Y-44403989D01*
X61062345Y-44224145D01*
X60918844Y-44014185D01*
X60861056Y-43898652D01*
X60812771Y-43775837D01*
X60774571Y-43646426D01*
X60746718Y-43510178D01*
X60729666Y-43367246D01*
X60723880Y-43217867D01*
X61458990Y-43217867D01*
X61476637Y-43450991D01*
X61533443Y-43669048D01*
X61624149Y-43847073D01*
X61745456Y-43987443D01*
X61817453Y-44044066D01*
X61896418Y-44091127D01*
X61983809Y-44129067D01*
X62077774Y-44156627D01*
X62181084Y-44173934D01*
X62290637Y-44179756D01*
X62471591Y-44163532D01*
X62654522Y-44106582D01*
X62809670Y-44011121D01*
X62877284Y-43948695D01*
X62937311Y-43876998D01*
X62990639Y-43794125D01*
X63035368Y-43701956D01*
X63072207Y-43597206D01*
X63099174Y-43483017D01*
X63116304Y-43355224D01*
X63122100Y-43217867D01*
X63104983Y-42991090D01*
X63048517Y-42774384D01*
X62957851Y-42596957D01*
X62836330Y-42456784D01*
X62764187Y-42400206D01*
X62685034Y-42353151D01*
X62597529Y-42315241D01*
X62503430Y-42287688D01*
X62400151Y-42270406D01*
X62290637Y-42264587D01*
X62112414Y-42280497D01*
X61928912Y-42337392D01*
X61772807Y-42433013D01*
X61704771Y-42495447D01*
X61644326Y-42567110D01*
X61590753Y-42649621D01*
X61545797Y-42741284D01*
X61508899Y-42844913D01*
X61481881Y-42957709D01*
X61464782Y-43083210D01*
X61458990Y-43217867D01*
X60723880Y-43217867D01*
X60723908Y-43207457D01*
X60730490Y-43059744D01*
X60748318Y-42918362D01*
X60777085Y-42782919D01*
X60816274Y-42654277D01*
X60865897Y-42531600D01*
X60925179Y-42416266D01*
X60994560Y-42307182D01*
X61072862Y-42206066D01*
X61160940Y-42111819D01*
X61257180Y-42026235D01*
X61362683Y-41948462D01*
X61475524Y-41880093D01*
X61596754Y-41820672D01*
X61724398Y-41771400D01*
X61859137Y-41732219D01*
X61999257Y-41703885D01*
X62144831Y-41686604D01*
X62294667Y-41680786D01*
X62327876Y-41681070D01*
G37*
G36*
X66989991Y-44713000D02*
G01*
X66259278Y-44713000D01*
X66003006Y-43894175D01*
X64881565Y-43894175D01*
X64625476Y-44713000D01*
X63907219Y-44713000D01*
X64367073Y-43335470D01*
X65057969Y-43335470D01*
X65826601Y-43335470D01*
X65658623Y-42797830D01*
X65494859Y-42268800D01*
X65389895Y-42268800D01*
X65225947Y-42797830D01*
X65057969Y-43335470D01*
X64367073Y-43335470D01*
X64902631Y-41731161D01*
X65994579Y-41731161D01*
X66989991Y-44713000D01*
G37*
G36*
X68816342Y-41748296D02*
G01*
X69085595Y-41807733D01*
X69324099Y-41906271D01*
X69431647Y-41969285D01*
X69531395Y-42041172D01*
X69623198Y-42121737D01*
X69706664Y-42210594D01*
X69782003Y-42308107D01*
X69848368Y-42413408D01*
X69906068Y-42527460D01*
X69954055Y-42648838D01*
X69992499Y-42778999D01*
X70020402Y-42916025D01*
X70037642Y-43061652D01*
X70043454Y-43213654D01*
X70025187Y-43482838D01*
X69964554Y-43752980D01*
X69864922Y-43992309D01*
X69729090Y-44200254D01*
X69648173Y-44292271D01*
X69558989Y-44375947D01*
X69461289Y-44451394D01*
X69355831Y-44517865D01*
X69241783Y-44575596D01*
X69120441Y-44623617D01*
X68990475Y-44662054D01*
X68853669Y-44689957D01*
X68708389Y-44707188D01*
X68556748Y-44713000D01*
X67279968Y-44713000D01*
X67279968Y-44146051D01*
X68002256Y-44146051D01*
X68514616Y-44146051D01*
X68651996Y-44136187D01*
X68746398Y-44116382D01*
X68833841Y-44086404D01*
X68914897Y-44046274D01*
X68988641Y-43996642D01*
X69056807Y-43936059D01*
X69116972Y-43866322D01*
X69171143Y-43784196D01*
X69216300Y-43693120D01*
X69253834Y-43588513D01*
X69281119Y-43475252D01*
X69298484Y-43348481D01*
X69304314Y-43213654D01*
X69291569Y-43020064D01*
X69240156Y-42803457D01*
X69154867Y-42626727D01*
X69039595Y-42487875D01*
X68971180Y-42432181D01*
X68895491Y-42385629D01*
X68811932Y-42348299D01*
X68721321Y-42321022D01*
X68621473Y-42303904D01*
X68514616Y-42298109D01*
X68002256Y-42298109D01*
X68002256Y-44146051D01*
X67279968Y-44146051D01*
X67279968Y-41731161D01*
X68556748Y-41731161D01*
X68816342Y-41748296D01*
G37*
D12*
G36*
X75171946Y-77716661D02*
G01*
X75369355Y-77716661D01*
X75369355Y-77467411D01*
X75624161Y-77467411D01*
X75624161Y-77279833D01*
X75369355Y-77279833D01*
X75369355Y-77030644D01*
X75171946Y-77030644D01*
X75171946Y-77279833D01*
X74917139Y-77279833D01*
X74917139Y-77467411D01*
X75171946Y-77467411D01*
X75171946Y-77716661D01*
G37*
D11*
G36*
X66982125Y-37217279D02*
G01*
X67061458Y-37214364D01*
X67136711Y-37205687D01*
X67205097Y-37191940D01*
X67268948Y-37173005D01*
X67325360Y-37150164D01*
X67376996Y-37122751D01*
X67421394Y-37092503D01*
X67460917Y-37058255D01*
X67493902Y-37021825D01*
X67521947Y-36981856D01*
X67544201Y-36939769D01*
X67561371Y-36894462D01*
X67573135Y-36846569D01*
X67579513Y-36795634D01*
X67580672Y-36761521D01*
X67577817Y-36712304D01*
X67569550Y-36666592D01*
X67537852Y-36584283D01*
X67487063Y-36513878D01*
X67417961Y-36456090D01*
X67330720Y-36412926D01*
X67330720Y-36398271D01*
X67411505Y-36358677D01*
X67447370Y-36331397D01*
X67479382Y-36299580D01*
X67506459Y-36264315D01*
X67528754Y-36225303D01*
X67545239Y-36184364D01*
X67556283Y-36140484D01*
X67561713Y-36079076D01*
X67558807Y-36033241D01*
X67550189Y-35989352D01*
X67516640Y-35908498D01*
X67461542Y-35836715D01*
X67384262Y-35775035D01*
X67283782Y-35725601D01*
X67159515Y-35691510D01*
X67011863Y-35676340D01*
X66980018Y-35675893D01*
X66900672Y-35678808D01*
X66826277Y-35687493D01*
X66760034Y-35701091D01*
X66698691Y-35719789D01*
X66644935Y-35742293D01*
X66595967Y-35769289D01*
X66553670Y-35799323D01*
X66516065Y-35833359D01*
X66484165Y-35870195D01*
X66456958Y-35910692D01*
X66434782Y-35954320D01*
X66417458Y-36001424D01*
X66397788Y-36106834D01*
X66396217Y-36133665D01*
X66751132Y-36133665D01*
X66759324Y-36090641D01*
X66772977Y-36052863D01*
X66789875Y-36023752D01*
X66811364Y-35999024D01*
X66836135Y-35979692D01*
X66865263Y-35964496D01*
X66938739Y-35946684D01*
X66980018Y-35944621D01*
X67028476Y-35947525D01*
X67072617Y-35956129D01*
X67109379Y-35969218D01*
X67141070Y-35987034D01*
X67165061Y-36007331D01*
X67183828Y-36031362D01*
X67196191Y-36057014D01*
X67203228Y-36085736D01*
X67204783Y-36108477D01*
X67201873Y-36142465D01*
X67193230Y-36173391D01*
X67179684Y-36200042D01*
X67161102Y-36223652D01*
X67108623Y-36261631D01*
X67032242Y-36286756D01*
X66935963Y-36295323D01*
X66816253Y-36295323D01*
X66816253Y-36562036D01*
X66931750Y-36562036D01*
X66993859Y-36564990D01*
X67049771Y-36573940D01*
X67093365Y-36586930D01*
X67131024Y-36604789D01*
X67158872Y-36624633D01*
X67181354Y-36648393D01*
X67196959Y-36673696D01*
X67207473Y-36702398D01*
X67213117Y-36748974D01*
X67210240Y-36785447D01*
X67201823Y-36818369D01*
X67188542Y-36847074D01*
X67170570Y-36872263D01*
X67120748Y-36912428D01*
X67051177Y-36938216D01*
X66971683Y-36946352D01*
X66924981Y-36943452D01*
X66882502Y-36934874D01*
X66846407Y-36921663D01*
X66814662Y-36903669D01*
X66788656Y-36882169D01*
X66767095Y-36856588D01*
X66750490Y-36827666D01*
X66738606Y-36795080D01*
X66730158Y-36740547D01*
X66368923Y-36740547D01*
X66373011Y-36798033D01*
X66382725Y-36852075D01*
X66397518Y-36901581D01*
X66417380Y-36947685D01*
X66471266Y-37028998D01*
X66544239Y-37096979D01*
X66637340Y-37151505D01*
X66752180Y-37191186D01*
X66890199Y-37213522D01*
X66982125Y-37217279D01*
G37*
G36*
X37358894Y-26924608D02*
G01*
X37358894Y-27376000D01*
X39290855Y-27376000D01*
X39290855Y-26875607D01*
X38636437Y-26875607D01*
X38170849Y-26889651D01*
X38170849Y-26868585D01*
X38425260Y-26714622D01*
X38643720Y-26569218D01*
X38797715Y-26454542D01*
X38929453Y-26343131D01*
X39027114Y-26247522D01*
X39109118Y-26152772D01*
X39170765Y-26066493D01*
X39220396Y-25979715D01*
X39256895Y-25896173D01*
X39283361Y-25811157D01*
X39307825Y-25635105D01*
X39308410Y-25601575D01*
X39303562Y-25515159D01*
X39289164Y-25432800D01*
X39265873Y-25355950D01*
X39233748Y-25283560D01*
X39144165Y-25153580D01*
X39020459Y-25043385D01*
X38861332Y-24954989D01*
X38665145Y-24892043D01*
X38430899Y-24859472D01*
X38321364Y-24856177D01*
X38182631Y-24861052D01*
X38053092Y-24875643D01*
X37939658Y-24898236D01*
X37834846Y-24929364D01*
X37743939Y-24966573D01*
X37661113Y-25011321D01*
X37589762Y-25061031D01*
X37526108Y-25117541D01*
X37471771Y-25178948D01*
X37425008Y-25246715D01*
X37355113Y-25400238D01*
X37316574Y-25581648D01*
X37309893Y-25685534D01*
X37911952Y-25685534D01*
X37917937Y-25610433D01*
X37933535Y-25542597D01*
X37956461Y-25486679D01*
X37987512Y-25437617D01*
X38024592Y-25397555D01*
X38068960Y-25364257D01*
X38179217Y-25319074D01*
X38314342Y-25304057D01*
X38397645Y-25308955D01*
X38471864Y-25323705D01*
X38530084Y-25345323D01*
X38580110Y-25374954D01*
X38618414Y-25409224D01*
X38649124Y-25450328D01*
X38685830Y-25549957D01*
X38692460Y-25626152D01*
X38687382Y-25689389D01*
X38671370Y-25754055D01*
X38606087Y-25885591D01*
X38479622Y-26043297D01*
X38256000Y-26253404D01*
X37868386Y-26559115D01*
X37358894Y-26924608D01*
G37*
G36*
X41288457Y-26368040D02*
G01*
X41592997Y-26368040D01*
X41592997Y-26847519D01*
X41288457Y-26847519D01*
X41288457Y-27376000D01*
X40707464Y-27376000D01*
X40707464Y-26847519D01*
X39507010Y-26847519D01*
X39507010Y-26420552D01*
X39551026Y-26343616D01*
X40123113Y-26343616D01*
X40123113Y-26368040D01*
X40707464Y-26368040D01*
X40707464Y-25874669D01*
X40721508Y-25409081D01*
X40644571Y-25409081D01*
X40123113Y-26343616D01*
X39551026Y-26343616D01*
X40382010Y-24891134D01*
X41288457Y-24891134D01*
X41288457Y-26368040D01*
G37*
G36*
X41763356Y-24891134D02*
G01*
X42533332Y-27376000D01*
X43460844Y-27376000D01*
X44230820Y-24891134D01*
X43611359Y-24891134D01*
X43159815Y-26413530D01*
X43044410Y-26896520D01*
X42963810Y-26896520D01*
X42844894Y-26413530D01*
X42393350Y-24891134D01*
X41763356Y-24891134D01*
G37*
G36*
X45782830Y-27376000D02*
G01*
X45782830Y-25920159D01*
X45779319Y-25419614D01*
X45852897Y-25419614D01*
X45957922Y-25920159D01*
X46321844Y-27376000D01*
X47140821Y-27376000D01*
X47501384Y-25920159D01*
X47602897Y-25419614D01*
X47679834Y-25419614D01*
X47676323Y-25920159D01*
X47676323Y-27376000D01*
X48222358Y-27376000D01*
X48222358Y-24891134D01*
X47196844Y-24891134D01*
X46857346Y-26396128D01*
X46766366Y-26858052D01*
X46692940Y-26858052D01*
X46601807Y-26399639D01*
X46258799Y-24891134D01*
X45233437Y-24891134D01*
X45233437Y-27376000D01*
X45782830Y-27376000D01*
G37*
G36*
X49733013Y-25497196D02*
G01*
X49929344Y-25550460D01*
X50101132Y-25635155D01*
X50245926Y-25747881D01*
X50362198Y-25886259D01*
X50409107Y-25964489D01*
X50448482Y-26049141D01*
X50479754Y-26139703D01*
X50502662Y-26236423D01*
X50516790Y-26339538D01*
X50521599Y-26448640D01*
X50507585Y-26631978D01*
X50487053Y-26730673D01*
X50457964Y-26823279D01*
X50420305Y-26910592D01*
X50374807Y-26991432D01*
X50320847Y-27067026D01*
X50259703Y-27135636D01*
X50190110Y-27198549D01*
X50114002Y-27253849D01*
X50029724Y-27302508D01*
X49939699Y-27342856D01*
X49842364Y-27375338D01*
X49740212Y-27398820D01*
X49632295Y-27413275D01*
X49520662Y-27418131D01*
X49306941Y-27399900D01*
X49110106Y-27346381D01*
X48937765Y-27261358D01*
X48792453Y-27148275D01*
X48675785Y-27009624D01*
X48628742Y-26931342D01*
X48589270Y-26846713D01*
X48557943Y-26756297D01*
X48535005Y-26659832D01*
X48520871Y-26557157D01*
X48516060Y-26448640D01*
X49093542Y-26448640D01*
X49098252Y-26548693D01*
X49131675Y-26710097D01*
X49192049Y-26831894D01*
X49231523Y-26880001D01*
X49276463Y-26919512D01*
X49328527Y-26951645D01*
X49385444Y-26974749D01*
X49450930Y-26989609D01*
X49520662Y-26994523D01*
X49589963Y-26989657D01*
X49705613Y-26954853D01*
X49800689Y-26887602D01*
X49840880Y-26840752D01*
X49875155Y-26785108D01*
X49903936Y-26718039D01*
X49925359Y-26641244D01*
X49939330Y-26550417D01*
X49944118Y-26448640D01*
X49939446Y-26348823D01*
X49906117Y-26187014D01*
X49845967Y-26064981D01*
X49806777Y-26016912D01*
X49762120Y-25977380D01*
X49710618Y-25945358D01*
X49654248Y-25922296D01*
X49589615Y-25907508D01*
X49520662Y-25902605D01*
X49448761Y-25907840D01*
X49332765Y-25943377D01*
X49237254Y-26011335D01*
X49196936Y-26058401D01*
X49162530Y-26114215D01*
X49133726Y-26181152D01*
X49112275Y-26257694D01*
X49098326Y-26347798D01*
X49093542Y-26448640D01*
X48516060Y-26448640D01*
X48530243Y-26264876D01*
X48550894Y-26166426D01*
X48580112Y-26074041D01*
X48617949Y-25986836D01*
X48663638Y-25906089D01*
X48717858Y-25830499D01*
X48779275Y-25761890D01*
X48849209Y-25698925D01*
X48925663Y-25643580D01*
X49010325Y-25594864D01*
X49100717Y-25554472D01*
X49198390Y-25521960D01*
X49300835Y-25498461D01*
X49408929Y-25484005D01*
X49520662Y-25479148D01*
X49733013Y-25497196D01*
G37*
G36*
X51866767Y-25521128D02*
G01*
X51527269Y-25521128D01*
X51527269Y-25048670D01*
X50946277Y-25048670D01*
X50946277Y-25521128D01*
X50694401Y-25521128D01*
X50694401Y-25955117D01*
X50946277Y-25955117D01*
X50946277Y-27092525D01*
X50964829Y-27196711D01*
X51017891Y-27283934D01*
X51055855Y-27318633D01*
X51100221Y-27345900D01*
X51149842Y-27364795D01*
X51204183Y-27374688D01*
X51233415Y-27376000D01*
X51866767Y-27376000D01*
X51866767Y-26966587D01*
X51527269Y-26966587D01*
X51527269Y-25955117D01*
X51866767Y-25955117D01*
X51866767Y-25521128D01*
G37*
G36*
X53257437Y-25497196D02*
G01*
X53453769Y-25550460D01*
X53625556Y-25635155D01*
X53770350Y-25747881D01*
X53886623Y-25886259D01*
X53933531Y-25964489D01*
X53972906Y-26049141D01*
X54004178Y-26139703D01*
X54027086Y-26236423D01*
X54041214Y-26339538D01*
X54046024Y-26448640D01*
X54032009Y-26631978D01*
X54011478Y-26730673D01*
X53982388Y-26823279D01*
X53944729Y-26910592D01*
X53899231Y-26991432D01*
X53845271Y-27067026D01*
X53784127Y-27135636D01*
X53714535Y-27198549D01*
X53638427Y-27253849D01*
X53554148Y-27302508D01*
X53464123Y-27342856D01*
X53366788Y-27375338D01*
X53264637Y-27398820D01*
X53156719Y-27413275D01*
X53045086Y-27418131D01*
X52831365Y-27399900D01*
X52634530Y-27346381D01*
X52462189Y-27261358D01*
X52316878Y-27148275D01*
X52200210Y-27009624D01*
X52153167Y-26931342D01*
X52113694Y-26846713D01*
X52082368Y-26756297D01*
X52059429Y-26659832D01*
X52045295Y-26557157D01*
X52040485Y-26448640D01*
X52617966Y-26448640D01*
X52622676Y-26548693D01*
X52656099Y-26710097D01*
X52716473Y-26831894D01*
X52755947Y-26880001D01*
X52800888Y-26919512D01*
X52852951Y-26951645D01*
X52909868Y-26974749D01*
X52975354Y-26989609D01*
X53045086Y-26994523D01*
X53114387Y-26989657D01*
X53230038Y-26954853D01*
X53325113Y-26887602D01*
X53365304Y-26840752D01*
X53399579Y-26785108D01*
X53428360Y-26718039D01*
X53449783Y-26641244D01*
X53463755Y-26550417D01*
X53468542Y-26448640D01*
X53463871Y-26348823D01*
X53430541Y-26187014D01*
X53370392Y-26064981D01*
X53331201Y-26016912D01*
X53286544Y-25977380D01*
X53235042Y-25945358D01*
X53178673Y-25922296D01*
X53114039Y-25907508D01*
X53045086Y-25902605D01*
X52973185Y-25907840D01*
X52857189Y-25943377D01*
X52761678Y-26011335D01*
X52721361Y-26058401D01*
X52686954Y-26114215D01*
X52658150Y-26181152D01*
X52636699Y-26257694D01*
X52622750Y-26347798D01*
X52617966Y-26448640D01*
X52040485Y-26448640D01*
X52054667Y-26264876D01*
X52075318Y-26166426D01*
X52104537Y-26074041D01*
X52142373Y-25986836D01*
X52188062Y-25906089D01*
X52242282Y-25830499D01*
X52303699Y-25761890D01*
X52373634Y-25698925D01*
X52450088Y-25643580D01*
X52534750Y-25594864D01*
X52625142Y-25554472D01*
X52722815Y-25521960D01*
X52825259Y-25498461D01*
X52933354Y-25484005D01*
X53045086Y-25479148D01*
X53257437Y-25497196D01*
G37*
G36*
X54338810Y-27376000D02*
G01*
X54919803Y-27376000D01*
X54919803Y-26280570D01*
X54924640Y-26206074D01*
X54938962Y-26144104D01*
X54959320Y-26099062D01*
X54986686Y-26062637D01*
X55058595Y-26014623D01*
X55163807Y-25991785D01*
X55210299Y-25990074D01*
X55434239Y-25990074D01*
X55434239Y-25521128D01*
X55350281Y-25521128D01*
X55225609Y-25526534D01*
X55125639Y-25544835D01*
X55067885Y-25566607D01*
X55016966Y-25597027D01*
X54931248Y-25683125D01*
X54895226Y-25734535D01*
X54877823Y-25734535D01*
X54877823Y-25521128D01*
X54338810Y-25521128D01*
X54338810Y-27376000D01*
G37*
D12*
G36*
X40230053Y-28683338D02*
G01*
X40032644Y-28683338D01*
X40032644Y-28932588D01*
X39777838Y-28932588D01*
X39777838Y-29120166D01*
X40032644Y-29120166D01*
X40032644Y-29369355D01*
X40230053Y-29369355D01*
X40230053Y-29120166D01*
X40484860Y-29120166D01*
X40484860Y-28932588D01*
X40230053Y-28932588D01*
X40230053Y-28683338D01*
G37*
G36*
X40246053Y-77005338D02*
G01*
X40048644Y-77005338D01*
X40048644Y-77254588D01*
X39793838Y-77254588D01*
X39793838Y-77442166D01*
X40048644Y-77442166D01*
X40048644Y-77691355D01*
X40246053Y-77691355D01*
X40246053Y-77442166D01*
X40500860Y-77442166D01*
X40500860Y-77254588D01*
X40246053Y-77254588D01*
X40246053Y-77005338D01*
G37*
G36*
X29392053Y-43616338D02*
G01*
X29194644Y-43616338D01*
X29194644Y-43865588D01*
X28939838Y-43865588D01*
X28939838Y-44053166D01*
X29194644Y-44053166D01*
X29194644Y-44302355D01*
X29392053Y-44302355D01*
X29392053Y-44053166D01*
X29646860Y-44053166D01*
X29646860Y-43865588D01*
X29392053Y-43865588D01*
X29392053Y-43616338D01*
G37*
D11*
G36*
X67339860Y-30556536D02*
G01*
X67024878Y-30556536D01*
X66630029Y-30816930D01*
X66630029Y-31115150D01*
X66646882Y-31115150D01*
X66961864Y-30957613D01*
X66980731Y-30957613D01*
X66980731Y-32047456D01*
X67339860Y-32047456D01*
X67339860Y-30556536D01*
G37*
G36*
X48020419Y-34647456D02*
G01*
X48419481Y-34647456D01*
X49009511Y-33370676D01*
X49009511Y-33156536D01*
X47904923Y-33156536D01*
X47904923Y-33456772D01*
X48600007Y-33456772D01*
X48020419Y-34647456D01*
G37*
D12*
G36*
X35214576Y-84080000D02*
G01*
X35537953Y-84080000D01*
X35773159Y-83353438D01*
X35773159Y-83338051D01*
X35533740Y-83338051D01*
X35428777Y-83744043D01*
X35390980Y-83902252D01*
X35364357Y-83902252D01*
X35326561Y-83744043D01*
X35221536Y-83338051D01*
X34979370Y-83338051D01*
X34979370Y-83353438D01*
X35214576Y-84080000D01*
G37*
G36*
X35876107Y-84080000D02*
G01*
X36094460Y-84080000D01*
X36094460Y-83333838D01*
X36126700Y-83333838D01*
X36191058Y-83515860D01*
X36405259Y-84080000D01*
X36776264Y-84080000D01*
X36776264Y-83086053D01*
X36559255Y-83086053D01*
X36559255Y-83832215D01*
X36527076Y-83832215D01*
X36462657Y-83650254D01*
X36248456Y-83086053D01*
X35876107Y-83086053D01*
X35876107Y-84080000D01*
G37*
G36*
X37443553Y-83069356D02*
G01*
X37540538Y-83078657D01*
X37630257Y-83102397D01*
X37711128Y-83139367D01*
X37781909Y-83188321D01*
X37841658Y-83248135D01*
X37889612Y-83317908D01*
X37908908Y-83356253D01*
X37925030Y-83397000D01*
X37937773Y-83439875D01*
X37947064Y-83484993D01*
X37952747Y-83532256D01*
X37954675Y-83581622D01*
X37954661Y-83585929D01*
X37952403Y-83635392D01*
X37946398Y-83682739D01*
X37936745Y-83728109D01*
X37923621Y-83771203D01*
X37907022Y-83812297D01*
X37887210Y-83850931D01*
X37864046Y-83887457D01*
X37837919Y-83921315D01*
X37808564Y-83952851D01*
X37776506Y-83981486D01*
X37741408Y-84007485D01*
X37703888Y-84030338D01*
X37663634Y-84050180D01*
X37621272Y-84066632D01*
X37576616Y-84079702D01*
X37530199Y-84089153D01*
X37482035Y-84094913D01*
X37432484Y-84096852D01*
X37419392Y-84096721D01*
X37322260Y-84087143D01*
X37232585Y-84063189D01*
X37151872Y-84026068D01*
X37081286Y-83976996D01*
X37021710Y-83917048D01*
X36973876Y-83847061D01*
X36954614Y-83808550D01*
X36938519Y-83767612D01*
X36925785Y-83724475D01*
X36916501Y-83679059D01*
X36910817Y-83631415D01*
X36908888Y-83581622D01*
X37153925Y-83581622D01*
X37159807Y-83659330D01*
X37178743Y-83732016D01*
X37208978Y-83791357D01*
X37249414Y-83838147D01*
X37273412Y-83857022D01*
X37299734Y-83872709D01*
X37328864Y-83885355D01*
X37360186Y-83894542D01*
X37394623Y-83900311D01*
X37431140Y-83902252D01*
X37491459Y-83896844D01*
X37552436Y-83877860D01*
X37604152Y-83846040D01*
X37626690Y-83825231D01*
X37646698Y-83801332D01*
X37664475Y-83773708D01*
X37679384Y-83742985D01*
X37691664Y-83708068D01*
X37700653Y-83670005D01*
X37706363Y-83627408D01*
X37708295Y-83581622D01*
X37702589Y-83506030D01*
X37683767Y-83433794D01*
X37653545Y-83374652D01*
X37613038Y-83327928D01*
X37588991Y-83309068D01*
X37562606Y-83293383D01*
X37533438Y-83280747D01*
X37502071Y-83271562D01*
X37467645Y-83265802D01*
X37431140Y-83263862D01*
X37371733Y-83269165D01*
X37310566Y-83288130D01*
X37258531Y-83320004D01*
X37235852Y-83340815D01*
X37215704Y-83364703D01*
X37197846Y-83392207D01*
X37182860Y-83422761D01*
X37170561Y-83457304D01*
X37161555Y-83494903D01*
X37155856Y-83536736D01*
X37153925Y-83581622D01*
X36908888Y-83581622D01*
X36908897Y-83578152D01*
X36911092Y-83528914D01*
X36917034Y-83481787D01*
X36926623Y-83436639D01*
X36939686Y-83393759D01*
X36956227Y-83352866D01*
X36975988Y-83314422D01*
X36999115Y-83278060D01*
X37025215Y-83244355D01*
X37054575Y-83212939D01*
X37086655Y-83184411D01*
X37121823Y-83158487D01*
X37159436Y-83135697D01*
X37199846Y-83115890D01*
X37242394Y-83099466D01*
X37287307Y-83086406D01*
X37334014Y-83076961D01*
X37382538Y-83071201D01*
X37432484Y-83069262D01*
X37443553Y-83069356D01*
G37*
G36*
X37976840Y-83086053D02*
G01*
X38284830Y-84080000D01*
X38655835Y-84080000D01*
X38963825Y-83086053D01*
X38716041Y-83086053D01*
X38535423Y-83695012D01*
X38489262Y-83888208D01*
X38457021Y-83888208D01*
X38409455Y-83695012D01*
X38228838Y-83086053D01*
X37976840Y-83086053D01*
G37*
G36*
X39101823Y-83447227D02*
G01*
X39282440Y-83447227D01*
X39311810Y-83086053D01*
X39072391Y-83086053D01*
X39101823Y-83447227D01*
G37*
G36*
X39436130Y-83899443D02*
G01*
X39436130Y-84080000D01*
X40208914Y-84080000D01*
X40208914Y-83879842D01*
X39947147Y-83879842D01*
X39760912Y-83885460D01*
X39760912Y-83877034D01*
X39862676Y-83815448D01*
X39950060Y-83757287D01*
X40011658Y-83711417D01*
X40064353Y-83666852D01*
X40103418Y-83628609D01*
X40136219Y-83590708D01*
X40160878Y-83556197D01*
X40180731Y-83521486D01*
X40195330Y-83488069D01*
X40205917Y-83454062D01*
X40215702Y-83383642D01*
X40215936Y-83370230D01*
X40213997Y-83335663D01*
X40208238Y-83302720D01*
X40198921Y-83271980D01*
X40186072Y-83243024D01*
X40150238Y-83191032D01*
X40100756Y-83146954D01*
X40037105Y-83111595D01*
X39958630Y-83086417D01*
X39864932Y-83073389D01*
X39821118Y-83072070D01*
X39765625Y-83074021D01*
X39713809Y-83079857D01*
X39668435Y-83088894D01*
X39626510Y-83101345D01*
X39590148Y-83116229D01*
X39557017Y-83134128D01*
X39528477Y-83154012D01*
X39503016Y-83176616D01*
X39481281Y-83201179D01*
X39462575Y-83228286D01*
X39434618Y-83289695D01*
X39419202Y-83362259D01*
X39416530Y-83403813D01*
X39657353Y-83403813D01*
X39659747Y-83373773D01*
X39665986Y-83346638D01*
X39675157Y-83324271D01*
X39687577Y-83304647D01*
X39702409Y-83288622D01*
X39720156Y-83275303D01*
X39764259Y-83257229D01*
X39818309Y-83251222D01*
X39851630Y-83253182D01*
X39881318Y-83259082D01*
X39904606Y-83267729D01*
X39924616Y-83279581D01*
X39939938Y-83293289D01*
X39952222Y-83309731D01*
X39966904Y-83349582D01*
X39969556Y-83380061D01*
X39967525Y-83405355D01*
X39961120Y-83431222D01*
X39935007Y-83483836D01*
X39884421Y-83546919D01*
X39794972Y-83630961D01*
X39639927Y-83753246D01*
X39436130Y-83899443D01*
G37*
G36*
X40717978Y-84095448D02*
G01*
X40770065Y-84093507D01*
X40819316Y-84087737D01*
X40864064Y-84078593D01*
X40905824Y-84066014D01*
X40943017Y-84050742D01*
X40977143Y-84032422D01*
X41006950Y-84011975D01*
X41033650Y-83988822D01*
X41056442Y-83963847D01*
X41076070Y-83936433D01*
X41092154Y-83907182D01*
X41104957Y-83875676D01*
X41120246Y-83806260D01*
X41122566Y-83763644D01*
X41120628Y-83724351D01*
X41114882Y-83687235D01*
X41105695Y-83653202D01*
X41093065Y-83621436D01*
X41077365Y-83592482D01*
X41058509Y-83565907D01*
X41011883Y-83520407D01*
X40953162Y-83485139D01*
X40881896Y-83460958D01*
X40797580Y-83449368D01*
X40768414Y-83448632D01*
X40720373Y-83450650D01*
X40674344Y-83456962D01*
X40636290Y-83466307D01*
X40600787Y-83479491D01*
X40552808Y-83507433D01*
X40575218Y-83286210D01*
X41075000Y-83286210D01*
X41075000Y-83086053D01*
X40384830Y-83086053D01*
X40332990Y-83692264D01*
X40562578Y-83695012D01*
X40574576Y-83672701D01*
X40589280Y-83653880D01*
X40624852Y-83627321D01*
X40671708Y-83612137D01*
X40719382Y-83608244D01*
X40748039Y-83610168D01*
X40774304Y-83615817D01*
X40797398Y-83624715D01*
X40817902Y-83636798D01*
X40835362Y-83651601D01*
X40850020Y-83669155D01*
X40870321Y-83711885D01*
X40877590Y-83765048D01*
X40875663Y-83793743D01*
X40869987Y-83819953D01*
X40861101Y-83842764D01*
X40849015Y-83863000D01*
X40834185Y-83880228D01*
X40816548Y-83894735D01*
X40773066Y-83915207D01*
X40718142Y-83923219D01*
X40713825Y-83923257D01*
X40683981Y-83921311D01*
X40656564Y-83915510D01*
X40633093Y-83906548D01*
X40612116Y-83894244D01*
X40594450Y-83879303D01*
X40579385Y-83861351D01*
X40557724Y-83816874D01*
X40550000Y-83781840D01*
X40313389Y-83781840D01*
X40317020Y-83819609D01*
X40324421Y-83855466D01*
X40335216Y-83888495D01*
X40349486Y-83919487D01*
X40366891Y-83947933D01*
X40387561Y-83974195D01*
X40438398Y-84019704D01*
X40502425Y-84055637D01*
X40580456Y-84080969D01*
X40673358Y-84094074D01*
X40717978Y-84095448D01*
G37*
G36*
X57816053Y-22948338D02*
G01*
X57618644Y-22948338D01*
X57618644Y-23197588D01*
X57363838Y-23197588D01*
X57363838Y-23385166D01*
X57618644Y-23385166D01*
X57618644Y-23634355D01*
X57816053Y-23634355D01*
X57816053Y-23385166D01*
X58070860Y-23385166D01*
X58070860Y-23197588D01*
X57816053Y-23197588D01*
X57816053Y-22948338D01*
G37*
G36*
X75154946Y-29393661D02*
G01*
X75352355Y-29393661D01*
X75352355Y-29144411D01*
X75607161Y-29144411D01*
X75607161Y-28956833D01*
X75352355Y-28956833D01*
X75352355Y-28707644D01*
X75154946Y-28707644D01*
X75154946Y-28956833D01*
X74900139Y-28956833D01*
X74900139Y-29144411D01*
X75154946Y-29144411D01*
X75154946Y-29393661D01*
G37*
D11*
G36*
X48401168Y-35743023D02*
G01*
X48533134Y-35756282D01*
X48647064Y-35789290D01*
X48742556Y-35839480D01*
X48819723Y-35904987D01*
X48878610Y-35984880D01*
X48901088Y-36030246D01*
X48918648Y-36079078D01*
X48931204Y-36131882D01*
X48938327Y-36188025D01*
X48572970Y-36188025D01*
X48570074Y-36173936D01*
X48544196Y-36106654D01*
X48525513Y-36080445D01*
X48502966Y-36058714D01*
X48475223Y-36040712D01*
X48443349Y-36027596D01*
X48403477Y-36018770D01*
X48358739Y-36015834D01*
X48319522Y-36019025D01*
X48284331Y-36028040D01*
X48252175Y-36042495D01*
X48220517Y-36063990D01*
X48192326Y-36090982D01*
X48164535Y-36127497D01*
X48140983Y-36169672D01*
X48119214Y-36223603D01*
X48102643Y-36282846D01*
X48090184Y-36353273D01*
X48083691Y-36427444D01*
X48089686Y-36422630D01*
X48133371Y-36392438D01*
X48180012Y-36367884D01*
X48233542Y-36347222D01*
X48289006Y-36332646D01*
X48349988Y-36323374D01*
X48411220Y-36320374D01*
X48462553Y-36321973D01*
X48588474Y-36341005D01*
X48696970Y-36379274D01*
X48787093Y-36434125D01*
X48858523Y-36503521D01*
X48911000Y-36586279D01*
X48929934Y-36632561D01*
X48943755Y-36682009D01*
X48952286Y-36734912D01*
X48955180Y-36790786D01*
X48952365Y-36845984D01*
X48943931Y-36898894D01*
X48930136Y-36948661D01*
X48910821Y-36996102D01*
X48886476Y-37040159D01*
X48856300Y-37082094D01*
X48821340Y-37120279D01*
X48780094Y-37156048D01*
X48734312Y-37187586D01*
X48682054Y-37215915D01*
X48625618Y-37239467D01*
X48563158Y-37258736D01*
X48497068Y-37272691D01*
X48426183Y-37281365D01*
X48352419Y-37284279D01*
X48311523Y-37283412D01*
X48179004Y-37266878D01*
X48066188Y-37231114D01*
X48016258Y-37206422D01*
X47970399Y-37177300D01*
X47928036Y-37143371D01*
X47889815Y-37105134D01*
X47854638Y-37061212D01*
X47823843Y-37012957D01*
X47796204Y-36957791D01*
X47773340Y-36898159D01*
X47754297Y-36830295D01*
X47746807Y-36790786D01*
X48110985Y-36790786D01*
X48120984Y-36866192D01*
X48133748Y-36900452D01*
X48151216Y-36930826D01*
X48173572Y-36957728D01*
X48200082Y-36980267D01*
X48231476Y-36998836D01*
X48266474Y-37012405D01*
X48305888Y-37020985D01*
X48348206Y-37023885D01*
X48430863Y-37013211D01*
X48495962Y-36983592D01*
X48522433Y-36962240D01*
X48544655Y-36936797D01*
X48562839Y-36906694D01*
X48576185Y-36872742D01*
X48584729Y-36833595D01*
X48587625Y-36790786D01*
X48577753Y-36716558D01*
X48565197Y-36683039D01*
X48547931Y-36653247D01*
X48525853Y-36626967D01*
X48499498Y-36604879D01*
X48468061Y-36586632D01*
X48432691Y-36573246D01*
X48392206Y-36564704D01*
X48348206Y-36561808D01*
X48268691Y-36572087D01*
X48203193Y-36601740D01*
X48176491Y-36623113D01*
X48154019Y-36648556D01*
X48135775Y-36678286D01*
X48122362Y-36711704D01*
X48113872Y-36749573D01*
X48110985Y-36790786D01*
X47746807Y-36790786D01*
X47740550Y-36757784D01*
X47731713Y-36675891D01*
X47728775Y-36589194D01*
X47739503Y-36399594D01*
X47769058Y-36240223D01*
X47814639Y-36106809D01*
X47874212Y-35996868D01*
X47946780Y-35907949D01*
X48032519Y-35838194D01*
X48080731Y-35810185D01*
X48132731Y-35786810D01*
X48189197Y-35768057D01*
X48249630Y-35754374D01*
X48315699Y-35745793D01*
X48386033Y-35742893D01*
X48401168Y-35743023D01*
G37*
D12*
G36*
X29343053Y-62069338D02*
G01*
X29145644Y-62069338D01*
X29145644Y-62318588D01*
X28890838Y-62318588D01*
X28890838Y-62506166D01*
X29145644Y-62506166D01*
X29145644Y-62755355D01*
X29343053Y-62755355D01*
X29343053Y-62506166D01*
X29597860Y-62506166D01*
X29597860Y-62318588D01*
X29343053Y-62318588D01*
X29343053Y-62069338D01*
G37*
D14*
%TO.C,SW1*%
X51450000Y-46950000D02*
X51450000Y-59450000D01*
X51450000Y-59450000D02*
X63950000Y-59450000D01*
X63950000Y-46950000D02*
X51450000Y-46950000D01*
X63950000Y-59450000D02*
X63950000Y-46950000D01*
D15*
%TO.C,D5*%
X56618163Y-81026130D02*
G75*
G02*
X56618000Y-78944039I1079837J1041130D01*
G01*
X58778000Y-78944039D02*
G75*
G02*
X58777837Y-81026130I-1080000J-1040961D01*
G01*
%TO.C,D4*%
X73183503Y-76351745D02*
G75*
G02*
X71959549Y-74667394I261643J1477002D01*
G01*
X73707026Y-73397778D02*
G75*
G02*
X74930715Y-75082321I-261876J-1476961D01*
G01*
%TO.C,D2*%
X81850916Y-44219417D02*
G75*
G02*
X83831152Y-43576170I1323751J-705466D01*
G01*
X84498528Y-45630142D02*
G75*
G02*
X82518393Y-46273698I-1323861J705259D01*
G01*
%TO.C,D9*%
X41692974Y-33002222D02*
G75*
G02*
X40469285Y-31317679I261876J1476961D01*
G01*
X42216497Y-30048255D02*
G75*
G02*
X43440451Y-31732606I-261643J-1477002D01*
G01*
%TO.C,D6*%
X40466048Y-75079970D02*
G75*
G02*
X41689738Y-73395426I1485566J207582D01*
G01*
X43437215Y-74665043D02*
G75*
G02*
X42213261Y-76349394I-1485597J-207349D01*
G01*
D16*
%TO.C,G1*%
G36*
X50942729Y-68336997D02*
G01*
X50942729Y-68769360D01*
X50275953Y-68769360D01*
X49609177Y-68769360D01*
X49609177Y-68336997D01*
X49609177Y-67904635D01*
X50275953Y-67904635D01*
X50942729Y-67904635D01*
X50942729Y-68336997D01*
G37*
G36*
X50942729Y-71337489D02*
G01*
X50942729Y-73405537D01*
X50275953Y-73405537D01*
X49609177Y-73405537D01*
X49609177Y-71337489D01*
X49609177Y-69269442D01*
X50275953Y-69269442D01*
X50942729Y-69269442D01*
X50942729Y-71337489D01*
G37*
G36*
X57141662Y-68336997D02*
G01*
X57141662Y-68769360D01*
X56480095Y-68769360D01*
X55818528Y-68769360D01*
X55818528Y-68336997D01*
X55818528Y-67904635D01*
X56480095Y-67904635D01*
X57141662Y-67904635D01*
X57141662Y-68336997D01*
G37*
G36*
X57141662Y-71337489D02*
G01*
X57141662Y-73405537D01*
X56480095Y-73405537D01*
X55818528Y-73405537D01*
X55818528Y-71337489D01*
X55818528Y-69269442D01*
X56480095Y-69269442D01*
X57141662Y-69269442D01*
X57141662Y-71337489D01*
G37*
G36*
X59256592Y-70655086D02*
G01*
X59256592Y-73405537D01*
X58553352Y-73405537D01*
X57850112Y-73405537D01*
X57850112Y-70655086D01*
X57850112Y-67904635D01*
X58553352Y-67904635D01*
X59256592Y-67904635D01*
X59256592Y-70655086D01*
G37*
G36*
X67945518Y-70905127D02*
G01*
X67945518Y-72540812D01*
X68398717Y-72540812D01*
X68851917Y-72540812D01*
X68851917Y-70905127D01*
X68851917Y-69269442D01*
X69513483Y-69269442D01*
X70175050Y-69269442D01*
X70175050Y-72082403D01*
X70175050Y-74895365D01*
X69029029Y-74895365D01*
X67883008Y-74895365D01*
X67883008Y-74463002D01*
X67883008Y-74030639D01*
X68393508Y-74030639D01*
X68904008Y-74030639D01*
X68904008Y-73718726D01*
X68904008Y-73406813D01*
X68328393Y-73402787D01*
X68203644Y-73401885D01*
X68097801Y-73401011D01*
X68008935Y-73400088D01*
X67935116Y-73399038D01*
X67874414Y-73397783D01*
X67824898Y-73396245D01*
X67784640Y-73394347D01*
X67751710Y-73392011D01*
X67724176Y-73389159D01*
X67700110Y-73385713D01*
X67677582Y-73381596D01*
X67654662Y-73376728D01*
X67648594Y-73375374D01*
X67485624Y-73328701D01*
X67333852Y-73264824D01*
X67194117Y-73184616D01*
X67067257Y-73088952D01*
X66954111Y-72978706D01*
X66855516Y-72854753D01*
X66772311Y-72717965D01*
X66705334Y-72569219D01*
X66655425Y-72409387D01*
X66635988Y-72319447D01*
X66633502Y-72304568D01*
X66631249Y-72287531D01*
X66629212Y-72267267D01*
X66627379Y-72242708D01*
X66625733Y-72212787D01*
X66624261Y-72176435D01*
X66622949Y-72132585D01*
X66621781Y-72080168D01*
X66620743Y-72018117D01*
X66619821Y-71945364D01*
X66619000Y-71860840D01*
X66618265Y-71763478D01*
X66617603Y-71652210D01*
X66616998Y-71525967D01*
X66616437Y-71383683D01*
X66615904Y-71224288D01*
X66615385Y-71046714D01*
X66614865Y-70849895D01*
X66614606Y-70746246D01*
X66610972Y-69269442D01*
X67278245Y-69269442D01*
X67945518Y-69269442D01*
X67945518Y-70905127D01*
G37*
G36*
X46668566Y-67904731D02*
G01*
X46874851Y-67905021D01*
X47060577Y-67905506D01*
X47225879Y-67906188D01*
X47370897Y-67907066D01*
X47495767Y-67908143D01*
X47600628Y-67909419D01*
X47685617Y-67910896D01*
X47750871Y-67912574D01*
X47796530Y-67914456D01*
X47819412Y-67916148D01*
X47984784Y-67942995D01*
X48143146Y-67986840D01*
X48291805Y-68046761D01*
X48428068Y-68121835D01*
X48437357Y-68127818D01*
X48508652Y-68179722D01*
X48581763Y-68242618D01*
X48651097Y-68311099D01*
X48711060Y-68379755D01*
X48743960Y-68424276D01*
X48815455Y-68547694D01*
X48873257Y-68684102D01*
X48915993Y-68829681D01*
X48941328Y-68972518D01*
X48942910Y-68996135D01*
X48944381Y-69039148D01*
X48945740Y-69100116D01*
X48946987Y-69177600D01*
X48948121Y-69270159D01*
X48949144Y-69376351D01*
X48950054Y-69494738D01*
X48950851Y-69623879D01*
X48951536Y-69762332D01*
X48952107Y-69908658D01*
X48952566Y-70061417D01*
X48952912Y-70219167D01*
X48953145Y-70380469D01*
X48953265Y-70543882D01*
X48953271Y-70707965D01*
X48953164Y-70871279D01*
X48952943Y-71032382D01*
X48952608Y-71189835D01*
X48952159Y-71342196D01*
X48951597Y-71488026D01*
X48950920Y-71625885D01*
X48950130Y-71754331D01*
X48949225Y-71871924D01*
X48948205Y-71977224D01*
X48947071Y-72068791D01*
X48945822Y-72145183D01*
X48944459Y-72204961D01*
X48942981Y-72246685D01*
X48941598Y-72267202D01*
X48913702Y-72436133D01*
X48869250Y-72593969D01*
X48808812Y-72739976D01*
X48732955Y-72873419D01*
X48642249Y-72993565D01*
X48537263Y-73099681D01*
X48418566Y-73191032D01*
X48286726Y-73266884D01*
X48142313Y-73326504D01*
X48112822Y-73336149D01*
X48084487Y-73345118D01*
X48058806Y-73353199D01*
X48034609Y-73360441D01*
X48010724Y-73366893D01*
X47985979Y-73372603D01*
X47959202Y-73377621D01*
X47929220Y-73381994D01*
X47894863Y-73385773D01*
X47854958Y-73389005D01*
X47808334Y-73391739D01*
X47753818Y-73394024D01*
X47690239Y-73395909D01*
X47616425Y-73397442D01*
X47531204Y-73398673D01*
X47433404Y-73399649D01*
X47321853Y-73400420D01*
X47195380Y-73401034D01*
X47052812Y-73401541D01*
X46892978Y-73401988D01*
X46714705Y-73402425D01*
X46516823Y-73402900D01*
X46507105Y-73402924D01*
X45170949Y-73406212D01*
X45170949Y-72499138D01*
X46577429Y-72499138D01*
X47061884Y-72499138D01*
X47546338Y-72499138D01*
X47546338Y-70655086D01*
X47546338Y-68811033D01*
X47061884Y-68811033D01*
X46577429Y-68811033D01*
X46577429Y-70655086D01*
X46577429Y-72499138D01*
X45170949Y-72499138D01*
X45170949Y-70655423D01*
X45170949Y-70655086D01*
X45170949Y-67904635D01*
X46441582Y-67904635D01*
X46668566Y-67904731D01*
G37*
G36*
X62046054Y-67906664D02*
G01*
X62123259Y-67907149D01*
X62185614Y-67907912D01*
X62234316Y-67908969D01*
X62270561Y-67910337D01*
X62295548Y-67912032D01*
X62310472Y-67914072D01*
X62316531Y-67916472D01*
X62316721Y-67917589D01*
X62311449Y-67928233D01*
X62297207Y-67956374D01*
X62274528Y-68000969D01*
X62243947Y-68060973D01*
X62205998Y-68135340D01*
X62161214Y-68223027D01*
X62110131Y-68322988D01*
X62053281Y-68434178D01*
X61991199Y-68555553D01*
X61924420Y-68686068D01*
X61853476Y-68824679D01*
X61778902Y-68970340D01*
X61701233Y-69122006D01*
X61623506Y-69273744D01*
X60935447Y-70616808D01*
X60980437Y-70706271D01*
X60990535Y-70726154D01*
X61009566Y-70763426D01*
X61036944Y-70816941D01*
X61072080Y-70885554D01*
X61114388Y-70968119D01*
X61163280Y-71063490D01*
X61218168Y-71170523D01*
X61278466Y-71288072D01*
X61343585Y-71414991D01*
X61412937Y-71550135D01*
X61485937Y-71692358D01*
X61561995Y-71840515D01*
X61640525Y-71993461D01*
X61693348Y-72096324D01*
X61772291Y-72250074D01*
X61848579Y-72398712D01*
X61921674Y-72541187D01*
X61991037Y-72676446D01*
X62056131Y-72803439D01*
X62116416Y-72921113D01*
X62171354Y-73028416D01*
X62220407Y-73124297D01*
X62263037Y-73207704D01*
X62298705Y-73277585D01*
X62326874Y-73332888D01*
X62347003Y-73372562D01*
X62358556Y-73395554D01*
X62361268Y-73401225D01*
X62351123Y-73401930D01*
X62321780Y-73402598D01*
X62274876Y-73403222D01*
X62212051Y-73403791D01*
X62134943Y-73404296D01*
X62045190Y-73404728D01*
X61944432Y-73405077D01*
X61834305Y-73405335D01*
X61716449Y-73405491D01*
X61606204Y-73405537D01*
X60851139Y-73405537D01*
X60836501Y-73376886D01*
X60830115Y-73364432D01*
X60814752Y-73334494D01*
X60790950Y-73288122D01*
X60759250Y-73226369D01*
X60720192Y-73150286D01*
X60674315Y-73060924D01*
X60622160Y-72959335D01*
X60564266Y-72846570D01*
X60501173Y-72723682D01*
X60433422Y-72591721D01*
X60361550Y-72451738D01*
X60286100Y-72304786D01*
X60207610Y-72151916D01*
X60126620Y-71994179D01*
X60121327Y-71983869D01*
X59420789Y-70619503D01*
X59462767Y-70535715D01*
X59472551Y-70516400D01*
X59491250Y-70479698D01*
X59518274Y-70426765D01*
X59553030Y-70358755D01*
X59594928Y-70276825D01*
X59643376Y-70182129D01*
X59697784Y-70075823D01*
X59757559Y-69959062D01*
X59822111Y-69833000D01*
X59890848Y-69698793D01*
X59963179Y-69557597D01*
X60038513Y-69410566D01*
X60116258Y-69258856D01*
X60156220Y-69180886D01*
X60807695Y-67909844D01*
X61564786Y-67907171D01*
X61713364Y-67906710D01*
X61842303Y-67906461D01*
X61952801Y-67906440D01*
X62046054Y-67906664D01*
G37*
G36*
X55162171Y-72082039D02*
G01*
X55162171Y-74895365D01*
X54000522Y-74895365D01*
X52838873Y-74895365D01*
X52838873Y-74463002D01*
X52838873Y-74030639D01*
X53354583Y-74030639D01*
X53870292Y-74030639D01*
X53870292Y-73718780D01*
X53870292Y-73406921D01*
X53279049Y-73402718D01*
X53150042Y-73401737D01*
X53040078Y-73400733D01*
X52947361Y-73399646D01*
X52870099Y-73398417D01*
X52806496Y-73396985D01*
X52754759Y-73395291D01*
X52713093Y-73393276D01*
X52679704Y-73390879D01*
X52652797Y-73388041D01*
X52630580Y-73384702D01*
X52611256Y-73380802D01*
X52609669Y-73380438D01*
X52452401Y-73335794D01*
X52305272Y-73277379D01*
X52171186Y-73206485D01*
X52079221Y-73144628D01*
X51955132Y-73039543D01*
X51847447Y-72921977D01*
X51755985Y-72791640D01*
X51680569Y-72648243D01*
X51639837Y-72541031D01*
X52922220Y-72541031D01*
X53378024Y-72538317D01*
X53833828Y-72535603D01*
X53833828Y-71337489D01*
X53833828Y-70139376D01*
X53378024Y-70136662D01*
X52922220Y-70133948D01*
X52922220Y-71337489D01*
X52922220Y-72541031D01*
X51639837Y-72541031D01*
X51621017Y-72491496D01*
X51581435Y-72341558D01*
X51578135Y-72325057D01*
X51575243Y-72307190D01*
X51572732Y-72286547D01*
X51570574Y-72261718D01*
X51568745Y-72231291D01*
X51567216Y-72193856D01*
X51565962Y-72148002D01*
X51564956Y-72092319D01*
X51564171Y-72025396D01*
X51563581Y-71945823D01*
X51563159Y-71852189D01*
X51562879Y-71743083D01*
X51562714Y-71617095D01*
X51562637Y-71472814D01*
X51562622Y-71342698D01*
X51562623Y-71337489D01*
X51562651Y-71182169D01*
X51562754Y-71041067D01*
X51562958Y-70917987D01*
X51563287Y-70811520D01*
X51563768Y-70720258D01*
X51564425Y-70642794D01*
X51565284Y-70577719D01*
X51566371Y-70523627D01*
X51567711Y-70479107D01*
X51569329Y-70442754D01*
X51571251Y-70413159D01*
X51573503Y-70388915D01*
X51576111Y-70368613D01*
X51579098Y-70350845D01*
X51580730Y-70342534D01*
X51623878Y-70179414D01*
X51684092Y-70026194D01*
X51760399Y-69883993D01*
X51851826Y-69753929D01*
X51957400Y-69637121D01*
X52076147Y-69534687D01*
X52207095Y-69447744D01*
X52349271Y-69377411D01*
X52454032Y-69338952D01*
X52482920Y-69329660D01*
X52508817Y-69321329D01*
X52532957Y-69313906D01*
X52556574Y-69307335D01*
X52580903Y-69301559D01*
X52607178Y-69296523D01*
X52636634Y-69292171D01*
X52670504Y-69288448D01*
X52710024Y-69285298D01*
X52756427Y-69282666D01*
X52810949Y-69280495D01*
X52874823Y-69278730D01*
X52949284Y-69277315D01*
X53035565Y-69276195D01*
X53134903Y-69275314D01*
X53248530Y-69274616D01*
X53377682Y-69274045D01*
X53523592Y-69273547D01*
X53687496Y-69273064D01*
X53870626Y-69272543D01*
X53930198Y-69272368D01*
X55162171Y-69268714D01*
X55162171Y-72082039D01*
G37*
G36*
X64378310Y-69274700D02*
G01*
X64490596Y-69274878D01*
X64585660Y-69275234D01*
X64665309Y-69275816D01*
X64731351Y-69276671D01*
X64785592Y-69277847D01*
X64829840Y-69279392D01*
X64865902Y-69281354D01*
X64895585Y-69283781D01*
X64920698Y-69286720D01*
X64943046Y-69290220D01*
X64960653Y-69293558D01*
X65127025Y-69336934D01*
X65281580Y-69397300D01*
X65423772Y-69474121D01*
X65553057Y-69566863D01*
X65668888Y-69674991D01*
X65770720Y-69797971D01*
X65858009Y-69935267D01*
X65930208Y-70086346D01*
X65986773Y-70250673D01*
X66004057Y-70316488D01*
X66007452Y-70332408D01*
X66010415Y-70351159D01*
X66012985Y-70374264D01*
X66015202Y-70403245D01*
X66017106Y-70439624D01*
X66018735Y-70484923D01*
X66020128Y-70540663D01*
X66021325Y-70608368D01*
X66022365Y-70689558D01*
X66023287Y-70785756D01*
X66024130Y-70898484D01*
X66024934Y-71029264D01*
X66025600Y-71152563D01*
X66029539Y-71915709D01*
X64935108Y-71915709D01*
X63840678Y-71915709D01*
X63840678Y-72228260D01*
X63840678Y-72540812D01*
X64726240Y-72540812D01*
X65611802Y-72540812D01*
X65611802Y-72973174D01*
X65611802Y-73405537D01*
X64645497Y-73404528D01*
X64472312Y-73404287D01*
X64318753Y-73403936D01*
X64183612Y-73403457D01*
X64065679Y-73402834D01*
X63963744Y-73402047D01*
X63876599Y-73401080D01*
X63803033Y-73399916D01*
X63741837Y-73398536D01*
X63691801Y-73396923D01*
X63651716Y-73395060D01*
X63620372Y-73392930D01*
X63596561Y-73390514D01*
X63587179Y-73389205D01*
X63421534Y-73353496D01*
X63266005Y-73299947D01*
X63121487Y-73229408D01*
X62988876Y-73142725D01*
X62869070Y-73040746D01*
X62762963Y-72924319D01*
X62671453Y-72794291D01*
X62595435Y-72651510D01*
X62535805Y-72496823D01*
X62499506Y-72360487D01*
X62496305Y-72344364D01*
X62493495Y-72326609D01*
X62491050Y-72305834D01*
X62488946Y-72280652D01*
X62487156Y-72249678D01*
X62485657Y-72211523D01*
X62484423Y-72164802D01*
X62483429Y-72108127D01*
X62482650Y-72040112D01*
X62482061Y-71959369D01*
X62481636Y-71864513D01*
X62481350Y-71754155D01*
X62481179Y-71626911D01*
X62481098Y-71481391D01*
X62481080Y-71342698D01*
X62481103Y-71180881D01*
X62481182Y-71050984D01*
X63840678Y-71050984D01*
X64293877Y-71050984D01*
X64747076Y-71050984D01*
X64747076Y-70592575D01*
X64747076Y-70134167D01*
X64293877Y-70134167D01*
X63840678Y-70134167D01*
X63840678Y-70592575D01*
X63840678Y-71050984D01*
X62481182Y-71050984D01*
X62481190Y-71038505D01*
X62481366Y-70914177D01*
X62481658Y-70806503D01*
X62482092Y-70714087D01*
X62482692Y-70635536D01*
X62483208Y-70592575D01*
X62483486Y-70569455D01*
X62484499Y-70514449D01*
X62485757Y-70469124D01*
X62487286Y-70432085D01*
X62489111Y-70401938D01*
X62491260Y-70377289D01*
X62493757Y-70356744D01*
X62496628Y-70338906D01*
X62499900Y-70322383D01*
X62500046Y-70321698D01*
X62543957Y-70159427D01*
X62603643Y-70010216D01*
X62679772Y-69872775D01*
X62773012Y-69745812D01*
X62832541Y-69679237D01*
X62951284Y-69568521D01*
X63079568Y-69475385D01*
X63218678Y-69399126D01*
X63369901Y-69339043D01*
X63534521Y-69294433D01*
X63538545Y-69293568D01*
X63558790Y-69289574D01*
X63580365Y-69286178D01*
X63605063Y-69283334D01*
X63634676Y-69280994D01*
X63670996Y-69279109D01*
X63715816Y-69277631D01*
X63770927Y-69276514D01*
X63838123Y-69275709D01*
X63919194Y-69275168D01*
X64015935Y-69274843D01*
X64130136Y-69274687D01*
X64246994Y-69274651D01*
X64378310Y-69274700D01*
G37*
D15*
%TO.C,D0*%
X56622000Y-27450961D02*
G75*
G02*
X56622163Y-25368870I1080000J1040961D01*
G01*
X58781837Y-25368870D02*
G75*
G02*
X58782000Y-27450961I-1079837J-1041130D01*
G01*
%TO.C,D7*%
X30896717Y-60771404D02*
G75*
G02*
X32876852Y-60127848I1323861J-705259D01*
G01*
X33544329Y-62182129D02*
G75*
G02*
X31564093Y-62825376I-1323751J705466D01*
G01*
%TO.C,D1*%
X71962785Y-31734957D02*
G75*
G02*
X73186739Y-30050606I1485597J207349D01*
G01*
X74933952Y-31320030D02*
G75*
G02*
X73710262Y-33004574I-1485566J-207582D01*
G01*
%TO.C,D3*%
X82521912Y-60131651D02*
G75*
G02*
X84502048Y-60775208I656274J-1348816D01*
G01*
X83834671Y-62829180D02*
G75*
G02*
X81854435Y-62185933I-656485J1348713D01*
G01*
%TO.C,D8*%
X31570084Y-43572366D02*
G75*
G02*
X33550320Y-44215613I656485J-1348713D01*
G01*
X32882843Y-46269895D02*
G75*
G02*
X30902707Y-45626338I-656274J1348816D01*
G01*
%TD*%
M02*
