M48
; DRILL file {KiCad 9.0.8} date 2026-03-25T13:51:49-0500
; FORMAT={-:-/ absolute / inch / decimal}
; #@! TF.CreationDate,2026-03-25T13:51:49-05:00
; #@! TF.GenerationSoftware,Kicad,Pcbnew,9.0.8
; #@! TF.FileFunction,Plated,1,2,PTH
FMAT,2
INCH
; #@! TA.AperFunction,Plated,PTH,ViaDrill
T1C0.0118
; #@! TA.AperFunction,Plated,PTH,ComponentDrill
T2C0.0276
; #@! TA.AperFunction,Plated,PTH,ComponentDrill
T3C0.0295
; #@! TA.AperFunction,Plated,PTH,ComponentDrill
T4C0.0315
; #@! TA.AperFunction,Plated,PTH,ComponentDrill
T5C0.0354
; #@! TA.AperFunction,Plated,PTH,ComponentDrill
T6C0.0394
; #@! TA.AperFunction,Plated,PTH,ComponentDrill
T7C0.0433
; #@! TA.AperFunction,Plated,PTH,ComponentDrill
T8C0.0480
; #@! TA.AperFunction,Plated,PTH,ComponentDrill
T9C0.0512
%
G90
G05
T1
X1.0728Y-1.8346
X1.7283Y-1.118
X1.8389Y-2.1886
X1.8681Y-1.7283
X1.9522Y-1.0798
X2.1417Y-1.1102
X2.1929Y-1.1161
X2.2185Y-1.2382
X2.2327Y-1.3115
X2.2545Y-1.1875
X2.4098Y-1.0177
X2.862Y-3.0631
T2
X1.1131Y-2.0704
X1.1131Y-2.2704
X1.4755Y-1.8006
X1.571Y-0.914
X1.6169Y-1.6592
X1.771Y-0.914
X1.9049Y-0.9156
X2.1049Y-0.9156
X2.4654Y-3.0063
X2.5096Y-0.9152
X2.6047Y-1.8071
X2.6654Y-3.0063
X2.7096Y-0.9152
X2.8047Y-1.8071
T3
X1.7467Y-1.6163
X1.7967Y-1.5663
X1.7967Y-1.6663
T4
X1.7088Y-1.8002
X1.7127Y-1.4261
X1.8072Y-1.8002
X1.8111Y-1.4261
X2.1135Y-1.3358
X2.1135Y-1.5358
X2.1295Y-1.2358
X2.1295Y-1.4358
X2.4135Y-1.2358
X2.4135Y-1.4358
X2.4295Y-1.3358
X2.4295Y-1.5358
X2.5347Y-1.938
X2.5347Y-2.238
X2.6347Y-1.938
X2.6347Y-2.238
X2.798Y-1.667
X3.098Y-1.667
T5
X1.221Y-2.4358
X1.2212Y-1.7531
X1.3161Y-2.4049
X1.3163Y-1.784
X1.6222Y-2.9882
X1.6224Y-1.2007
X1.681Y-2.9073
X1.6812Y-1.2816
X2.2716Y-3.099
X2.2716Y-3.199
X2.2717Y-0.9898
X2.2717Y-1.0898
X2.8622Y-2.9074
X2.8623Y-1.2817
X2.9209Y-2.9883
X2.9211Y-1.2008
X3.227Y-1.7841
X3.2272Y-2.405
X3.3221Y-1.7532
X3.3223Y-2.4359
T6
X1.3001Y-1.5039
X1.3081Y-1.4039
X1.3081Y-1.6039
X1.4001Y-1.5039
X1.4081Y-1.4039
X1.4081Y-1.6039
X1.8504Y-3.0013
X1.8504Y-3.1982
X1.9969Y-1.2343
X1.9969Y-1.4343
X2.0129Y-1.3343
X2.0129Y-1.5343
X2.0473Y-3.0013
X2.0473Y-3.1982
X2.5288Y-1.2359
X2.5288Y-1.4359
X2.5448Y-1.3359
X2.5448Y-1.5359
T7
X1.9085Y-2.4222
X1.9085Y-2.6073
X1.9488Y-1.9744
X1.9488Y-2.2744
X2.3612Y-2.4222
X2.6368Y-2.4222
T8
X2.2217Y-2.0445
X2.4217Y-2.2445
T9
X1.5037Y-1.952
X1.7005Y-1.952
X2.8257Y-2.6036
X3.0226Y-2.6036
M30
